<?xml version="1.0" encoding="UTF-8" standalone="no"?>
<!-- Created with Inkscape (http://www.inkscape.org/) -->

<svg
   width="600"
   height="380"
   viewBox="0 0 158.75 100.54167"
   version="1.1"
   id="svg11003"
   inkscape:version="1.1.2 (0a00cf5339, 2022-02-04)"
   sodipodi:docname="CellularAuto.svg"
   xmlns:inkscape="http://www.inkscape.org/namespaces/inkscape"
   xmlns:sodipodi="http://sodipodi.sourceforge.net/DTD/sodipodi-0.dtd"
   xmlns="http://www.w3.org/2000/svg"
   xmlns:svg="http://www.w3.org/2000/svg"
   xmlns:rdf="http://www.w3.org/1999/02/22-rdf-syntax-ns#"
   xmlns:cc="http://creativecommons.org/ns#"
   xmlns:dc="http://purl.org/dc/elements/1.1/">
  <defs
     id="defs10997">
    <linearGradient
       id="linearGradient23899"
       inkscape:swatch="gradient">
      <stop
         style="stop-color:#000000;stop-opacity:1;"
         offset="0"
         id="stop23895" />
      <stop
         style="stop-color:#000000;stop-opacity:0;"
         offset="1"
         id="stop23897" />
    </linearGradient>
  </defs>
  <sodipodi:namedview
     id="base"
     pagecolor="#ffffff"
     bordercolor="#666666"
     borderopacity="1.0"
     inkscape:pageopacity="0.0"
     inkscape:pageshadow="2"
     inkscape:zoom="9.5076677"
     inkscape:cx="165.12988"
     inkscape:cy="347.24604"
     inkscape:document-units="mm"
     inkscape:current-layer="layer1"
     showgrid="false"
     fit-margin-top="0"
     fit-margin-left="0"
     fit-margin-right="0"
     fit-margin-bottom="0"
     inkscape:window-width="2554"
     inkscape:window-height="1533"
     inkscape:window-x="0"
     inkscape:window-y="30"
     inkscape:window-maximized="1"
     units="px"
     showguides="true"
     inkscape:guide-bbox="true"
     inkscape:pagecheckerboard="0"
     width="600px">
    <sodipodi:guide
       position="145.2292,39.154892"
       orientation="1,0"
       id="guide93702" />
    <sodipodi:guide
       position="79.249745,64.313214"
       orientation="1,0"
       id="guide54969" />
  </sodipodi:namedview>
  <metadata
     id="metadata11000">
    <rdf:RDF>
      <cc:Work
         rdf:about="">
        <dc:format>image/svg+xml</dc:format>
        <dc:type
           rdf:resource="http://purl.org/dc/dcmitype/StillImage" />
      </cc:Work>
    </rdf:RDF>
  </metadata>
  <g
     inkscape:label="Layer 1"
     inkscape:groupmode="layer"
     id="layer1"
     transform="translate(-64.792954,-75.127967)">
    <path
       inkscape:connector-curvature="0"
       id="path33429"
       d="M 64.792954,75.127967 H 223.79295 V 176.12797 H 64.792954 Z m 0,0"
       style="fill:#e6e6e6;fill-opacity:1;fill-rule:nonzero;stroke:none;stroke-width:0.554747"
       sodipodi:insensitive="true" />
    <g
       aria-label="Freq div"
       style="font-style:normal;font-variant:normal;font-weight:normal;font-stretch:normal;font-size:3.175px;line-height:1.25;font-family:system-ui;-inkscape-font-specification:system-ui;letter-spacing:0px;word-spacing:0px;fill:#000000;fill-opacity:1;stroke:none;stroke-width:0.264583"
       id="text1969-3"
       transform="translate(1.5875,22.85479)" />
    <g
       transform="matrix(1.0000301,0,0,0.99996991,-19.300026,31.456409)"
       id="text24358-0"
       style="font-size:2.56342px;font-family:'DejaVu Sans Mono';-inkscape-font-specification:'DejaVu Sans Mono';letter-spacing:0px;word-spacing:0px;white-space:pre;stroke-width:0.320418" />
    <path
       d="m 187.57718,155.41363 h 0.90848 v 0.1757 h -0.69867 v 0.45475 h 0.63355 v 0.1757 h -0.63355 v 0.73691 h -0.20981 z"
       style="font-size:2.11667px;line-height:1.25;font-family:'Bitstream Vera Sans Mono';-inkscape-font-specification:'Bitstream Vera Sans Mono';letter-spacing:0px;word-spacing:0px;fill:#4d4d4d;stroke-width:0.264583"
       id="path54971" />
    <path
       d="m 189.80444,156.03788 q -0.061,-0.0475 -0.12402,-0.0692 -0.063,-0.0217 -0.13849,-0.0217 -0.17777,0 -0.27182,0.11162 -0.094,0.11162 -0.094,0.32246 v 0.57568 h -0.19121 v -1.15755 h 0.19121 v 0.22634 q 0.0475,-0.12299 0.14572,-0.1881 0.0992,-0.0662 0.23461,-0.0662 0.0703,0 0.13126,0.0176 0.061,0.0176 0.11679,0.0548 z"
       style="font-size:2.11667px;line-height:1.25;font-family:'Bitstream Vera Sans Mono';-inkscape-font-specification:'Bitstream Vera Sans Mono';letter-spacing:0px;word-spacing:0px;fill:#4d4d4d;stroke-width:0.264583"
       id="path54973" />
    <path
       d="m 190.0866,156.51847 v -0.71727 h 0.19017 v 0.71727 q 0,0.15607 0.0548,0.22945 0.0558,0.0734 0.17157,0.0734 0.13436,0 0.20567,-0.094 0.0713,-0.0951 0.0713,-0.27182 v -0.65423 h 0.19121 v 1.15549 h -0.19121 v -0.17363 q -0.0506,0.10025 -0.13849,0.15193 -0.0868,0.0517 -0.2036,0.0517 -0.17777,0 -0.26459,-0.11576 -0.0868,-0.11679 -0.0868,-0.35243 z"
       style="font-size:2.11667px;line-height:1.25;font-family:'Bitstream Vera Sans Mono';-inkscape-font-specification:'Bitstream Vera Sans Mono';letter-spacing:0px;word-spacing:0px;fill:#4d4d4d;stroke-width:0.264583"
       id="path54975" />
    <path
       d="m 191.42398,155.79914 h 0.4868 v 1.00976 h 0.37723 v 0.14779 h -0.94464 v -0.14779 h 0.37724 v -0.86197 h -0.29663 z m 0.29663,-0.45062 h 0.19017 v 0.24081 h -0.19017 z"
       style="font-size:2.11667px;line-height:1.25;font-family:'Bitstream Vera Sans Mono';-inkscape-font-specification:'Bitstream Vera Sans Mono';letter-spacing:0px;word-spacing:0px;fill:#4d4d4d;stroke-width:0.264583"
       id="path54977" />
    <path
       d="m 193.06833,155.47047 v 0.32867 h 0.43202 v 0.14779 h -0.43202 v 0.62839 q 0,0.12816 0.0486,0.1788 0.0486,0.0506 0.16949,0.0506 h 0.21395 v 0.15193 h -0.23255 q -0.21394,0 -0.30179,-0.0858 -0.0879,-0.0858 -0.0879,-0.29559 v -0.62839 h -0.30903 v -0.14779 h 0.30903 v -0.32867 z"
       style="font-size:2.11667px;line-height:1.25;font-family:'Bitstream Vera Sans Mono';-inkscape-font-specification:'Bitstream Vera Sans Mono';letter-spacing:0px;word-spacing:0px;fill:#4d4d4d;stroke-width:0.264583"
       id="path54979" />
    <path
       d="m 194.71371,155.83944 v 0.18604 q -0.0816,-0.0475 -0.16433,-0.0713 -0.0827,-0.0238 -0.16847,-0.0238 -0.12919,0 -0.19327,0.0424 -0.063,0.0413 -0.063,0.12712 0,0.0775 0.0475,0.11576 0.0475,0.0382 0.23668,0.0744 l 0.0765,0.0145 q 0.14159,0.0269 0.21394,0.10749 0.0734,0.0806 0.0734,0.2098 0,0.17157 -0.12195,0.26872 -0.12196,0.0961 -0.339,0.0961 -0.0858,0 -0.17984,-0.0186 -0.094,-0.0176 -0.2036,-0.0537 V 156.718 q 0.10645,0.0548 0.2036,0.0827 0.0971,0.0269 0.18397,0.0269 0.12609,0 0.19534,-0.0506 0.0692,-0.0517 0.0692,-0.14366 0,-0.13229 -0.25321,-0.18294 l -0.008,-0.002 -0.0713,-0.0145 q -0.16433,-0.032 -0.23978,-0.10748 -0.0754,-0.0765 -0.0754,-0.20774 0,-0.1664 0.11266,-0.25632 0.11265,-0.091 0.32142,-0.091 0.093,0 0.1788,0.0176 0.0858,0.0165 0.16847,0.0506 z"
       style="font-size:2.11667px;line-height:1.25;font-family:'Bitstream Vera Sans Mono';-inkscape-font-specification:'Bitstream Vera Sans Mono';letter-spacing:0px;word-spacing:0px;fill:#4d4d4d;stroke-width:0.264583"
       id="path54981" />
    <path
       d="m 195.61908,155.93246 q -0.14469,0 -0.21911,0.11266 -0.0744,0.11265 -0.0744,0.33383 0,0.22014 0.0744,0.33383 0.0744,0.11265 0.21911,0.11265 0.14573,0 0.22015,-0.11265 0.0744,-0.11369 0.0744,-0.33383 0,-0.22118 -0.0744,-0.33383 -0.0744,-0.11266 -0.22015,-0.11266 z m 0,-0.16123 q 0.24082,0 0.36794,0.15606 0.12816,0.15607 0.12816,0.45166 0,0.29662 -0.12713,0.45268 -0.12712,0.15503 -0.36897,0.15503 -0.24081,0 -0.36793,-0.15503 -0.12713,-0.15606 -0.12713,-0.45268 0,-0.29559 0.12713,-0.45166 0.12712,-0.15606 0.36793,-0.15606 z"
       style="font-size:2.11667px;line-height:1.25;font-family:'Bitstream Vera Sans Mono';-inkscape-font-specification:'Bitstream Vera Sans Mono';letter-spacing:0px;word-spacing:0px;fill:#4d4d4d;stroke-width:0.264583"
       id="path54983" />
    <path
       d="m 197.35541,155.34852 v 0.15813 h -0.216 q -0.10232,0 -0.14263,0.0424 -0.0393,0.0413 -0.0393,0.14779 v 0.10232 h 0.39791 v 0.1478 h -0.39791 v 1.00976 h -0.19017 v -1.00976 h -0.30902 v -0.1478 h 0.30902 v -0.0806 q 0,-0.19017 0.0868,-0.28008 0.0879,-0.0899 0.27285,-0.0899 z"
       style="font-size:2.11667px;line-height:1.25;font-family:'Bitstream Vera Sans Mono';-inkscape-font-specification:'Bitstream Vera Sans Mono';letter-spacing:0px;word-spacing:0px;fill:#4d4d4d;stroke-width:0.264583"
       id="path54985" />
    <path
       d="m 197.77503,155.34852 h 0.19637 v 0.93121 l 0.49919,-0.48059 h 0.23151 l -0.45578,0.43615 0.5271,0.7214 h -0.23255 l -0.42788,-0.59738 -0.14159,0.13332 v 0.46406 h -0.19637 z"
       style="font-size:2.11667px;line-height:1.25;font-family:'Bitstream Vera Sans Mono';-inkscape-font-specification:'Bitstream Vera Sans Mono';letter-spacing:0px;word-spacing:0px;fill:#4d4d4d;stroke-width:0.264583"
       id="path54987" />
    <path
       d="m 199.53099,156.37481 h -0.063 q -0.1664,0 -0.25115,0.0589 -0.0837,0.0579 -0.0837,0.17364 0,0.10438 0.063,0.16226 0.0631,0.0579 0.17467,0.0579 0.15709,0 0.24701,-0.10852 0.0899,-0.10955 0.0909,-0.30179 v -0.0424 z m 0.36897,-0.0786 v 0.66043 h -0.1912 v -0.17157 q -0.061,0.10336 -0.15399,0.15296 -0.092,0.0486 -0.22428,0.0486 -0.17673,0 -0.28215,-0.0992 -0.10542,-0.10025 -0.10542,-0.26768 0,-0.19327 0.12919,-0.29352 0.13022,-0.10025 0.38137,-0.10025 h 0.25528 v -0.03 q -0.001,-0.1385 -0.0703,-0.20051 -0.0693,-0.0631 -0.22117,-0.0631 -0.0972,0 -0.19637,0.0279 -0.0992,0.0279 -0.19327,0.0816 v -0.19017 q 0.10542,-0.0403 0.20153,-0.0599 0.0972,-0.0207 0.18811,-0.0207 0.14366,0 0.24494,0.0424 0.10232,0.0424 0.16537,0.12713 0.0393,0.0517 0.0558,0.12815 0.0165,0.0755 0.0165,0.22738 z"
       style="font-size:2.11667px;line-height:1.25;font-family:'Bitstream Vera Sans Mono';-inkscape-font-specification:'Bitstream Vera Sans Mono';letter-spacing:0px;word-spacing:0px;fill:#4d4d4d;stroke-width:0.264583"
       id="path54989" />
    <path
       d="m 201.27353,156.03788 q -0.061,-0.0475 -0.12403,-0.0692 -0.063,-0.0217 -0.13849,-0.0217 -0.17777,0 -0.27182,0.11162 -0.094,0.11162 -0.094,0.32246 v 0.57568 h -0.1912 v -1.15755 h 0.1912 v 0.22634 q 0.0475,-0.12299 0.14573,-0.1881 0.0992,-0.0662 0.23461,-0.0662 0.0703,0 0.13126,0.0176 0.061,0.0176 0.11679,0.0548 z"
       style="font-size:2.11667px;line-height:1.25;font-family:'Bitstream Vera Sans Mono';-inkscape-font-specification:'Bitstream Vera Sans Mono';letter-spacing:0px;word-spacing:0px;fill:#4d4d4d;stroke-width:0.264583"
       id="path54991" />
    <path
       d="m 202.05281,155.91696 q 0.0351,-0.0744 0.0889,-0.10956 0.0548,-0.0362 0.13126,-0.0362 0.13953,0 0.19637,0.10853 0.0579,0.10748 0.0579,0.40617 v 0.67076 h -0.17363 v -0.66249 q 0,-0.24495 -0.0279,-0.30386 -0.0269,-0.0599 -0.0992,-0.0599 -0.0827,0 -0.11369,0.0641 -0.03,0.0631 -0.03,0.29973 v 0.66249 h -0.17363 v -0.66249 q 0,-0.24805 -0.03,-0.30593 -0.0289,-0.0579 -0.10542,-0.0579 -0.0754,0 -0.10542,0.0641 -0.0289,0.0631 -0.0289,0.29973 v 0.66249 h -0.1726 v -1.15755 h 0.1726 v 0.0992 q 0.0341,-0.062 0.0847,-0.0941 0.0517,-0.0331 0.11678,-0.0331 0.0786,0 0.13023,0.0362 0.0527,0.0362 0.0816,0.10955 z"
       style="font-size:2.11667px;line-height:1.25;font-family:'Bitstream Vera Sans Mono';-inkscape-font-specification:'Bitstream Vera Sans Mono';letter-spacing:0px;word-spacing:0px;fill:#4d4d4d;stroke-width:0.264583"
       id="path54993" />
    <path
       d="m 203.35402,156.37481 h -0.063 q -0.1664,0 -0.25115,0.0589 -0.0837,0.0579 -0.0837,0.17364 0,0.10438 0.0631,0.16226 0.063,0.0579 0.17467,0.0579 0.15709,0 0.24701,-0.10852 0.0899,-0.10955 0.091,-0.30179 v -0.0424 z m 0.36897,-0.0786 v 0.66043 h -0.1912 v -0.17157 q -0.061,0.10336 -0.154,0.15296 -0.092,0.0486 -0.22427,0.0486 -0.17674,0 -0.28216,-0.0992 -0.10542,-0.10025 -0.10542,-0.26768 0,-0.19327 0.1292,-0.29352 0.13022,-0.10025 0.38137,-0.10025 h 0.25528 v -0.03 q -0.001,-0.1385 -0.0703,-0.20051 -0.0692,-0.0631 -0.22118,-0.0631 -0.0971,0 -0.19637,0.0279 -0.0992,0.0279 -0.19327,0.0816 v -0.19017 q 0.10542,-0.0403 0.20154,-0.0599 0.0971,-0.0207 0.1881,-0.0207 0.14367,0 0.24495,0.0424 0.10232,0.0424 0.16537,0.12713 0.0393,0.0517 0.0558,0.12815 0.0165,0.0755 0.0165,0.22738 z"
       style="font-size:2.11667px;line-height:1.25;font-family:'Bitstream Vera Sans Mono';-inkscape-font-specification:'Bitstream Vera Sans Mono';letter-spacing:0px;word-spacing:0px;fill:#4d4d4d;stroke-width:0.264583"
       id="path54995" />
    <path
       d="m 205.85027,156.98209 q -0.28998,0 -0.42968,-0.19897 -0.13759,-0.19896 -0.13759,-0.56515 0,-0.36407 0.13759,-0.56303 0.1397,-0.20108 0.42968,-0.20108 0.11007,0 0.19262,0.0296 0.0847,0.0296 0.14605,0.0825 0.0614,0.0508 0.1016,0.12489 0.0402,0.072 0.0635,0.15875 l -0.254,0.072 q -0.0148,-0.0508 -0.0339,-0.0953 -0.0191,-0.0444 -0.0487,-0.0762 -0.0275,-0.0339 -0.0699,-0.0508 -0.0423,-0.0191 -0.1016,-0.0191 -0.14394,0 -0.20744,0.11006 -0.0614,0.11007 -0.0614,0.30057 v 0.254 q 0,0.1905 0.0614,0.30057 0.0635,0.11007 0.20744,0.11007 0.0593,0 0.1016,-0.0169 0.0423,-0.019 0.0699,-0.0508 0.0296,-0.0339 0.0487,-0.0783 0.019,-0.0445 0.0339,-0.0952 l 0.254,0.072 q -0.0233,0.0868 -0.0635,0.16086 -0.0402,0.072 -0.1016,0.12489 -0.0614,0.0508 -0.14605,0.0804 -0.0825,0.0296 -0.19262,0.0296 z"
       style="font-weight:600;font-size:2.11667px;line-height:1.25;font-family:'IBM Plex Mono';-inkscape-font-specification:'IBM Plex Mono, Semi-Bold';letter-spacing:0px;word-spacing:0px;fill:#4d4d4d;stroke-width:0.264583"
       id="path54997" />
    <path
       d="m 207.10757,156.98209 q -0.13123,0 -0.23283,-0.0402 -0.1016,-0.0402 -0.17145,-0.1143 -0.0677,-0.0741 -0.10372,-0.1778 -0.036,-0.10583 -0.036,-0.23707 0,-0.13335 0.036,-0.23918 0.0381,-0.10583 0.10583,-0.17992 0.0677,-0.0741 0.16299,-0.1143 0.0974,-0.0402 0.21801,-0.0402 0.11854,0 0.21379,0.0402 0.0952,0.0381 0.16086,0.11007 0.0677,0.072 0.10372,0.17357 0.036,0.1016 0.036,0.22436 v 0.0889 h -0.76623 v 0.0275 q 0,0.11854 0.0741,0.19262 0.0741,0.072 0.20744,0.072 0.1016,0 0.17356,-0.0402 0.0741,-0.0423 0.12277,-0.11007 l 0.15452,0.15452 q -0.0593,0.0868 -0.17357,0.14817 -0.11218,0.0614 -0.28575,0.0614 z m -0.019,-0.94403 q -0.1143,0 -0.18415,0.072 -0.0699,0.072 -0.0699,0.1905 v 0.0148 h 0.4953 v -0.0191 q 0,-0.11854 -0.0656,-0.18839 -0.0635,-0.0699 -0.17568,-0.0699 z"
       style="font-weight:600;font-size:2.11667px;line-height:1.25;font-family:'IBM Plex Mono';-inkscape-font-specification:'IBM Plex Mono, Semi-Bold';letter-spacing:0px;word-spacing:0px;fill:#4d4d4d;stroke-width:0.264583"
       id="path54999" />
    <path
       d="m 207.86957,156.74291 h 0.34713 v -1.13877 h -0.34713 v -0.21379 h 0.61807 v 1.35256 h 0.34925 v 0.21378 h -0.96732 z"
       style="font-weight:600;font-size:2.11667px;line-height:1.25;font-family:'IBM Plex Mono';-inkscape-font-specification:'IBM Plex Mono, Semi-Bold';letter-spacing:0px;word-spacing:0px;fill:#4d4d4d;stroke-width:0.264583"
       id="path55001" />
    <path
       d="m 209.13957,156.74291 h 0.34713 v -1.13877 h -0.34713 v -0.21379 h 0.61807 v 1.35256 h 0.34925 v 0.21378 h -0.96732 z"
       style="font-weight:600;font-size:2.11667px;line-height:1.25;font-family:'IBM Plex Mono';-inkscape-font-specification:'IBM Plex Mono, Semi-Bold';letter-spacing:0px;word-spacing:0px;fill:#4d4d4d;stroke-width:0.264583"
       id="path55003" />
    <path
       d="m 211.09748,156.76407 h -0.0106 q -0.036,0.0889 -0.11218,0.15452 -0.0741,0.0635 -0.20744,0.0635 -0.16086,0 -0.26246,-0.10583 -0.0995,-0.10795 -0.0995,-0.30692 v -0.70485 h 0.27094 v 0.66675 q 0,0.23707 0.20531,0.23707 0.0402,0 0.0783,-0.0106 0.0402,-0.0106 0.0699,-0.0317 0.0318,-0.0233 0.0487,-0.055 0.019,-0.0317 0.019,-0.0762 v -0.73026 h 0.27094 v 1.09221 h -0.27094 z"
       style="font-weight:600;font-size:2.11667px;line-height:1.25;font-family:'IBM Plex Mono';-inkscape-font-specification:'IBM Plex Mono, Semi-Bold';letter-spacing:0px;word-spacing:0px;fill:#4d4d4d;stroke-width:0.264583"
       id="path55005" />
    <path
       d="m 211.67956,156.74291 h 0.34714 v -1.13877 h -0.34714 v -0.21379 h 0.61807 v 1.35256 h 0.34925 v 0.21378 h -0.96732 z"
       style="font-weight:600;font-size:2.11667px;line-height:1.25;font-family:'IBM Plex Mono';-inkscape-font-specification:'IBM Plex Mono, Semi-Bold';letter-spacing:0px;word-spacing:0px;fill:#4d4d4d;stroke-width:0.264583"
       id="path55007" />
    <path
       d="m 213.83433,156.95669 q -0.0995,0 -0.15452,-0.0487 -0.0529,-0.0508 -0.0635,-0.1397 h -0.0106 q -0.0296,0.1016 -0.11642,0.15875 -0.0868,0.055 -0.21378,0.055 -0.1651,0 -0.26247,-0.0868 -0.0974,-0.0868 -0.0974,-0.2413 0,-0.3302 0.48471,-0.3302 h 0.19262 v -0.072 q 0,-0.10372 -0.0508,-0.15663 -0.0508,-0.0529 -0.1651,-0.0529 -0.10372,0 -0.16722,0.0402 -0.0635,0.0402 -0.10795,0.10371 l -0.15451,-0.13123 q 0.0508,-0.091 0.16298,-0.1524 0.1143,-0.0635 0.29422,-0.0635 0.2159,0 0.33655,0.1016 0.12276,0.0995 0.12276,0.29845 v 0.51435 h 0.12912 v 0.2032 z m -0.46778,-0.16087 q 0.0974,0 0.16086,-0.0445 0.0656,-0.0466 0.0656,-0.12488 v -0.14605 h -0.18627 q -0.22225,0 -0.22225,0.1397 v 0.0423 q 0,0.0656 0.0487,0.0995 0.0487,0.0339 0.13335,0.0339 z"
       style="font-weight:600;font-size:2.11667px;line-height:1.25;font-family:'IBM Plex Mono';-inkscape-font-specification:'IBM Plex Mono, Semi-Bold';letter-spacing:0px;word-spacing:0px;fill:#4d4d4d;stroke-width:0.264583"
       id="path55009" />
    <path
       d="m 214.22591,156.74291 h 0.27094 v -0.66464 h -0.27094 v -0.21378 h 0.54187 v 0.29845 h 0.0169 q 0.0148,-0.0572 0.0402,-0.11007 0.0275,-0.055 0.0677,-0.0952 0.0423,-0.0423 0.1016,-0.0677 0.0593,-0.0254 0.14182,-0.0254 h 0.11853 v 0.254 h -0.22436 q -0.12277,0 -0.19262,0.072 -0.0699,0.072 -0.0699,0.18415 v 0.3683 h 0.37888 v 0.21379 h -0.92075 z"
       style="font-weight:600;font-size:2.11667px;line-height:1.25;font-family:'IBM Plex Mono';-inkscape-font-specification:'IBM Plex Mono, Semi-Bold';letter-spacing:0px;word-spacing:0px;fill:#4d4d4d;stroke-width:0.264583"
       id="path55011" />
    <path
       d="m 216.28754,156.95669 -0.10371,-0.37465 h -0.43815 l -0.1016,0.37465 h -0.2794 l 0.41486,-1.47744 h 0.38524 l 0.41698,1.47744 z m -0.31326,-1.20439 h -0.0169 l -0.16298,0.60326 h 0.3429 z"
       style="font-weight:600;font-size:2.11667px;line-height:1.25;font-family:'IBM Plex Mono';-inkscape-font-specification:'IBM Plex Mono, Semi-Bold';letter-spacing:0px;word-spacing:0px;fill:#4d4d4d;stroke-width:0.264583"
       id="path55013" />
    <path
       d="m 217.44748,156.76407 h -0.0106 q -0.036,0.0889 -0.11218,0.15452 -0.0741,0.0635 -0.20743,0.0635 -0.16087,0 -0.26247,-0.10583 -0.0995,-0.10795 -0.0995,-0.30692 v -0.70485 h 0.27093 v 0.66675 q 0,0.23707 0.20532,0.23707 0.0402,0 0.0783,-0.0106 0.0402,-0.0106 0.0699,-0.0317 0.0317,-0.0233 0.0487,-0.055 0.019,-0.0317 0.019,-0.0762 v -0.73026 h 0.27093 v 1.09221 h -0.27093 z"
       style="font-weight:600;font-size:2.11667px;line-height:1.25;font-family:'IBM Plex Mono';-inkscape-font-specification:'IBM Plex Mono, Semi-Bold';letter-spacing:0px;word-spacing:0px;fill:#4d4d4d;stroke-width:0.264583"
       id="path55015" />
    <path
       d="m 218.58624,156.95669 q -0.15663,0 -0.23072,-0.0825 -0.0741,-0.0825 -0.0741,-0.21378 v -0.58209 h -0.3175 v -0.21378 h 0.2159 q 0.0656,0 0.0931,-0.0254 0.0275,-0.0275 0.0275,-0.0953 v -0.26459 h 0.25188 v 0.38524 h 0.44451 v 0.21378 h -0.44451 v 0.66464 h 0.44451 v 0.21378 z"
       style="font-weight:600;font-size:2.11667px;line-height:1.25;font-family:'IBM Plex Mono';-inkscape-font-specification:'IBM Plex Mono, Semi-Bold';letter-spacing:0px;word-spacing:0px;fill:#4d4d4d;stroke-width:0.264583"
       id="path55017" />
    <path
       d="m 219.78216,156.98209 q -0.12488,0 -0.22437,-0.0402 -0.0974,-0.0402 -0.16722,-0.1143 -0.0677,-0.0741 -0.10583,-0.17992 -0.036,-0.10583 -0.036,-0.23706 0,-0.13124 0.036,-0.23707 0.0381,-0.10583 0.10583,-0.17992 0.0699,-0.0741 0.16722,-0.1143 0.0995,-0.0402 0.22437,-0.0402 0.12277,0 0.22225,0.0402 0.0995,0.0402 0.16722,0.1143 0.0699,0.0741 0.10583,0.17992 0.0381,0.10583 0.0381,0.23707 0,0.13123 -0.0381,0.23706 -0.036,0.10584 -0.10583,0.17992 -0.0677,0.0741 -0.16722,0.1143 -0.0995,0.0402 -0.22225,0.0402 z m 0,-0.20743 q 0.11642,0 0.18415,-0.0699 0.0677,-0.072 0.0677,-0.20955 v -0.16934 q 0,-0.13758 -0.0677,-0.20743 -0.0677,-0.072 -0.18415,-0.072 -0.11642,0 -0.18415,0.072 -0.0677,0.0699 -0.0677,0.20743 v 0.16934 q 0,0.13758 0.0677,0.20955 0.0677,0.0699 0.18415,0.0699 z"
       style="font-weight:600;font-size:2.11667px;line-height:1.25;font-family:'IBM Plex Mono';-inkscape-font-specification:'IBM Plex Mono, Semi-Bold';letter-spacing:0px;word-spacing:0px;fill:#4d4d4d;stroke-width:0.264583"
       id="path55019" />
    <path
       d="m 70.270034,171.85483 q -0.16881,0 -0.30506,-0.0603 -0.13505,-0.0603 -0.23151,-0.18449 -0.19051,-0.24718 -0.19051,-0.68729 0,-0.29421 0.0868,-0.50281 0.0868,-0.20981 0.2496,-0.32074 0.16399,-0.11214 0.39067,-0.11214 0.11696,0 0.20981,0.0229 0.094,0.0229 0.18931,0.076 v 0.24959 q -0.088,-0.0736 -0.19172,-0.11213 -0.10491,-0.0386 -0.2086,-0.0386 -0.23513,0 -0.3533,0.18328 -0.11816,0.18328 -0.11816,0.55345 0,0.73553 0.47387,0.73553 0.1037,0 0.2086,-0.0386 0.10128,-0.0386 0.18931,-0.11214 v 0.24959 q -0.0953,0.0494 -0.19052,0.0748 -0.0965,0.0241 -0.2086,0.0241 z"
       style="font-size:2.46944px;line-height:1.25;font-family:Hack;-inkscape-font-specification:Hack;letter-spacing:0px;word-spacing:0px;fill-opacity:1;stroke-width:0.264583"
       id="path15409" />
    <path
       d="m 71.121314,170.01963 h 0.24478 v 1.59525 h 0.86937 v 0.20498 h -1.11415 z"
       style="font-size:2.46944px;line-height:1.25;font-family:Hack;-inkscape-font-specification:Hack;letter-spacing:0px;word-spacing:0px;fill-opacity:1;stroke-width:0.264583"
       id="path15411" />
    <path
       d="m 73.091564,171.85483 q -0.30506,0 -0.45337,-0.23031 -0.14831,-0.22909 -0.14831,-0.70297 0,-0.47387 0.14951,-0.70297 0.15073,-0.23151 0.45217,-0.23151 0.14831,0 0.26286,0.0555 0.11455,0.0555 0.19172,0.17604 0.14831,0.23151 0.14831,0.70297 0,0.47026 -0.14831,0.70177 -0.0772,0.12058 -0.19172,0.17604 -0.11455,0.0555 -0.26286,0.0555 z m 0,-0.19775 q 0.18569,0 0.26768,-0.17001 0.0808,-0.1652 0.0808,-0.56552 0,-0.40032 -0.0808,-0.56671 -0.082,-0.17002 -0.26768,-0.17002 -0.18328,0 -0.26527,0.17002 -0.082,0.17363 -0.082,0.56671 0,0.39188 0.082,0.56552 0.082,0.17001 0.26527,0.17001 z"
       style="font-size:2.46944px;line-height:1.25;font-family:Hack;-inkscape-font-specification:Hack;letter-spacing:0px;word-spacing:0px;fill-opacity:1;stroke-width:0.264583"
       id="path15413" />
    <path
       d="m 74.730224,171.85483 q -0.16881,0 -0.30506,-0.0603 -0.13505,-0.0603 -0.23151,-0.18449 -0.19052,-0.24718 -0.19052,-0.68729 0,-0.29421 0.0868,-0.50281 0.0868,-0.20981 0.24959,-0.32074 0.16399,-0.11214 0.39068,-0.11214 0.11696,0 0.2098,0.0229 0.0941,0.0229 0.18931,0.076 v 0.24959 q -0.088,-0.0736 -0.19172,-0.11213 -0.1049,-0.0386 -0.2086,-0.0386 -0.23513,0 -0.35329,0.18328 -0.11817,0.18328 -0.11817,0.55345 0,0.73553 0.47387,0.73553 0.1037,0 0.2086,-0.0386 0.10129,-0.0386 0.18931,-0.11214 v 0.24959 q -0.0953,0.0494 -0.19051,0.0748 -0.0965,0.0241 -0.2086,0.0241 z"
       style="font-size:2.46944px;line-height:1.25;font-family:Hack;-inkscape-font-specification:Hack;letter-spacing:0px;word-spacing:0px;fill-opacity:1;stroke-width:0.264583"
       id="path15415" />
    <path
       d="m 75.487454,170.01963 h 0.24477 v 0.80064 l 0.76085,-0.80064 h 0.28577 l -0.70056,0.73553 0.72106,1.0647 h -0.29421 l -0.58722,-0.90192 -0.18569,0.19774 v 0.70418 h -0.24477 z"
       style="font-size:2.46944px;line-height:1.25;font-family:Hack;-inkscape-font-specification:Hack;letter-spacing:0px;word-spacing:0px;fill-opacity:1;stroke-width:0.264583"
       id="path15417" />
    <path
       d="m 80.38327,170.01963 h 0.5016 q 0.29783,0 0.45458,0.13384 0.15796,0.13505 0.15796,0.38223 0,0.0953 -0.0241,0.16761 -0.0241,0.0711 -0.0723,0.12781 -0.0953,0.11334 -0.27372,0.13866 0.0977,0.0241 0.16037,0.0904 0.0338,0.035 0.0724,0.0989 0.0398,0.0627 0.0928,0.16881 l 0.24478,0.49196 h -0.26166 l -0.21463,-0.45458 q -0.047,-0.10008 -0.0892,-0.16157 -0.041,-0.0615 -0.0772,-0.0892 -0.0374,-0.0289 -0.088,-0.0422 -0.0494,-0.0133 -0.1061,-0.0133 h -0.23272 v 0.76085 h -0.24477 z m 0.51125,0.83922 q 0.17484,0 0.26045,-0.0784 0.0856,-0.0784 0.0856,-0.23754 0,-0.15796 -0.0904,-0.24116 -0.0434,-0.0386 -0.10972,-0.0603 -0.0651,-0.0217 -0.15555,-0.0217 h -0.25683 v 0.63906 z"
       style="font-size:2.46944px;line-height:1.25;font-family:Hack;-inkscape-font-specification:Hack;letter-spacing:0px;word-spacing:0px;fill-opacity:1;stroke-width:0.264583"
       id="path15419" />
    <path
       d="m 81.93511,170.01963 h 1.06832 v 0.20498 h -0.82475 v 0.53296 h 0.78858 v 0.20498 h -0.78858 v 0.65233 h 0.84766 v 0.20498 h -1.09123 z"
       style="font-size:2.46944px;line-height:1.25;font-family:Hack;-inkscape-font-specification:Hack;letter-spacing:0px;word-spacing:0px;fill-opacity:1;stroke-width:0.264583"
       id="path15421" />
    <path
       d="m 83.88847,171.85483 q -0.12902,0 -0.25683,-0.0277 -0.12781,-0.0277 -0.25683,-0.0808 v -0.25924 q 0.13625,0.0868 0.26286,0.12901 0.12178,0.041 0.24718,0.041 0.18449,0 0.28819,-0.082 0.10249,-0.082 0.10249,-0.23754 0,-0.12902 -0.0699,-0.19896 -0.0386,-0.0398 -0.0977,-0.0651 -0.0579,-0.0253 -0.14831,-0.0458 l -0.13022,-0.0301 q -0.12178,-0.0277 -0.21342,-0.0687 -0.0904,-0.041 -0.15073,-0.10249 -0.11334,-0.11335 -0.11334,-0.30748 0,-0.24477 0.16278,-0.38826 0.0772,-0.0687 0.18448,-0.10611 0.10852,-0.0374 0.24598,-0.0374 0.10491,0 0.21825,0.0229 0.0555,0.0121 0.11576,0.0301 0.0615,0.0169 0.1254,0.041 v 0.24719 q -0.0579,-0.0374 -0.11335,-0.0627 -0.0543,-0.0265 -0.10852,-0.0446 -0.11213,-0.0362 -0.22427,-0.0362 -0.17243,0 -0.27371,0.0808 -0.10008,0.0808 -0.10008,0.22186 0,0.0615 0.0169,0.1037 0.0181,0.041 0.0494,0.0711 0.0687,0.0651 0.24478,0.10611 l 0.12781,0.0289 q 0.2496,0.0567 0.36776,0.18569 0.11696,0.12419 0.11696,0.34244 0,0.13746 -0.0422,0.23513 -0.0422,0.0965 -0.11575,0.15916 -0.15796,0.13505 -0.46182,0.13505 z"
       style="font-size:2.46944px;line-height:1.25;font-family:Hack;-inkscape-font-specification:Hack;letter-spacing:0px;word-spacing:0px;fill-opacity:1;stroke-width:0.264583"
       id="path15423" />
    <path
       d="m 84.90856,170.01963 h 1.06833 v 0.20498 h -0.82476 v 0.53296 h 0.78858 v 0.20498 h -0.78858 v 0.65233 h 0.84767 v 0.20498 h -1.09124 z"
       style="font-size:2.46944px;line-height:1.25;font-family:Hack;-inkscape-font-specification:Hack;letter-spacing:0px;word-spacing:0px;fill-opacity:1;stroke-width:0.264583"
       id="path15425" />
    <path
       d="m 86.77994,170.22461 h -0.56551 v -0.20498 h 1.37338 v 0.20498 h -0.5631 v 1.59525 h -0.24477 z"
       style="font-size:2.46944px;line-height:1.25;font-family:Hack;-inkscape-font-specification:Hack;letter-spacing:0px;word-spacing:0px;fill-opacity:1;stroke-width:0.264583"
       id="path15427" />
    <path
       d="m 90.892954,170.01963 h 1.05988 v 0.20498 h -0.8151 v 0.55466 h 0.73914 v 0.20498 h -0.73914 v 0.83561 h -0.24478 z"
       style="font-size:2.46944px;line-height:1.25;font-family:Hack;-inkscape-font-specification:Hack;letter-spacing:0px;word-spacing:0px;fill-opacity:1;stroke-width:0.264583"
       id="path15429" />
    <path
       d="m 92.357984,170.01963 h 0.24477 v 1.59525 h 0.86937 v 0.20498 h -1.11414 z"
       style="font-size:2.46944px;line-height:1.25;font-family:Hack;-inkscape-font-specification:Hack;letter-spacing:0px;word-spacing:0px;fill-opacity:1;stroke-width:0.264583"
       id="path15431" />
    <path
       d="m 93.827824,171.61488 h 0.37741 v -1.39027 h -0.37741 v -0.20498 h 0.99959 v 0.20498 h -0.3774 v 1.39027 h 0.3774 v 0.20498 h -0.99959 z"
       style="font-size:2.46944px;line-height:1.25;font-family:Hack;-inkscape-font-specification:Hack;letter-spacing:0px;word-spacing:0px;fill-opacity:1;stroke-width:0.264583"
       id="path15433" />
    <path
       d="m 95.279584,170.01963 h 0.52572 q 0.29904,0 0.457,0.13625 0.0808,0.0711 0.11816,0.17364 0.0374,0.10128 0.0374,0.22909 0,0.26528 -0.15434,0.40153 -0.15313,0.13625 -0.4582,0.13625 h -0.28215 v 0.72347 h -0.24357 z m 0.52572,0.8766 q 0.0904,0 0.15555,-0.0241 0.0651,-0.0241 0.10852,-0.0651 0.0941,-0.0892 0.0941,-0.24959 0,-0.16037 -0.0941,-0.2496 -0.0916,-0.088 -0.26407,-0.088 h -0.28215 v 0.67644 z"
       style="font-size:2.46944px;line-height:1.25;font-family:Hack;-inkscape-font-specification:Hack;letter-spacing:0px;word-spacing:0px;fill-opacity:1;stroke-width:0.264583"
       id="path15435" />
    <path
       d="m 101.39295,170.01997 h 1.05988 v 0.20498 h -0.8151 v 0.55466 h 0.73914 v 0.20498 h -0.73914 v 0.83561 h -0.24478 z"
       style="font-size:2.46944px;line-height:1.25;font-family:Hack;-inkscape-font-specification:Hack;letter-spacing:0px;word-spacing:0px;fill-opacity:1;stroke-width:0.264583"
       id="path15429-3" />
    <path
       d="m 102.85798,170.01997 h 0.24477 v 1.59525 h 0.86937 v 0.20498 h -1.11414 z"
       style="font-size:2.46944px;line-height:1.25;font-family:Hack;-inkscape-font-specification:Hack;letter-spacing:0px;word-spacing:0px;fill-opacity:1;stroke-width:0.264583"
       id="path15431-6" />
    <path
       d="m 104.32782,171.61522 h 0.37741 v -1.39027 h -0.37741 v -0.20498 h 0.99959 v 0.20498 h -0.3774 v 1.39027 h 0.3774 v 0.20498 h -0.99959 z"
       style="font-size:2.46944px;line-height:1.25;font-family:Hack;-inkscape-font-specification:Hack;letter-spacing:0px;word-spacing:0px;fill-opacity:1;stroke-width:0.264583"
       id="path15433-7" />
    <path
       d="m 105.77958,170.01997 h 0.52572 q 0.29904,0 0.457,0.13625 0.0808,0.0711 0.11816,0.17364 0.0374,0.10128 0.0374,0.22909 0,0.26528 -0.15434,0.40153 -0.15313,0.13625 -0.4582,0.13625 h -0.28215 v 0.72347 h -0.24357 z m 0.52572,0.8766 q 0.0904,0 0.15555,-0.0241 0.0651,-0.0241 0.10852,-0.0651 0.0941,-0.0892 0.0941,-0.24959 0,-0.16037 -0.0941,-0.2496 -0.0916,-0.088 -0.26407,-0.088 h -0.28215 v 0.67644 z"
       style="font-size:2.46944px;line-height:1.25;font-family:Hack;-inkscape-font-specification:Hack;letter-spacing:0px;word-spacing:0px;fill-opacity:1;stroke-width:0.264583"
       id="path15435-5" />
    <path
       d="m 112.99295,171.61488 h 0.37741 v -1.39027 h -0.37741 v -0.20498 h 0.99959 v 0.20498 h -0.37741 v 1.39027 h 0.37741 v 0.20498 h -0.99959 z"
       style="font-size:2.46944px;line-height:1.25;font-family:Hack;-inkscape-font-specification:Hack;letter-spacing:0px;word-spacing:0px;fill-opacity:1;stroke-width:0.264583"
       id="path15449" />
    <path
       d="m 114.40492,170.01963 h 0.30868 l 0.60771,1.4819 v -1.4819 h 0.23513 v 1.80023 h -0.30868 l -0.60771,-1.4819 v 1.4819 h -0.23513 z"
       style="font-size:2.46944px;line-height:1.25;font-family:Hack;-inkscape-font-specification:Hack;letter-spacing:0px;word-spacing:0px;fill-opacity:1;stroke-width:0.264583"
       id="path15451" />
    <path
       d="m 115.96641,171.61488 h 0.37741 v -1.39027 h -0.37741 v -0.20498 h 0.99959 v 0.20498 h -0.37741 v 1.39027 h 0.37741 v 0.20498 h -0.99959 z"
       style="font-size:2.46944px;line-height:1.25;font-family:Hack;-inkscape-font-specification:Hack;letter-spacing:0px;word-spacing:0px;fill-opacity:1;stroke-width:0.264583"
       id="path15453" />
    <path
       d="m 117.83296,170.22461 h -0.56552 v -0.20498 h 1.37339 v 0.20498 h -0.5631 v 1.59525 h -0.24477 z"
       style="font-size:2.46944px;line-height:1.25;font-family:Hack;-inkscape-font-specification:Hack;letter-spacing:0px;word-spacing:0px;fill-opacity:1;stroke-width:0.264583"
       id="path15455" />
    <path
       d="m 123.29295,170.01963 h 0.5016 q 0.29783,0 0.45458,0.13384 0.15796,0.13505 0.15796,0.38223 0,0.0953 -0.0241,0.16761 -0.0241,0.0711 -0.0723,0.12781 -0.0953,0.11334 -0.27371,0.13866 0.0977,0.0241 0.16036,0.0904 0.0338,0.035 0.0724,0.0989 0.0398,0.0627 0.0928,0.16881 l 0.24477,0.49196 h -0.26165 l -0.21463,-0.45458 q -0.047,-0.10008 -0.0892,-0.16157 -0.041,-0.0615 -0.0772,-0.0892 -0.0374,-0.0289 -0.088,-0.0422 -0.0494,-0.0133 -0.10611,-0.0133 h -0.23272 v 0.76085 h -0.24477 z m 0.51125,0.83922 q 0.17484,0 0.26045,-0.0784 0.0856,-0.0784 0.0856,-0.23754 0,-0.15796 -0.0904,-0.24116 -0.0434,-0.0386 -0.10973,-0.0603 -0.0651,-0.0217 -0.15555,-0.0217 h -0.25683 v 0.63906 z"
       style="font-size:2.46944px;line-height:1.25;font-family:Hack;-inkscape-font-specification:Hack;letter-spacing:0px;word-spacing:0px;fill-opacity:1;stroke-width:0.264583"
       id="path15457" />
    <path
       d="m 125.35001,171.85483 q -0.1254,0 -0.22789,-0.035 -0.047,-0.0169 -0.0977,-0.0434 -0.0494,-0.0277 -0.088,-0.0627 -0.0374,-0.0338 -0.0663,-0.0796 -0.0289,-0.0458 -0.0494,-0.11455 -0.0193,-0.0603 -0.0277,-0.15072 -0.008,-0.0916 -0.008,-0.23995 v -1.10932 h 0.24477 v 1.22025 q 0,0.13143 0.007,0.1869 0.007,0.0555 0.0253,0.0868 0.0386,0.0711 0.11214,0.10732 0.0723,0.0362 0.17604,0.0362 0.1049,0 0.17725,-0.0362 0.0748,-0.0386 0.11214,-0.10732 0.0193,-0.035 0.0253,-0.0856 0.007,-0.0567 0.007,-0.18569 v -1.22266 h 0.24356 v 1.10932 q 0,0.15916 -0.01,0.24839 -0.01,0.088 -0.0241,0.14228 -0.0326,0.11696 -0.11817,0.19413 -0.0398,0.0362 -0.0892,0.0627 -0.0482,0.0265 -0.0953,0.0434 -0.0446,0.0157 -0.10129,0.0253 -0.0567,0.01 -0.12781,0.01 z"
       style="font-size:2.46944px;line-height:1.25;font-family:Hack;-inkscape-font-specification:Hack;letter-spacing:0px;word-spacing:0px;fill-opacity:1;stroke-width:0.264583"
       id="path15459" />
    <path
       d="m 126.35322,170.01963 h 0.24478 v 1.59525 h 0.86936 v 0.20498 h -1.11414 z"
       style="font-size:2.46944px;line-height:1.25;font-family:Hack;-inkscape-font-specification:Hack;letter-spacing:0px;word-spacing:0px;fill-opacity:1;stroke-width:0.264583"
       id="path15461" />
    <path
       d="m 127.81824,170.01963 h 1.06833 v 0.20498 h -0.82476 v 0.53296 h 0.78858 v 0.20498 h -0.78858 v 0.65233 h 0.84767 v 0.20498 h -1.09124 z"
       style="font-size:2.46944px;line-height:1.25;font-family:Hack;-inkscape-font-specification:Hack;letter-spacing:0px;word-spacing:0px;fill-opacity:1;stroke-width:0.264583"
       id="path15463" />
    <path
       d="m 134.34295,171.61488 h 0.37741 v -1.39027 h -0.37741 v -0.20498 h 0.9996 v 0.20498 h -0.37741 v 1.39027 h 0.37741 v 0.20498 h -0.9996 z"
       style="font-size:2.46944px;line-height:1.25;font-family:Hack;-inkscape-font-specification:Hack;letter-spacing:0px;word-spacing:0px;fill-opacity:1;stroke-width:0.264583"
       id="path15465" />
    <path
       d="m 136.2095,170.22461 h -0.56551 v -0.20498 h 1.37338 v 0.20498 h -0.5631 v 1.59525 h -0.24477 z"
       style="font-size:2.46944px;line-height:1.25;font-family:Hack;-inkscape-font-specification:Hack;letter-spacing:0px;word-spacing:0px;fill-opacity:1;stroke-width:0.264583"
       id="path15467" />
    <path
       d="m 137.31159,170.01963 h 1.06832 v 0.20498 h -0.82475 v 0.53296 h 0.78858 v 0.20498 h -0.78858 v 0.65233 h 0.84766 v 0.20498 h -1.09123 z"
       style="font-size:2.46944px;line-height:1.25;font-family:Hack;-inkscape-font-specification:Hack;letter-spacing:0px;word-spacing:0px;fill-opacity:1;stroke-width:0.264583"
       id="path15469" />
    <path
       d="m 138.7332,170.01963 h 0.50161 q 0.29782,0 0.45457,0.13384 0.15796,0.13505 0.15796,0.38223 0,0.0953 -0.0241,0.16761 -0.0241,0.0711 -0.0723,0.12781 -0.0953,0.11334 -0.27371,0.13866 0.0977,0.0241 0.16037,0.0904 0.0338,0.035 0.0723,0.0989 0.0398,0.0627 0.0928,0.16881 l 0.24477,0.49196 h -0.26165 l -0.21463,-0.45458 q -0.047,-0.10008 -0.0892,-0.16157 -0.041,-0.0615 -0.0772,-0.0892 -0.0374,-0.0289 -0.088,-0.0422 -0.0494,-0.0133 -0.10611,-0.0133 h -0.23272 v 0.76085 h -0.24477 z m 0.51125,0.83922 q 0.17484,0 0.26045,-0.0784 0.0856,-0.0784 0.0856,-0.23754 0,-0.15796 -0.0904,-0.24116 -0.0434,-0.0386 -0.10973,-0.0603 -0.0651,-0.0217 -0.15554,-0.0217 h -0.25684 v 0.63906 z"
       style="font-size:2.46944px;line-height:1.25;font-family:Hack;-inkscape-font-specification:Hack;letter-spacing:0px;word-spacing:0px;fill-opacity:1;stroke-width:0.264583"
       id="path15471" />
    <path
       d="m 144.76693,170.01963 h 0.24477 v 1.59525 h 0.86937 v 0.20498 h -1.11414 z"
       style="font-size:2.46944px;line-height:1.25;font-family:Hack;-inkscape-font-specification:Hack;letter-spacing:0px;word-spacing:0px;fill-opacity:1;stroke-width:0.264583"
       id="path15473" />
    <path
       d="m 146.23195,170.01963 h 1.06832 v 0.20498 h -0.82475 v 0.53296 h 0.78858 v 0.20498 h -0.78858 v 0.65233 h 0.84766 v 0.20498 h -1.09123 z"
       style="font-size:2.46944px;line-height:1.25;font-family:Hack;-inkscape-font-specification:Hack;letter-spacing:0px;word-spacing:0px;fill-opacity:1;stroke-width:0.264583"
       id="path15475" />
    <path
       d="m 147.76209,170.01963 h 1.05988 v 0.20498 h -0.8151 v 0.55466 h 0.73914 v 0.20498 h -0.73914 v 0.83561 h -0.24478 z"
       style="font-size:2.46944px;line-height:1.25;font-family:Hack;-inkscape-font-specification:Hack;letter-spacing:0px;word-spacing:0px;fill-opacity:1;stroke-width:0.264583"
       id="path15477" />
    <path
       d="m 149.59005,170.22461 h -0.56551 v -0.20498 h 1.37339 v 0.20498 h -0.5631 v 1.59525 h -0.24478 z"
       style="font-size:2.46944px;line-height:1.25;font-family:Hack;-inkscape-font-specification:Hack;letter-spacing:0px;word-spacing:0px;fill-opacity:1;stroke-width:0.264583"
       id="path15479" />
    <path
       d="m 156.39375,170.22461 h -0.56552 v -0.20498 h 1.37339 v 0.20498 h -0.5631 v 1.59525 h -0.24477 z"
       style="font-size:2.46944px;line-height:1.25;font-family:Hack;-inkscape-font-specification:Hack;letter-spacing:0px;word-spacing:0px;fill-opacity:1;stroke-width:0.264583"
       id="path15481" />
    <path
       d="m 158.00105,171.85483 q -0.30506,0 -0.45338,-0.23031 -0.14831,-0.22909 -0.14831,-0.70297 0,-0.47387 0.14952,-0.70297 0.15072,-0.23151 0.45217,-0.23151 0.14831,0 0.26286,0.0555 0.11455,0.0555 0.19172,0.17604 0.14831,0.23151 0.14831,0.70297 0,0.47026 -0.14831,0.70177 -0.0772,0.12058 -0.19172,0.17604 -0.11455,0.0555 -0.26286,0.0555 z m 0,-0.19775 q 0.18569,0 0.26768,-0.17001 0.0808,-0.1652 0.0808,-0.56552 0,-0.40032 -0.0808,-0.56671 -0.082,-0.17002 -0.26768,-0.17002 -0.18328,0 -0.26527,0.17002 -0.082,0.17363 -0.082,0.56671 0,0.39188 0.082,0.56552 0.082,0.17001 0.26527,0.17001 z"
       style="font-size:2.46944px;line-height:1.25;font-family:Hack;-inkscape-font-specification:Hack;letter-spacing:0px;word-spacing:0px;fill-opacity:1;stroke-width:0.264583"
       id="path15483" />
    <path
       d="m 158.95241,170.01963 h 0.52572 q 0.29904,0 0.457,0.13625 0.0808,0.0711 0.11816,0.17364 0.0374,0.10128 0.0374,0.22909 0,0.26528 -0.15434,0.40153 -0.15313,0.13625 -0.4582,0.13625 H 159.196 v 0.72347 h -0.24357 z m 0.52572,0.8766 q 0.0904,0 0.15555,-0.0241 0.0651,-0.0241 0.10852,-0.0651 0.0941,-0.0892 0.0941,-0.24959 0,-0.16037 -0.0941,-0.2496 -0.0916,-0.088 -0.26407,-0.088 h -0.28215 v 0.67644 z"
       style="font-size:2.46944px;line-height:1.25;font-family:Hack;-inkscape-font-specification:Hack;letter-spacing:0px;word-spacing:0px;fill-opacity:1;stroke-width:0.264583"
       id="path15485" />
    <path
       d="m 165.12032,170.01963 h 0.23754 l 0.17242,1.46141 0.20499,-0.96704 h 0.25442 l 0.20739,0.96945 0.17243,-1.46382 h 0.23754 l -0.26889,1.80023 h -0.23031 l -0.24477,-1.06953 -0.24357,1.06953 h -0.2303 z"
       style="font-size:2.46944px;line-height:1.25;font-family:Hack;-inkscape-font-specification:Hack;letter-spacing:0px;word-spacing:0px;fill-opacity:1;stroke-width:0.264583"
       id="path15487" />
    <path
       d="m 166.84941,171.61488 h 0.37741 v -1.39027 h -0.37741 v -0.20498 h 0.9996 v 0.20498 h -0.37741 v 1.39027 h 0.37741 v 0.20498 h -0.9996 z"
       style="font-size:2.46944px;line-height:1.25;font-family:Hack;-inkscape-font-specification:Hack;letter-spacing:0px;word-spacing:0px;fill-opacity:1;stroke-width:0.264583"
       id="path15489" />
    <path
       d="m 168.25897,170.01963 h 0.36535 q 0.41238,0 0.60771,0.21945 0.19534,0.21945 0.19534,0.68247 0,0.45941 -0.19534,0.67886 -0.19533,0.21945 -0.60771,0.21945 h -0.36535 z m 0.36053,1.60007 q 0.30868,0 0.42926,-0.15193 0.12178,-0.15072 0.12178,-0.54863 0,-0.39911 -0.12058,-0.54863 -0.0615,-0.0772 -0.17122,-0.11334 -0.10852,-0.0374 -0.25924,-0.0374 h -0.11576 v 1.39991 z"
       style="font-size:2.46944px;line-height:1.25;font-family:Hack;-inkscape-font-specification:Hack;letter-spacing:0px;word-spacing:0px;fill-opacity:1;stroke-width:0.264583"
       id="path15491" />
    <path
       d="m 170.20268,170.22461 h -0.56551 v -0.20498 h 1.37339 v 0.20498 h -0.5631 v 1.59525 h -0.24478 z"
       style="font-size:2.46944px;line-height:1.25;font-family:Hack;-inkscape-font-specification:Hack;letter-spacing:0px;word-spacing:0px;fill-opacity:1;stroke-width:0.264583"
       id="path15493" />
    <path
       d="m 171.23243,170.01963 h 0.24477 v 0.73794 h 0.6668 v -0.73794 h 0.24477 v 1.80023 H 172.144 v -0.85731 h -0.6668 v 0.85731 h -0.24477 z"
       style="font-size:2.46944px;line-height:1.25;font-family:Hack;-inkscape-font-specification:Hack;letter-spacing:0px;word-spacing:0px;fill-opacity:1;stroke-width:0.264583"
       id="path15495" />
    <path
       d="m 175.29295,170.01963 h 0.24477 v 0.73794 h 0.6668 v -0.73794 h 0.24477 v 1.80023 h -0.24477 v -0.85731 h -0.6668 v 0.85731 h -0.24477 z"
       style="font-size:2.46944px;line-height:1.25;font-family:Hack;-inkscape-font-specification:Hack;letter-spacing:0px;word-spacing:0px;fill-opacity:1;stroke-width:0.264583"
       id="path15497" />
    <path
       d="m 96.830236,170.01997 h 0.24477 v 0.73794 h 0.6668 v -0.73794 h 0.24477 v 1.80023 h -0.24477 v -0.85731 h -0.6668 v 0.85731 h -0.24477 z"
       style="font-size:2.46944px;line-height:1.25;font-family:Hack;-inkscape-font-specification:Hack;letter-spacing:0px;word-spacing:0px;fill-opacity:1;stroke-width:0.264583"
       id="path15497-3" />
    <path
       d="m 176.85202,170.01963 h 1.06833 v 0.20498 h -0.82476 v 0.53296 h 0.78858 v 0.20498 h -0.78858 v 0.65233 h 0.84767 v 0.20498 h -1.09124 z"
       style="font-size:2.46944px;line-height:1.25;font-family:Hack;-inkscape-font-specification:Hack;letter-spacing:0px;word-spacing:0px;fill-opacity:1;stroke-width:0.264583"
       id="path15499" />
    <path
       d="m 178.34357,171.61488 h 0.37741 v -1.39027 h -0.37741 v -0.20498 h 0.9996 v 0.20498 h -0.37741 v 1.39027 h 0.37741 v 0.20498 h -0.9996 z"
       style="font-size:2.46944px;line-height:1.25;font-family:Hack;-inkscape-font-specification:Hack;letter-spacing:0px;word-spacing:0px;fill-opacity:1;stroke-width:0.264583"
       id="path15501" />
    <path
       d="m 180.43199,171.85483 q -0.17243,0 -0.30627,-0.0627 -0.13263,-0.0627 -0.22548,-0.18328 -0.18931,-0.24719 -0.18931,-0.68609 0,-0.44614 0.19293,-0.69091 0.19292,-0.24478 0.53175,-0.24478 0.11816,0 0.22186,0.0314 0.10611,0.0338 0.20016,0.0977 v 0.2496 q -0.0519,-0.0494 -0.1037,-0.0832 -0.0506,-0.0338 -0.0965,-0.0543 -0.053,-0.0229 -0.10852,-0.0326 -0.0555,-0.0109 -0.10973,-0.0109 -0.23512,0 -0.35449,0.18328 -0.11938,0.18328 -0.11938,0.55587 0,0.19051 0.0289,0.32676 0.0289,0.13505 0.0868,0.22548 0.11455,0.18087 0.3545,0.18087 0.0796,0 0.14107,-0.0193 0.0289,-0.01 0.0567,-0.0229 0.0277,-0.0145 0.0531,-0.035 v -0.48352 h -0.26165 v -0.20016 h 0.49437 v 0.77532 q -0.0989,0.0916 -0.21946,0.13625 -0.12299,0.047 -0.26768,0.047 z"
       style="font-size:2.46944px;line-height:1.25;font-family:Hack;-inkscape-font-specification:Hack;letter-spacing:0px;word-spacing:0px;fill-opacity:1;stroke-width:0.264583"
       id="path15503" />
    <path
       d="m 181.23986,170.01963 h 0.24477 v 0.73794 h 0.6668 v -0.73794 h 0.24477 v 1.80023 h -0.24477 v -0.85731 h -0.6668 v 0.85731 h -0.24477 z"
       style="font-size:2.46944px;line-height:1.25;font-family:Hack;-inkscape-font-specification:Hack;letter-spacing:0px;word-spacing:0px;fill-opacity:1;stroke-width:0.264583"
       id="path15505" />
    <path
       d="m 183.18358,170.22461 h -0.56551 v -0.20498 h 1.37339 v 0.20498 h -0.5631 v 1.59525 h -0.24478 z"
       style="font-size:2.46944px;line-height:1.25;font-family:Hack;-inkscape-font-specification:Hack;letter-spacing:0px;word-spacing:0px;fill-opacity:1;stroke-width:0.264583"
       id="path15507" />
    <path
       d="m 193.12595,170.01963 h 1.06832 v 0.20498 h -0.82475 v 0.53296 h 0.78858 v 0.20498 h -0.78858 v 0.65233 h 0.84766 v 0.20498 h -1.09123 z"
       style="font-size:2.46944px;line-height:1.25;font-family:Hack;-inkscape-font-specification:Hack;letter-spacing:0px;word-spacing:0px;fill-opacity:1;stroke-width:0.264583"
       id="path15509" />
    <path
       d="m 195.1179,171.85483 q -0.30507,0 -0.45338,-0.23031 -0.14831,-0.22909 -0.14831,-0.70297 0,-0.47387 0.14952,-0.70297 0.15072,-0.23151 0.45217,-0.23151 0.14831,0 0.26286,0.0555 0.11455,0.0555 0.19172,0.17604 0.14831,0.23151 0.14831,0.70297 0,0.47026 -0.14831,0.70177 -0.0772,0.12058 -0.19172,0.17604 -0.11455,0.0555 -0.26286,0.0555 z m 0,-0.19775 q 0.18569,0 0.26768,-0.17001 0.0808,-0.1652 0.0808,-0.56552 0,-0.40032 -0.0808,-0.56671 -0.082,-0.17002 -0.26768,-0.17002 -0.18328,0 -0.26528,0.17002 -0.082,0.17363 -0.082,0.56671 0,0.39188 0.082,0.56552 0.082,0.17001 0.26528,0.17001 z"
       style="font-size:2.46944px;line-height:1.25;font-family:Hack;-inkscape-font-specification:Hack;letter-spacing:0px;word-spacing:0px;fill-opacity:1;stroke-width:0.264583"
       id="path15511" />
    <path
       d="m 196.56604,171.85483 q -0.12902,0 -0.25684,-0.0277 -0.12781,-0.0277 -0.25683,-0.0808 v -0.25924 q 0.13626,0.0868 0.26286,0.12901 0.12179,0.041 0.24719,0.041 0.18448,0 0.28818,-0.082 0.10249,-0.082 0.10249,-0.23754 0,-0.12902 -0.0699,-0.19896 -0.0386,-0.0398 -0.0977,-0.0651 -0.0579,-0.0253 -0.14831,-0.0458 l -0.13023,-0.0301 q -0.12178,-0.0277 -0.21342,-0.0687 -0.0904,-0.041 -0.15072,-0.10249 -0.11335,-0.11335 -0.11335,-0.30748 0,-0.24477 0.16278,-0.38826 0.0772,-0.0687 0.18449,-0.10611 0.10852,-0.0374 0.24598,-0.0374 0.1049,0 0.21824,0.0229 0.0555,0.0121 0.11576,0.0301 0.0615,0.0169 0.1254,0.041 v 0.24719 q -0.0579,-0.0374 -0.11334,-0.0627 -0.0543,-0.0265 -0.10852,-0.0446 -0.11214,-0.0362 -0.22428,-0.0362 -0.17243,0 -0.27371,0.0808 -0.10008,0.0808 -0.10008,0.22186 0,0.0615 0.0169,0.1037 0.0181,0.041 0.0494,0.0711 0.0687,0.0651 0.24477,0.10611 l 0.12781,0.0289 q 0.2496,0.0567 0.36777,0.18569 0.11696,0.12419 0.11696,0.34244 0,0.13746 -0.0422,0.23513 -0.0422,0.0965 -0.11576,0.15916 -0.15796,0.13505 -0.46181,0.13505 z"
       style="font-size:2.46944px;line-height:1.25;font-family:Hack;-inkscape-font-specification:Hack;letter-spacing:0px;word-spacing:0px;fill-opacity:1;stroke-width:0.264583"
       id="path15513" />
    <path
       d="m 201.17219,170.22461 h -0.56551 v -0.20498 h 1.37339 v 0.20498 h -0.5631 v 1.59525 h -0.24478 z"
       style="font-size:2.46944px;line-height:1.25;font-family:Hack;-inkscape-font-specification:Hack;letter-spacing:0px;word-spacing:0px;fill-opacity:1;stroke-width:0.264583"
       id="path15515" />
    <path
       d="m 202.20918,170.01963 h 0.5016 q 0.29783,0 0.45458,0.13384 0.15796,0.13505 0.15796,0.38223 0,0.0953 -0.0241,0.16761 -0.0241,0.0711 -0.0723,0.12781 -0.0953,0.11334 -0.27372,0.13866 0.0977,0.0241 0.16037,0.0904 0.0338,0.035 0.0724,0.0989 0.0398,0.0627 0.0928,0.16881 l 0.24478,0.49196 h -0.26166 l -0.21463,-0.45458 q -0.047,-0.10008 -0.0892,-0.16157 -0.041,-0.0615 -0.0772,-0.0892 -0.0374,-0.0289 -0.088,-0.0422 -0.0494,-0.0133 -0.1061,-0.0133 h -0.23272 v 0.76085 h -0.24477 z m 0.51125,0.83922 q 0.17484,0 0.26045,-0.0784 0.0856,-0.0784 0.0856,-0.23754 0,-0.15796 -0.0904,-0.24116 -0.0434,-0.0386 -0.10972,-0.0603 -0.0651,-0.0217 -0.15555,-0.0217 h -0.25683 v 0.63906 z"
       style="font-size:2.46944px;line-height:1.25;font-family:Hack;-inkscape-font-specification:Hack;letter-spacing:0px;word-spacing:0px;fill-opacity:1;stroke-width:0.264583"
       id="path15517" />
    <path
       d="m 203.76584,171.61488 h 0.37741 v -1.39027 h -0.37741 v -0.20498 h 0.99959 v 0.20498 h -0.37741 v 1.39027 h 0.37741 v 0.20498 h -0.99959 z"
       style="font-size:2.46944px;line-height:1.25;font-family:Hack;-inkscape-font-specification:Hack;letter-spacing:0px;word-spacing:0px;fill-opacity:1;stroke-width:0.264583"
       id="path15519" />
    <path
       d="m 205.85425,171.85483 q -0.17243,0 -0.30627,-0.0627 -0.13264,-0.0627 -0.22548,-0.18328 -0.18931,-0.24719 -0.18931,-0.68609 0,-0.44614 0.19292,-0.69091 0.19293,-0.24478 0.53175,-0.24478 0.11817,0 0.22187,0.0314 0.10611,0.0338 0.20016,0.0977 v 0.2496 q -0.0519,-0.0494 -0.1037,-0.0832 -0.0506,-0.0338 -0.0965,-0.0543 -0.0531,-0.0229 -0.10852,-0.0326 -0.0555,-0.0109 -0.10973,-0.0109 -0.23513,0 -0.3545,0.18328 -0.11937,0.18328 -0.11937,0.55587 0,0.19051 0.0289,0.32676 0.0289,0.13505 0.0868,0.22548 0.11455,0.18087 0.3545,0.18087 0.0796,0 0.14108,-0.0193 0.0289,-0.01 0.0567,-0.0229 0.0277,-0.0145 0.0531,-0.035 v -0.48352 h -0.26166 v -0.20016 h 0.49437 v 0.77532 q -0.0989,0.0916 -0.21945,0.13625 -0.12299,0.047 -0.26768,0.047 z"
       style="font-size:2.46944px;line-height:1.25;font-family:Hack;-inkscape-font-specification:Hack;letter-spacing:0px;word-spacing:0px;fill-opacity:1;stroke-width:0.264583"
       id="path15521" />
    <path
       d="m 207.34097,171.85483 q -0.17243,0 -0.30627,-0.0627 -0.13263,-0.0627 -0.22548,-0.18328 -0.18931,-0.24719 -0.18931,-0.68609 0,-0.44614 0.19293,-0.69091 0.19292,-0.24478 0.53175,-0.24478 0.11816,0 0.22186,0.0314 0.10611,0.0338 0.20016,0.0977 v 0.2496 q -0.0519,-0.0494 -0.1037,-0.0832 -0.0506,-0.0338 -0.0965,-0.0543 -0.053,-0.0229 -0.10852,-0.0326 -0.0555,-0.0109 -0.10972,-0.0109 -0.23513,0 -0.3545,0.18328 -0.11938,0.18328 -0.11938,0.55587 0,0.19051 0.0289,0.32676 0.0289,0.13505 0.0868,0.22548 0.11455,0.18087 0.3545,0.18087 0.0796,0 0.14107,-0.0193 0.0289,-0.01 0.0567,-0.0229 0.0277,-0.0145 0.053,-0.035 v -0.48352 h -0.26165 v -0.20016 h 0.49437 v 0.77532 q -0.0989,0.0916 -0.21946,0.13625 -0.12299,0.047 -0.26768,0.047 z"
       style="font-size:2.46944px;line-height:1.25;font-family:Hack;-inkscape-font-specification:Hack;letter-spacing:0px;word-spacing:0px;fill-opacity:1;stroke-width:0.264583"
       id="path15523" />
    <path
       d="m 208.2212,170.01963 h 1.06833 v 0.20498 h -0.82476 v 0.53296 h 0.78858 v 0.20498 h -0.78858 v 0.65233 h 0.84767 v 0.20498 h -1.09124 z"
       style="font-size:2.46944px;line-height:1.25;font-family:Hack;-inkscape-font-specification:Hack;letter-spacing:0px;word-spacing:0px;fill-opacity:1;stroke-width:0.264583"
       id="path15525" />
    <path
       d="m 209.64282,170.01963 h 0.5016 q 0.29783,0 0.45458,0.13384 0.15796,0.13505 0.15796,0.38223 0,0.0953 -0.0241,0.16761 -0.0241,0.0711 -0.0723,0.12781 -0.0953,0.11334 -0.27372,0.13866 0.0977,0.0241 0.16037,0.0904 0.0338,0.035 0.0723,0.0989 0.0398,0.0627 0.0928,0.16881 l 0.24478,0.49196 h -0.26166 l -0.21463,-0.45458 q -0.047,-0.10008 -0.0892,-0.16157 -0.041,-0.0615 -0.0772,-0.0892 -0.0374,-0.0289 -0.088,-0.0422 -0.0494,-0.0133 -0.1061,-0.0133 h -0.23272 v 0.76085 h -0.24477 z m 0.51125,0.83922 q 0.17484,0 0.26045,-0.0784 0.0856,-0.0784 0.0856,-0.23754 0,-0.15796 -0.0904,-0.24116 -0.0434,-0.0386 -0.10972,-0.0603 -0.0651,-0.0217 -0.15555,-0.0217 h -0.25683 v 0.63906 z"
       style="font-size:2.46944px;line-height:1.25;font-family:Hack;-inkscape-font-specification:Hack;letter-spacing:0px;word-spacing:0px;fill-opacity:1;stroke-width:0.264583"
       id="path15527" />
    <path
       d="m 214.04389,171.85483 q -0.17243,0 -0.30627,-0.0627 -0.13264,-0.0627 -0.22548,-0.18328 -0.18931,-0.24719 -0.18931,-0.68609 0,-0.44614 0.19292,-0.69091 0.19293,-0.24478 0.53175,-0.24478 0.11817,0 0.22187,0.0314 0.10611,0.0338 0.20016,0.0977 v 0.2496 q -0.0519,-0.0494 -0.1037,-0.0832 -0.0506,-0.0338 -0.0965,-0.0543 -0.0531,-0.0229 -0.10852,-0.0326 -0.0555,-0.0109 -0.10973,-0.0109 -0.23513,0 -0.3545,0.18328 -0.11937,0.18328 -0.11937,0.55587 0,0.19051 0.0289,0.32676 0.0289,0.13505 0.0868,0.22548 0.11455,0.18087 0.3545,0.18087 0.0796,0 0.14108,-0.0193 0.0289,-0.01 0.0567,-0.0229 0.0277,-0.0145 0.0531,-0.035 v -0.48352 h -0.26166 v -0.20016 h 0.49437 v 0.77532 q -0.0989,0.0916 -0.21945,0.13625 -0.12299,0.047 -0.26768,0.047 z"
       style="font-size:2.46944px;line-height:1.25;font-family:Hack;-inkscape-font-specification:Hack;letter-spacing:0px;word-spacing:0px;fill-opacity:1;stroke-width:0.264583"
       id="path15529" />
    <path
       d="m 215.28222,170.01963 h 0.29542 l 0.55104,1.80023 h -0.25201 l -0.13264,-0.46905 h -0.63062 l -0.13022,0.46905 h -0.25201 z m 0.40394,1.13585 -0.25684,-0.92122 -0.25683,0.92122 z"
       style="font-size:2.46944px;line-height:1.25;font-family:Hack;-inkscape-font-specification:Hack;letter-spacing:0px;word-spacing:0px;fill-opacity:1;stroke-width:0.264583"
       id="path15531" />
    <path
       d="m 216.79547,170.22461 h -0.56551 v -0.20498 h 1.37338 v 0.20498 h -0.5631 v 1.59525 h -0.24477 z"
       style="font-size:2.46944px;line-height:1.25;font-family:Hack;-inkscape-font-specification:Hack;letter-spacing:0px;word-spacing:0px;fill-opacity:1;stroke-width:0.264583"
       id="path15533" />
    <path
       d="m 217.89757,170.01963 h 1.06832 v 0.20498 h -0.82475 v 0.53296 h 0.78858 v 0.20498 h -0.78858 v 0.65233 h 0.84766 v 0.20498 h -1.09123 z"
       style="font-size:2.46944px;line-height:1.25;font-family:Hack;-inkscape-font-specification:Hack;letter-spacing:0px;word-spacing:0px;fill-opacity:1;stroke-width:0.264583"
       id="path15535" />
    <g
       aria-label="V"
       id="text2297"
       style="font-size:2.46944px;line-height:1.25;font-family:system-ui;-inkscape-font-specification:system-ui;letter-spacing:0px;word-spacing:0px;stroke-width:0.264583"
       transform="translate(-0.255168)">
      <path
         d="m 107.95108,171.82021 -0.6873,-1.80024 h 0.25442 l 0.57034,1.51567 0.57154,-1.51567 h 0.25321 l -0.68609,1.80024 z"
         style="font-family:sans-serif;-inkscape-font-specification:sans-serif"
         id="path8908" />
    </g>
  </g>
</svg>
