<?xml version="1.0" encoding="UTF-8" standalone="no"?>
<!-- Created with Inkscape (http://www.inkscape.org/) -->

<svg
   xmlns:dc="http://purl.org/dc/elements/1.1/"
   xmlns:cc="http://creativecommons.org/ns#"
   xmlns:rdf="http://www.w3.org/1999/02/22-rdf-syntax-ns#"
   xmlns:svg="http://www.w3.org/2000/svg"
   xmlns="http://www.w3.org/2000/svg"
   xmlns:sodipodi="http://sodipodi.sourceforge.net/DTD/sodipodi-0.dtd"
   xmlns:inkscape="http://www.inkscape.org/namespaces/inkscape"
   width="812"
   height="380"
   viewBox="0 0 214.84169 100.54167"
   version="1.1"
   id="svg11003"
   inkscape:version="0.92.5 (2060ec1f9f, 2020-04-08)"
   sodipodi:docname="ColoredGlass.svg">
  <defs
     id="defs10997" />
  <sodipodi:namedview
     id="base"
     pagecolor="#ffffff"
     bordercolor="#666666"
     borderopacity="1.0"
     inkscape:pageopacity="0.0"
     inkscape:pageshadow="2"
     inkscape:zoom="1.979899"
     inkscape:cx="286.16626"
     inkscape:cy="202.76162"
     inkscape:document-units="mm"
     inkscape:current-layer="layer1"
     showgrid="false"
     fit-margin-top="0"
     fit-margin-left="0"
     fit-margin-right="0"
     fit-margin-bottom="0"
     inkscape:window-width="1916"
     inkscape:window-height="1033"
     inkscape:window-x="0"
     inkscape:window-y="22"
     inkscape:window-maximized="0"
     units="px"
     showguides="true"
     inkscape:guide-bbox="true">
    <sodipodi:guide
       position="36.682746,48.208743"
       orientation="0,1"
       id="guide9795"
       inkscape:locked="false" />
    <sodipodi:guide
       position="22.317007,107.70963"
       orientation="1,0"
       id="guide9843"
       inkscape:locked="false" />
  </sodipodi:namedview>
  <metadata
     id="metadata11000">
    <rdf:RDF>
      <cc:Work
         rdf:about="">
        <dc:format>image/svg+xml</dc:format>
        <dc:type
           rdf:resource="http://purl.org/dc/dcmitype/StillImage" />
        <dc:title></dc:title>
      </cc:Work>
    </rdf:RDF>
  </metadata>
  <g
     inkscape:label="Layer 1"
     inkscape:groupmode="layer"
     id="layer1"
     transform="translate(-64.792954,-75.127967)">
    <path
       inkscape:connector-curvature="0"
       id="path33429-1"
       d="M 64.792953,75.127963 H 179.39533 V 175.66963 H 64.792953 Z m 0,0"
       style="fill:#e6e6e6;fill-opacity:1;fill-rule:nonzero;stroke:none;stroke-width:0.46990073"
       sodipodi:insensitive="true" />
    <g
       style="font-style:normal;font-weight:normal;font-size:2.11666656px;line-height:1.25;font-family:sans-serif;letter-spacing:0px;word-spacing:0px;fill:#ffffff;fill-opacity:0;stroke:none;stroke-width:0.26458332"
       id="text878" />
    <g
       aria-label="     "
       style="font-style:normal;font-weight:normal;font-size:2.11666656px;line-height:1.25;font-family:sans-serif;letter-spacing:0px;word-spacing:0px;fill:#000000;fill-opacity:1;stroke:none;stroke-width:0.26458332"
       id="text1789" />
    <g
       style="font-style:normal;font-weight:normal;font-size:2.11666656px;line-height:1.25;font-family:sans-serif;letter-spacing:0px;word-spacing:0px;fill:#000000;fill-opacity:1;stroke:none;stroke-width:0.26458332"
       id="text1785-9" />
    <g
       transform="matrix(0.26458333,0,0,0.26458333,64.792954,75.127975)"
       style="font-style:normal;font-weight:normal;font-size:8px;line-height:1.25;font-family:sans-serif;letter-spacing:0px;word-spacing:0px;fill:#000000;fill-opacity:1;stroke:none"
       id="flowRoot2241" />
    <rect
       style="opacity:1;fill:#000000;fill-opacity:1;stroke:none;stroke-width:0.491218;stroke-miterlimit:4;stroke-dasharray:none;stroke-opacity:1"
       id="rect9651"
       width="100.542"
       height="100.54166"
       x="179.35754"
       y="75.12796" />
    <g
       aria-label="Amount




Rotate




Edges




Opacity




Distort




Stroke




Radius


"
       style="font-style:normal;font-weight:normal;font-size:1.92513311px;line-height:1.25;font-family:sans-serif;letter-spacing:0px;word-spacing:0px;fill:#000000;fill-opacity:1;stroke:none;stroke-width:0.24064164"
       id="text9847"
       transform="matrix(0.9808995,0,0,0.9808995,2.1870885,2.5175345)">
      <path
         d="m 87.773407,86.071337 -0.386343,1.047637 h 0.774095 z m -0.160741,-0.280592 h 0.322892 l 0.802295,2.105144 H 88.441751 L 88.24999,87.355856 h -0.948937 l -0.191761,0.540033 H 86.80896 Z"
         style="font-style:normal;font-variant:normal;font-weight:normal;font-stretch:normal;font-size:2.88769984px;font-family:sans-serif;-inkscape-font-specification:sans-serif;stroke-width:0.24064164"
         id="path10035"
         inkscape:connector-curvature="0" />
      <path
         d="m 90.263484,86.619831 q 0.09729,-0.174842 0.232651,-0.258032 0.135361,-0.08319 0.318663,-0.08319 0.246751,0 0.380702,0.173431 0.133951,0.172022 0.133951,0.490684 v 0.953166 h -0.260852 v -0.944706 q 0,-0.227012 -0.08037,-0.336993 -0.08037,-0.10998 -0.245342,-0.10998 -0.201631,0 -0.318662,0.133951 -0.117031,0.133951 -0.117031,0.365192 v 0.892536 h -0.260852 v -0.944706 q 0,-0.228422 -0.08037,-0.336993 -0.08037,-0.10998 -0.248162,-0.10998 -0.198811,0 -0.315842,0.135361 -0.117031,0.133951 -0.117031,0.363782 v 0.892536 h -0.260852 v -1.579211 h 0.260852 v 0.245342 q 0.08883,-0.145231 0.212911,-0.214321 0.124081,-0.06909 0.294692,-0.06909 0.172022,0 0.291873,0.08742 0.12126,0.08742 0.179071,0.253801 z"
         style="font-style:normal;font-variant:normal;font-weight:normal;font-stretch:normal;font-size:2.88769984px;font-family:sans-serif;-inkscape-font-specification:sans-serif;stroke-width:0.24064164"
         id="path10037"
         inkscape:connector-curvature="0" />
      <path
         d="m 92.458869,86.49857 q -0.208681,0 -0.329942,0.163561 -0.121261,0.162151 -0.121261,0.445563 0,0.283412 0.119851,0.446973 0.12126,0.162151 0.331352,0.162151 0.207271,0 0.328532,-0.163561 0.121261,-0.163561 0.121261,-0.445563 0,-0.280592 -0.121261,-0.444153 Q 92.66614,86.49857 92.458869,86.49857 Z m 0,-0.219962 q 0.338402,0 0.531574,0.219962 0.193171,0.219961 0.193171,0.609124 0,0.387753 -0.193171,0.609124 -0.193172,0.219962 -0.531574,0.219962 -0.339812,0 -0.532984,-0.219962 -0.191761,-0.221371 -0.191761,-0.609124 0,-0.389163 0.191761,-0.609124 0.193172,-0.219962 0.532984,-0.219962 z"
         style="font-style:normal;font-variant:normal;font-weight:normal;font-stretch:normal;font-size:2.88769984px;font-family:sans-serif;-inkscape-font-specification:sans-serif;stroke-width:0.24064164"
         id="path10039"
         inkscape:connector-curvature="0" />
      <path
         d="m 93.586877,87.272665 v -0.955987 h 0.259442 v 0.946117 q 0,0.224191 0.08742,0.336992 0.08742,0.111391 0.262262,0.111391 0.210091,0 0.331352,-0.133951 0.122671,-0.133951 0.122671,-0.365192 v -0.895357 h 0.259442 v 1.579211 h -0.259442 v -0.242521 q -0.09447,0.143821 -0.219961,0.214321 -0.124081,0.06909 -0.289052,0.06909 -0.272132,0 -0.413133,-0.169202 -0.141001,-0.169201 -0.141001,-0.494912 z m 0.652834,-0.994057 z"
         style="font-style:normal;font-variant:normal;font-weight:normal;font-stretch:normal;font-size:2.88769984px;font-family:sans-serif;-inkscape-font-specification:sans-serif;stroke-width:0.24064164"
         id="path10041"
         inkscape:connector-curvature="0" />
      <path
         d="m 96.756578,86.942723 v 0.953166 h -0.259442 v -0.944706 q 0,-0.224192 -0.08742,-0.335583 -0.08742,-0.11139 -0.262262,-0.11139 -0.210092,0 -0.331352,0.133951 -0.121261,0.133951 -0.121261,0.365192 v 0.892536 h -0.260852 v -1.579211 h 0.260852 v 0.245342 q 0.09306,-0.142411 0.218551,-0.212911 0.126901,-0.0705 0.291872,-0.0705 0.272132,0 0.411723,0.169201 0.139591,0.167791 0.139591,0.494913 z"
         style="font-style:normal;font-variant:normal;font-weight:normal;font-stretch:normal;font-size:2.88769984px;font-family:sans-serif;-inkscape-font-specification:sans-serif;stroke-width:0.24064164"
         id="path10043"
         inkscape:connector-curvature="0" />
      <path
         d="m 97.530673,85.868295 v 0.448383 h 0.534394 v 0.201632 h -0.534394 v 0.857286 q 0,0.193171 0.05217,0.248161 0.05358,0.05499 0.215731,0.05499 h 0.266492 v 0.217141 h -0.266492 q -0.300332,0 -0.414543,-0.11139 -0.11421,-0.112801 -0.11421,-0.408903 V 86.51831 H 97.07947 v -0.201632 h 0.190352 v -0.448383 z"
         style="font-style:normal;font-variant:normal;font-weight:normal;font-stretch:normal;font-size:2.88769984px;font-family:sans-serif;-inkscape-font-specification:sans-serif;stroke-width:0.24064164"
         id="path10045"
         inkscape:connector-curvature="0" />
      <path
         d="m 88.068099,100.14417 q 0.09165,0.031 0.177661,0.13254 0.08742,0.10152 0.174841,0.27919 l 0.289052,0.57528 h -0.305972 l -0.269312,-0.54003 q -0.104341,-0.21151 -0.203041,-0.2806 -0.09729,-0.0691 -0.266492,-0.0691 h -0.310202 v 0.88972 h -0.284822 v -2.105145 h 0.642964 q 0.360963,0 0.538624,0.150871 0.177661,0.150871 0.177661,0.455433 0,0.198812 -0.09306,0.329943 -0.09165,0.131128 -0.267901,0.181888 z m -0.713465,-0.884073 v 0.747303 h 0.358142 q 0.205862,0 0.310202,-0.09447 0.105751,-0.09588 0.105751,-0.280592 0,-0.184711 -0.105751,-0.277772 -0.10434,-0.09447 -0.310202,-0.09447 z"
         style="font-style:normal;font-variant:normal;font-weight:normal;font-stretch:normal;font-size:2.88769984px;font-family:sans-serif;-inkscape-font-specification:sans-serif;stroke-width:0.24064164"
         id="path10047"
         inkscape:connector-curvature="0" />
      <path
         d="m 89.547199,99.73386 q -0.208682,0 -0.329942,0.163561 -0.121261,0.162149 -0.121261,0.445559 0,0.28342 0.119851,0.44698 0.12126,0.16215 0.331352,0.16215 0.207271,0 0.328532,-0.16356 0.121261,-0.16356 0.121261,-0.44557 0,-0.28059 -0.121261,-0.444149 Q 89.75447,99.73386 89.547199,99.73386 Z m 0,-0.219961 q 0.338402,0 0.531574,0.219961 0.193171,0.219962 0.193171,0.60912 0,0.38776 -0.193171,0.60913 -0.193172,0.21996 -0.531574,0.21996 -0.339812,0 -0.532984,-0.21996 -0.191761,-0.22137 -0.191761,-0.60913 0,-0.389158 0.191761,-0.60912 0.193172,-0.219961 0.532984,-0.219961 z"
         style="font-style:normal;font-variant:normal;font-weight:normal;font-stretch:normal;font-size:2.88769984px;font-family:sans-serif;-inkscape-font-specification:sans-serif;stroke-width:0.24064164"
         id="path10049"
         inkscape:connector-curvature="0" />
      <path
         d="m 90.958619,99.103586 v 0.448383 h 0.534393 V 99.7536 h -0.534393 v 0.85729 q 0,0.19317 0.05217,0.24816 0.05358,0.055 0.215731,0.055 h 0.266492 v 0.21714 H 91.22652 q -0.300332,0 -0.414542,-0.11139 -0.114211,-0.1128 -0.114211,-0.4089 v -0.8573 h -0.190352 v -0.201631 h 0.190352 v -0.448383 z"
         style="font-style:normal;font-variant:normal;font-weight:normal;font-stretch:normal;font-size:2.88769984px;font-family:sans-serif;-inkscape-font-specification:sans-serif;stroke-width:0.24064164"
         id="path10051"
         inkscape:connector-curvature="0" />
      <path
         d="m 92.55193,100.33734 q -0.314433,0 -0.435693,0.0719 -0.121261,0.0719 -0.121261,0.24535 0,0.13818 0.09024,0.21996 0.09165,0.0804 0.248162,0.0804 0.215732,0 0.345452,-0.15228 0.131131,-0.15369 0.131131,-0.4075 v -0.0578 z m 0.517473,-0.10716 v 0.901 h -0.259442 v -0.2397 q -0.08883,0.14382 -0.221371,0.21291 -0.132541,0.0677 -0.324302,0.0677 -0.242522,0 -0.386343,-0.13536 -0.142411,-0.13677 -0.142411,-0.36519 0,-0.2665 0.177661,-0.40186 0.179071,-0.13536 0.532984,-0.13536 h 0.363782 v -0.0254 q 0,-0.179069 -0.11844,-0.276359 -0.117031,-0.0987 -0.329943,-0.0987 -0.135361,0 -0.263672,0.03243 -0.12831,0.03243 -0.246751,0.09729 v -0.239702 q 0.142411,-0.05499 0.276362,-0.08178 0.133951,-0.0282 0.260851,-0.0282 0.342633,0 0.511834,0.177661 0.169201,0.177661 0.169201,0.53862 z"
         style="font-style:normal;font-variant:normal;font-weight:normal;font-stretch:normal;font-size:2.88769984px;font-family:sans-serif;-inkscape-font-specification:sans-serif;stroke-width:0.24064164"
         id="path10053"
         inkscape:connector-curvature="0" />
      <path
         d="m 93.860419,99.103586 v 0.448383 h 0.534393 V 99.7536 h -0.534393 v 0.85729 q 0,0.19317 0.05217,0.24816 0.05358,0.055 0.215732,0.055 h 0.266491 v 0.21714 h -0.266491 q -0.300333,0 -0.414543,-0.11139 -0.114211,-0.1128 -0.114211,-0.4089 v -0.8573 h -0.190351 v -0.201631 h 0.190351 v -0.448383 z"
         style="font-style:normal;font-variant:normal;font-weight:normal;font-stretch:normal;font-size:2.88769984px;font-family:sans-serif;-inkscape-font-specification:sans-serif;stroke-width:0.24064164"
         id="path10055"
         inkscape:connector-curvature="0" />
      <path
         d="m 96.086824,100.27671 v 0.1269 h -1.192869 q 0.01692,0.26791 0.160742,0.40891 0.145231,0.13959 0.403262,0.13959 0.149461,0 0.289052,-0.0367 0.141001,-0.0367 0.279182,-0.10998 v 0.24534 q -0.139591,0.0592 -0.286232,0.0902 -0.146641,0.031 -0.297512,0.031 -0.377882,0 -0.599254,-0.21996 -0.219961,-0.21996 -0.219961,-0.59503 0,-0.387748 0.208681,-0.61476 0.210091,-0.228421 0.565414,-0.228421 0.318662,0 0.503373,0.205861 0.186122,0.204451 0.186122,0.55695 z m -0.259442,-0.0761 Q 95.824582,99.987702 95.707531,99.860801 95.59191,99.7339 95.400149,99.7339 q -0.217142,0 -0.348272,0.122671 -0.129721,0.122671 -0.149462,0.345449 z"
         style="font-style:normal;font-variant:normal;font-weight:normal;font-stretch:normal;font-size:2.88769984px;font-family:sans-serif;-inkscape-font-specification:sans-serif;stroke-width:0.24064164"
         id="path10057"
         inkscape:connector-curvature="0" />
      <path
         d="m 87.069812,112.26133 h 1.331049 v 0.2397 h -1.046227 v 0.62322 h 1.002517 v 0.2397 h -1.002517 v 0.76282 h 1.071607 v 0.2397 h -1.356429 z"
         style="font-style:normal;font-variant:normal;font-weight:normal;font-stretch:normal;font-size:2.88769984px;font-family:sans-serif;-inkscape-font-specification:sans-serif;stroke-width:0.24064164"
         id="path10059"
         inkscape:connector-curvature="0" />
      <path
         d="m 89.922261,113.02696 v -0.85447 h 0.259442 v 2.19398 h -0.259442 v -0.23688 q -0.08178,0.141 -0.207271,0.21009 -0.124081,0.0677 -0.298922,0.0677 -0.286232,0 -0.466713,-0.22842 -0.179072,-0.22842 -0.179072,-0.60067 0,-0.37224 0.179072,-0.60066 0.180481,-0.22842 0.466713,-0.22842 0.174841,0 0.298922,0.0691 0.125491,0.0677 0.207271,0.20868 z m -0.884076,0.55131 q 0,0.28624 0.117031,0.4498 0.118441,0.16215 0.324302,0.16215 0.205862,0 0.324303,-0.16215 0.11844,-0.16356 0.11844,-0.4498 0,-0.28623 -0.11844,-0.44838 -0.118441,-0.16356 -0.324303,-0.16356 -0.205861,0 -0.324302,0.16356 -0.117031,0.16215 -0.117031,0.44838 z"
         style="font-style:normal;font-variant:normal;font-weight:normal;font-stretch:normal;font-size:2.88769984px;font-family:sans-serif;-inkscape-font-specification:sans-serif;stroke-width:0.24064164"
         id="path10061"
         inkscape:connector-curvature="0" />
      <path
         d="m 91.755274,113.55853 q 0,-0.282 -0.117031,-0.4371 -0.115621,-0.1551 -0.325712,-0.1551 -0.208682,0 -0.325712,0.1551 -0.115621,0.1551 -0.115621,0.4371 0,0.2806 0.115621,0.4357 0.11703,0.1551 0.325712,0.1551 0.210091,0 0.325712,-0.1551 0.117031,-0.1551 0.117031,-0.4357 z m 0.259442,0.61195 q 0,0.40326 -0.179071,0.59925 -0.179072,0.1974 -0.548494,0.1974 -0.136771,0 -0.258032,-0.0211 -0.121261,-0.0197 -0.235472,-0.062 v -0.25239 q 0.114211,0.062 0.225602,0.0917 0.111391,0.0296 0.227011,0.0296 0.255212,0 0.382113,-0.13395 0.126901,-0.13254 0.126901,-0.40185 v -0.12831 q -0.08037,0.13959 -0.205861,0.20868 -0.125491,0.0691 -0.300333,0.0691 -0.290462,0 -0.468123,-0.22137 -0.177661,-0.22137 -0.177661,-0.58657 0,-0.3666 0.177661,-0.58797 0.177661,-0.22137 0.468123,-0.22137 0.174842,0 0.300333,0.0691 0.12549,0.0691 0.205861,0.20868 v -0.2397 h 0.259442 z"
         style="font-style:normal;font-variant:normal;font-weight:normal;font-stretch:normal;font-size:2.88769984px;font-family:sans-serif;-inkscape-font-specification:sans-serif;stroke-width:0.24064164"
         id="path10063"
         inkscape:connector-curvature="0" />
      <path
         d="m 93.899899,113.512 v 0.1269 H 92.70703 q 0.01692,0.26791 0.160742,0.40891 0.145231,0.13959 0.403262,0.13959 0.149461,0 0.289052,-0.0367 0.141001,-0.0367 0.279182,-0.10998 v 0.24534 q -0.139591,0.0592 -0.286232,0.0902 -0.146641,0.031 -0.297512,0.031 -0.377882,0 -0.599254,-0.21996 -0.219961,-0.21996 -0.219961,-0.59503 0,-0.38775 0.208681,-0.61476 0.210092,-0.22842 0.565414,-0.22842 0.318662,0 0.503373,0.20586 0.186122,0.20445 0.186122,0.55695 z m -0.259442,-0.0761 q -0.0028,-0.21291 -0.119851,-0.33981 -0.115621,-0.1269 -0.307382,-0.1269 -0.217142,0 -0.348272,0.12267 -0.129721,0.12267 -0.149461,0.34545 z"
         style="font-style:normal;font-variant:normal;font-weight:normal;font-stretch:normal;font-size:2.88769984px;font-family:sans-serif;-inkscape-font-specification:sans-serif;stroke-width:0.24064164"
         id="path10065"
         inkscape:connector-curvature="0" />
      <path
         d="m 95.332469,112.83379 v 0.24534 q -0.109981,-0.0564 -0.228422,-0.0846 -0.118441,-0.0282 -0.245342,-0.0282 -0.193171,0 -0.290462,0.0592 -0.09588,0.0592 -0.09588,0.17766 0,0.0902 0.06909,0.14241 0.06909,0.0508 0.277772,0.0973 l 0.08883,0.0197 q 0.276362,0.0592 0.391982,0.16779 0.117031,0.10717 0.117031,0.30034 0,0.21996 -0.174841,0.34827 -0.173431,0.12831 -0.477993,0.12831 -0.126901,0 -0.265082,-0.0254 -0.136771,-0.024 -0.289052,-0.0733 v -0.2679 q 0.143821,0.0747 0.283412,0.1128 0.139591,0.0367 0.276362,0.0367 0.183301,0 0.282002,-0.062 0.0987,-0.0635 0.0987,-0.17766 0,-0.10575 -0.07191,-0.16215 -0.0705,-0.0564 -0.311612,-0.10857 l -0.09024,-0.0212 q -0.241112,-0.0508 -0.348272,-0.15511 -0.107161,-0.10575 -0.107161,-0.28905 0,-0.22278 0.157921,-0.34404 0.157921,-0.12126 0.448383,-0.12126 0.143821,0 0.270722,0.0212 0.126901,0.0211 0.234062,0.0634 z"
         style="font-style:normal;font-variant:normal;font-weight:normal;font-stretch:normal;font-size:2.88769984px;font-family:sans-serif;-inkscape-font-specification:sans-serif;stroke-width:0.24064164"
         id="path10067"
         inkscape:connector-curvature="0" />
      <path
         d="m 87.924278,125.68979 q -0.310202,0 -0.493504,0.23124 -0.181891,0.23124 -0.181891,0.63027 0,0.39763 0.181891,0.62887 0.183302,0.23124 0.493504,0.23124 0.310202,0 0.490683,-0.23124 0.181891,-0.23124 0.181891,-0.62887 0,-0.39903 -0.181891,-0.63027 -0.180481,-0.23124 -0.490683,-0.23124 z m 0,-0.23124 q 0.442743,0 0.707825,0.29751 0.265081,0.2961 0.265081,0.79524 0,0.49774 -0.265081,0.79525 -0.265082,0.2961 -0.707825,0.2961 -0.444153,0 -0.710645,-0.2961 -0.265082,-0.2961 -0.265082,-0.79525 0,-0.49914 0.265082,-0.79524 0.266492,-0.29751 0.710645,-0.29751 z"
         style="font-style:normal;font-variant:normal;font-weight:normal;font-stretch:normal;font-size:2.88769984px;font-family:sans-serif;-inkscape-font-specification:sans-serif;stroke-width:0.24064164"
         id="path10069"
         inkscape:connector-curvature="0" />
      <path
         d="m 89.582449,127.36488 v 0.83754 h -0.260852 v -2.17987 h 0.260852 v 0.2397 q 0.08178,-0.141 0.205861,-0.20868 0.125491,-0.0691 0.298923,-0.0691 0.287642,0 0.466713,0.22842 0.180481,0.22842 0.180481,0.60066 0,0.37225 -0.180481,0.60067 -0.179071,0.22842 -0.466713,0.22842 -0.173432,0 -0.298923,-0.0677 -0.12408,-0.0691 -0.205861,-0.21009 z m 0.882666,-0.55132 q 0,-0.28623 -0.118441,-0.44838 -0.11703,-0.16356 -0.322892,-0.16356 -0.205861,0 -0.324302,0.16356 -0.117031,0.16215 -0.117031,0.44838 0,0.28624 0.117031,0.4498 0.118441,0.16215 0.324302,0.16215 0.205862,0 0.322892,-0.16215 0.118441,-0.16356 0.118441,-0.4498 z"
         style="font-style:normal;font-variant:normal;font-weight:normal;font-stretch:normal;font-size:2.88769984px;font-family:sans-serif;-inkscape-font-specification:sans-serif;stroke-width:0.24064164"
         id="path10071"
         inkscape:connector-curvature="0" />
      <path
         d="m 91.882175,126.80792 q -0.314432,0 -0.435693,0.0719 -0.121261,0.0719 -0.121261,0.24534 0,0.13818 0.09024,0.21996 0.09165,0.0804 0.248162,0.0804 0.215731,0 0.345452,-0.15228 0.131131,-0.15369 0.131131,-0.40749 v -0.0578 z m 0.517474,-0.10716 v 0.901 h -0.259442 v -0.2397 q -0.08883,0.14382 -0.221372,0.21291 -0.132541,0.0677 -0.324302,0.0677 -0.242522,0 -0.386343,-0.13536 -0.142411,-0.13677 -0.142411,-0.36519 0,-0.26649 0.177662,-0.40186 0.179071,-0.13536 0.532983,-0.13536 h 0.363783 v -0.0254 q 0,-0.17907 -0.118441,-0.27636 -0.117031,-0.0987 -0.329942,-0.0987 -0.135361,0 -0.263672,0.0324 -0.128311,0.0324 -0.246752,0.0973 v -0.2397 q 0.142411,-0.055 0.276362,-0.0818 0.133951,-0.0282 0.260852,-0.0282 0.342632,0 0.511833,0.17766 0.169202,0.17766 0.169202,0.53862 z"
         style="font-style:normal;font-variant:normal;font-weight:normal;font-stretch:normal;font-size:2.88769984px;font-family:sans-serif;-inkscape-font-specification:sans-serif;stroke-width:0.24064164"
         id="path10073"
         inkscape:connector-curvature="0" />
      <path
         d="m 94.07051,126.08318 v 0.24252 q -0.109981,-0.0606 -0.221372,-0.0902 -0.109981,-0.031 -0.222781,-0.031 -0.252392,0 -0.391983,0.16074 -0.139591,0.15933 -0.139591,0.44838 0,0.28906 0.139591,0.4498 0.139591,0.15933 0.391983,0.15933 0.1128,0 0.222781,-0.0296 0.111391,-0.031 0.221372,-0.0917 v 0.2397 q -0.108571,0.0508 -0.225602,0.0761 -0.115621,0.0254 -0.246752,0.0254 -0.356732,0 -0.566823,-0.22419 -0.210092,-0.22419 -0.210092,-0.6049 0,-0.38634 0.211502,-0.60771 0.212911,-0.22137 0.582334,-0.22137 0.11985,0 0.234061,0.0254 0.114211,0.024 0.221372,0.0733 z"
         style="font-style:normal;font-variant:normal;font-weight:normal;font-stretch:normal;font-size:2.88769984px;font-family:sans-serif;-inkscape-font-specification:sans-serif;stroke-width:0.24064164"
         id="path10075"
         inkscape:connector-curvature="0" />
      <path
         d="m 94.521713,126.02255 h 0.259442 v 1.57921 h -0.259442 z m 0,-0.61476 h 0.259442 v 0.32853 h -0.259442 z"
         style="font-style:normal;font-variant:normal;font-weight:normal;font-stretch:normal;font-size:2.88769984px;font-family:sans-serif;-inkscape-font-specification:sans-serif;stroke-width:0.24064164"
         id="path10077"
         inkscape:connector-curvature="0" />
      <path
         d="m 95.580631,125.57417 v 0.44838 h 0.534393 v 0.20163 h -0.534393 v 0.85729 q 0,0.19317 0.05217,0.24816 0.05358,0.055 0.215731,0.055 h 0.266492 v 0.21714 h -0.266492 q -0.300332,0 -0.414542,-0.11139 -0.114211,-0.1128 -0.114211,-0.4089 v -0.85729 h -0.190351 v -0.20163 h 0.190351 v -0.44838 z"
         style="font-style:normal;font-variant:normal;font-weight:normal;font-stretch:normal;font-size:2.88769984px;font-family:sans-serif;-inkscape-font-specification:sans-serif;stroke-width:0.24064164"
         id="path10079"
         inkscape:connector-curvature="0" />
      <path
         d="m 97.113311,127.7484 q -0.109981,0.282 -0.214322,0.36801 -0.10434,0.086 -0.279182,0.086 h -0.207271 v -0.21714 h 0.152281 q 0.107161,0 0.166381,-0.0508 0.05922,-0.0508 0.131131,-0.2397 l 0.04653,-0.11844 -0.638734,-1.55383 h 0.274952 l 0.493503,1.23517 0.493504,-1.23517 h 0.274952 z"
         style="font-style:normal;font-variant:normal;font-weight:normal;font-stretch:normal;font-size:2.88769984px;font-family:sans-serif;-inkscape-font-specification:sans-serif;stroke-width:0.24064164"
         id="path10081"
         inkscape:connector-curvature="0" />
      <path
         d="m 87.354634,138.96597 v 1.63702 h 0.344042 q 0.435693,0 0.637324,-0.1974 0.203042,-0.1974 0.203042,-0.62323 0,-0.423 -0.203042,-0.61899 -0.201631,-0.1974 -0.637324,-0.1974 z m -0.284822,-0.23406 h 0.585154 q 0.611944,0 0.898176,0.25521 0.286232,0.2538 0.286232,0.79524 0,0.54427 -0.287642,0.79948 -0.287642,0.25521 -0.896766,0.25521 h -0.585154 z"
         style="font-style:normal;font-variant:normal;font-weight:normal;font-stretch:normal;font-size:2.88769984px;font-family:sans-serif;-inkscape-font-specification:sans-serif;stroke-width:0.24064164"
         id="path10083"
         inkscape:connector-curvature="0" />
      <path
         d="m 89.282117,139.25784 h 0.259442 v 1.57921 h -0.259442 z m 0,-0.61476 h 0.259442 v 0.32853 h -0.259442 z"
         style="font-style:normal;font-variant:normal;font-weight:normal;font-stretch:normal;font-size:2.88769984px;font-family:sans-serif;-inkscape-font-specification:sans-serif;stroke-width:0.24064164"
         id="path10085"
         inkscape:connector-curvature="0" />
      <path
         d="m 91.091159,139.30437 v 0.24534 q -0.10998,-0.0564 -0.228421,-0.0846 -0.118441,-0.0282 -0.245342,-0.0282 -0.193171,0 -0.290462,0.0592 -0.09588,0.0592 -0.09588,0.17766 0,0.0902 0.06909,0.14241 0.06909,0.0508 0.277772,0.0973 l 0.08883,0.0197 q 0.276361,0.0592 0.391982,0.1678 0.117031,0.10716 0.117031,0.30033 0,0.21996 -0.174841,0.34827 -0.173431,0.12831 -0.477993,0.12831 -0.126901,0 -0.265082,-0.0254 -0.136771,-0.024 -0.289052,-0.0733 v -0.2679 q 0.143821,0.0747 0.283412,0.1128 0.139591,0.0367 0.276362,0.0367 0.183301,0 0.282002,-0.062 0.0987,-0.0634 0.0987,-0.17766 0,-0.10575 -0.07191,-0.16215 -0.0705,-0.0564 -0.311612,-0.10857 l -0.09024,-0.0212 q -0.241112,-0.0508 -0.348272,-0.15511 -0.107161,-0.10575 -0.107161,-0.28905 0,-0.22278 0.157921,-0.34404 0.157921,-0.12126 0.448383,-0.12126 0.143821,0 0.270722,0.0211 0.126901,0.0212 0.234061,0.0635 z"
         style="font-style:normal;font-variant:normal;font-weight:normal;font-stretch:normal;font-size:2.88769984px;font-family:sans-serif;-inkscape-font-specification:sans-serif;stroke-width:0.24064164"
         id="path10087"
         inkscape:connector-curvature="0" />
      <path
         d="m 91.845515,138.80946 v 0.44838 h 0.534393 v 0.20163 h -0.534393 v 0.85729 q 0,0.19317 0.05217,0.24816 0.05358,0.055 0.215731,0.055 h 0.266492 v 0.21714 h -0.266492 q -0.300332,0 -0.414542,-0.11139 -0.114211,-0.1128 -0.114211,-0.4089 v -0.85729 h -0.190351 v -0.20163 h 0.190351 v -0.44838 z"
         style="font-style:normal;font-variant:normal;font-weight:normal;font-stretch:normal;font-size:2.88769984px;font-family:sans-serif;-inkscape-font-specification:sans-serif;stroke-width:0.24064164"
         id="path10089"
         inkscape:connector-curvature="0" />
      <path
         d="m 93.333075,139.43973 q -0.208681,0 -0.329942,0.16356 -0.121261,0.16215 -0.121261,0.44557 0,0.28341 0.119851,0.44697 0.121261,0.16215 0.331352,0.16215 0.207271,0 0.328532,-0.16356 0.121261,-0.16356 0.121261,-0.44556 0,-0.2806 -0.121261,-0.44416 -0.121261,-0.16497 -0.328532,-0.16497 z m 0,-0.21996 q 0.338402,0 0.531574,0.21996 0.193171,0.21996 0.193171,0.60913 0,0.38775 -0.193171,0.60912 -0.193172,0.21996 -0.531574,0.21996 -0.339812,0 -0.532984,-0.21996 -0.191761,-0.22137 -0.191761,-0.60912 0,-0.38917 0.191761,-0.60913 0.193172,-0.21996 0.532984,-0.21996 z"
         style="font-style:normal;font-variant:normal;font-weight:normal;font-stretch:normal;font-size:2.88769984px;font-family:sans-serif;-inkscape-font-specification:sans-serif;stroke-width:0.24064164"
         id="path10091"
         inkscape:connector-curvature="0" />
      <path
         d="m 95.402969,139.50036 q -0.04371,-0.0254 -0.09588,-0.0367 -0.05076,-0.0127 -0.112801,-0.0127 -0.219962,0 -0.338402,0.14382 -0.117031,0.14241 -0.117031,0.41031 v 0.83191 h -0.260852 v -1.57921 h 0.260852 v 0.24534 q 0.08178,-0.14382 0.212911,-0.21291 0.131131,-0.0705 0.318662,-0.0705 0.02679,0 0.05922,0.004 0.03243,0.003 0.07191,0.01 z"
         style="font-style:normal;font-variant:normal;font-weight:normal;font-stretch:normal;font-size:2.88769984px;font-family:sans-serif;-inkscape-font-specification:sans-serif;stroke-width:0.24064164"
         id="path10093"
         inkscape:connector-curvature="0" />
      <path
         d="m 95.931723,138.80946 v 0.44838 h 0.534394 v 0.20163 h -0.534394 v 0.85729 q 0,0.19317 0.05217,0.24816 0.05358,0.055 0.215732,0.055 h 0.266492 v 0.21714 h -0.266492 q -0.300332,0 -0.414543,-0.11139 -0.114211,-0.1128 -0.114211,-0.4089 v -0.85729 H 95.48052 v -0.20163 h 0.190351 v -0.44838 z"
         style="font-style:normal;font-variant:normal;font-weight:normal;font-stretch:normal;font-size:2.88769984px;font-family:sans-serif;-inkscape-font-specification:sans-serif;stroke-width:0.24064164"
         id="path10095"
         inkscape:connector-curvature="0" />
      <path
         d="m 88.33177,152.03629 v 0.27777 q -0.162151,-0.0776 -0.305972,-0.11562 -0.143821,-0.0381 -0.277772,-0.0381 -0.232651,0 -0.359552,0.0902 -0.125491,0.0902 -0.125491,0.25662 0,0.13959 0.08319,0.2115 0.0846,0.0705 0.318662,0.11421 l 0.172021,0.0352 q 0.318662,0.0606 0.469533,0.21432 0.152281,0.15229 0.152281,0.40891 0,0.30597 -0.205861,0.46389 -0.204451,0.15792 -0.600664,0.15792 -0.149461,0 -0.318662,-0.0338 -0.167792,-0.0338 -0.348273,-0.10011 v -0.2932 q 0.173431,0.0973 0.339813,0.14664 0.166381,0.0494 0.327122,0.0494 0.243931,0 0.376472,-0.0959 0.132541,-0.0959 0.132541,-0.27354 0,-0.1551 -0.09588,-0.24252 -0.09447,-0.0874 -0.311613,-0.13114 l -0.173431,-0.0338 q -0.318662,-0.0635 -0.461073,-0.19881 -0.142411,-0.13536 -0.142411,-0.37647 0,-0.27918 0.195991,-0.43992 0.197402,-0.16074 0.542854,-0.16074 0.148051,0 0.301742,0.0268 0.153691,0.0268 0.314432,0.0804 z"
         style="font-style:normal;font-variant:normal;font-weight:normal;font-stretch:normal;font-size:2.88769984px;font-family:sans-serif;-inkscape-font-specification:sans-serif;stroke-width:0.24064164"
         id="path10097"
         inkscape:connector-curvature="0" />
      <path
         d="m 89.148166,152.04475 v 0.44838 h 0.534394 v 0.20163 h -0.534394 v 0.85729 q 0,0.19317 0.05217,0.24816 0.05358,0.055 0.215732,0.055 h 0.266492 v 0.21714 h -0.266492 q -0.300332,0 -0.414543,-0.11139 -0.114211,-0.1128 -0.114211,-0.4089 v -0.85729 h -0.190351 v -0.20163 h 0.190351 v -0.44838 z"
         style="font-style:normal;font-variant:normal;font-weight:normal;font-stretch:normal;font-size:2.88769984px;font-family:sans-serif;-inkscape-font-specification:sans-serif;stroke-width:0.24064164"
         id="path10099"
         inkscape:connector-curvature="0" />
      <path
         d="m 90.938878,152.73565 q -0.04371,-0.0254 -0.09588,-0.0367 -0.05076,-0.0127 -0.112801,-0.0127 -0.219961,0 -0.338402,0.14382 -0.117031,0.14241 -0.117031,0.41032 v 0.8319 h -0.260852 v -1.57921 h 0.260852 v 0.24534 q 0.08178,-0.14382 0.212911,-0.21291 0.131131,-0.0705 0.318663,-0.0705 0.02679,0 0.05922,0.004 0.03243,0.003 0.07191,0.01 z"
         style="font-style:normal;font-variant:normal;font-weight:normal;font-stretch:normal;font-size:2.88769984px;font-family:sans-serif;-inkscape-font-specification:sans-serif;stroke-width:0.24064164"
         id="path10101"
         inkscape:connector-curvature="0" />
      <path
         d="m 91.759504,152.67502 q -0.208681,0 -0.329942,0.16356 -0.121261,0.16215 -0.121261,0.44557 0,0.28341 0.119851,0.44697 0.121261,0.16215 0.331352,0.16215 0.207272,0 0.328533,-0.16356 0.12126,-0.16356 0.12126,-0.44556 0,-0.2806 -0.12126,-0.44416 -0.121261,-0.16497 -0.328533,-0.16497 z m 0,-0.21996 q 0.338403,0 0.531574,0.21996 0.193171,0.21996 0.193171,0.60913 0,0.38775 -0.193171,0.60912 -0.193171,0.21996 -0.531574,0.21996 -0.339812,0 -0.532983,-0.21996 -0.191762,-0.22137 -0.191762,-0.60912 0,-0.38917 0.191762,-0.60913 0.193171,-0.21996 0.532983,-0.21996 z"
         style="font-style:normal;font-variant:normal;font-weight:normal;font-stretch:normal;font-size:2.88769984px;font-family:sans-serif;-inkscape-font-specification:sans-serif;stroke-width:0.24064164"
         id="path10103"
         inkscape:connector-curvature="0" />
      <path
         d="m 92.904432,151.87837 h 0.260852 v 1.29579 l 0.774095,-0.68103 h 0.331352 l -0.837546,0.73885 0.872796,0.84036 h -0.338402 l -0.802295,-0.77127 v 0.77127 h -0.260852 z"
         style="font-style:normal;font-variant:normal;font-weight:normal;font-stretch:normal;font-size:2.88769984px;font-family:sans-serif;-inkscape-font-specification:sans-serif;stroke-width:0.24064164"
         id="path10105"
         inkscape:connector-curvature="0" />
      <path
         d="m 95.834432,153.21788 v 0.1269 h -1.192868 q 0.01692,0.2679 0.160741,0.4089 0.145231,0.13959 0.403262,0.13959 0.149462,0 0.289052,-0.0367 0.141001,-0.0367 0.279182,-0.10998 v 0.24534 q -0.139591,0.0592 -0.286232,0.0902 -0.146641,0.031 -0.297512,0.031 -0.377882,0 -0.599254,-0.21996 -0.219961,-0.21996 -0.219961,-0.59502 0,-0.38776 0.208681,-0.61477 0.210092,-0.22842 0.565414,-0.22842 0.318662,0 0.503374,0.20586 0.186121,0.20445 0.186121,0.55696 z m -0.259442,-0.0762 q -0.0028,-0.21291 -0.119851,-0.33981 -0.115621,-0.1269 -0.307382,-0.1269 -0.217141,0 -0.348272,0.12267 -0.129721,0.12267 -0.149461,0.34545 z"
         style="font-style:normal;font-variant:normal;font-weight:normal;font-stretch:normal;font-size:2.88769984px;font-family:sans-serif;-inkscape-font-specification:sans-serif;stroke-width:0.24064164"
         id="path10107"
         inkscape:connector-curvature="0" />
      <path
         d="m 88.068099,166.32062 q 0.09165,0.031 0.177661,0.13255 0.08742,0.10152 0.174841,0.27918 l 0.289052,0.57528 h -0.305972 l -0.269312,-0.54003 q -0.104341,-0.2115 -0.203041,-0.28059 -0.09729,-0.0691 -0.266492,-0.0691 h -0.310202 v 0.88971 h -0.284822 v -2.10514 h 0.642964 q 0.360963,0 0.538624,0.15087 0.177661,0.15087 0.177661,0.45543 0,0.19881 -0.09306,0.32994 -0.09165,0.13113 -0.267901,0.18189 z m -0.713465,-0.88407 v 0.7473 h 0.358142 q 0.205862,0 0.310202,-0.0945 0.105751,-0.0959 0.105751,-0.28059 0,-0.18471 -0.105751,-0.27777 -0.10434,-0.0945 -0.310202,-0.0945 z"
         style="font-style:normal;font-variant:normal;font-weight:normal;font-stretch:normal;font-size:2.88769984px;font-family:sans-serif;-inkscape-font-specification:sans-serif;stroke-width:0.24064164"
         id="path10109"
         inkscape:connector-curvature="0" />
      <path
         d="m 89.71922,166.5138 q -0.314432,0 -0.435693,0.0719 -0.121261,0.0719 -0.121261,0.24534 0,0.13818 0.09024,0.21996 0.09165,0.0804 0.248162,0.0804 0.215731,0 0.345452,-0.15228 0.131131,-0.15369 0.131131,-0.40749 v -0.0578 z m 0.517474,-0.10716 v 0.90099 h -0.259442 v -0.2397 q -0.08883,0.14382 -0.221372,0.21291 -0.132541,0.0677 -0.324302,0.0677 -0.242522,0 -0.386343,-0.13536 -0.142411,-0.13677 -0.142411,-0.36519 0,-0.26649 0.177662,-0.40185 0.179071,-0.13537 0.532983,-0.13537 h 0.363783 v -0.0254 q 0,-0.17907 -0.118441,-0.27636 -0.117031,-0.0987 -0.329942,-0.0987 -0.135361,0 -0.263672,0.0324 -0.128311,0.0324 -0.246752,0.0973 v -0.2397 q 0.142411,-0.055 0.276362,-0.0818 0.133951,-0.0282 0.260852,-0.0282 0.342632,0 0.511833,0.17766 0.169202,0.17766 0.169202,0.53863 z"
         style="font-style:normal;font-variant:normal;font-weight:normal;font-stretch:normal;font-size:2.88769984px;font-family:sans-serif;-inkscape-font-specification:sans-serif;stroke-width:0.24064164"
         id="path10111"
         inkscape:connector-curvature="0" />
      <path
         d="m 91.810264,165.96812 v -0.85446 h 0.259442 v 2.19397 h -0.259442 v -0.23688 q -0.08178,0.141 -0.207271,0.21009 -0.124081,0.0677 -0.298922,0.0677 -0.286232,0 -0.466713,-0.22842 -0.179072,-0.22842 -0.179072,-0.60066 0,-0.37225 0.179072,-0.60067 0.180481,-0.22842 0.466713,-0.22842 0.174841,0 0.298922,0.0691 0.125491,0.0677 0.207271,0.20868 z m -0.884076,0.55132 q 0,0.28623 0.117031,0.44979 0.118441,0.16215 0.324302,0.16215 0.205862,0 0.324302,-0.16215 0.118441,-0.16356 0.118441,-0.44979 0,-0.28624 -0.118441,-0.44839 -0.11844,-0.16356 -0.324302,-0.16356 -0.205861,0 -0.324302,0.16356 -0.117031,0.16215 -0.117031,0.44839 z"
         style="font-style:normal;font-variant:normal;font-weight:normal;font-stretch:normal;font-size:2.88769984px;font-family:sans-serif;-inkscape-font-specification:sans-serif;stroke-width:0.24064164"
         id="path10113"
         inkscape:connector-curvature="0" />
      <path
         d="m 92.6041,165.72842 h 0.259441 v 1.57921 H 92.6041 Z m 0,-0.61476 h 0.259441 v 0.32853 H 92.6041 Z"
         style="font-style:normal;font-variant:normal;font-weight:normal;font-stretch:normal;font-size:2.88769984px;font-family:sans-serif;-inkscape-font-specification:sans-serif;stroke-width:0.24064164"
         id="path10115"
         inkscape:connector-curvature="0" />
      <path
         d="m 93.379605,166.68441 v -0.95599 h 0.259442 v 0.94612 q 0,0.22419 0.08742,0.33699 0.08742,0.11139 0.262261,0.11139 0.210092,0 0.331353,-0.13395 0.122671,-0.13395 0.122671,-0.36519 v -0.89536 h 0.259441 v 1.57921 h -0.259441 v -0.24252 q -0.09447,0.14382 -0.219962,0.21432 -0.124081,0.0691 -0.289052,0.0691 -0.272132,0 -0.413133,-0.1692 -0.141001,-0.1692 -0.141001,-0.49491 z m 0.652835,-0.99406 z"
         style="font-style:normal;font-variant:normal;font-weight:normal;font-stretch:normal;font-size:2.88769984px;font-family:sans-serif;-inkscape-font-specification:sans-serif;stroke-width:0.24064164"
         id="path10117"
         inkscape:connector-curvature="0" />
      <path
         d="m 96.243334,165.77495 v 0.24534 q -0.10998,-0.0564 -0.228421,-0.0846 -0.118441,-0.0282 -0.245342,-0.0282 -0.193171,0 -0.290462,0.0592 -0.09588,0.0592 -0.09588,0.17766 0,0.0902 0.06909,0.14241 0.06909,0.0508 0.277772,0.0973 l 0.08883,0.0197 q 0.276362,0.0592 0.391983,0.16779 0.117031,0.10716 0.117031,0.30033 0,0.21996 -0.174841,0.34827 -0.173431,0.12831 -0.477994,0.12831 -0.1269,0 -0.265081,-0.0254 -0.136771,-0.024 -0.289052,-0.0733 v -0.2679 q 0.143821,0.0747 0.283412,0.1128 0.139591,0.0367 0.276362,0.0367 0.183301,0 0.282001,-0.062 0.0987,-0.0635 0.0987,-0.17766 0,-0.10575 -0.07191,-0.16215 -0.0705,-0.0564 -0.311612,-0.10857 l -0.09024,-0.0212 q -0.241112,-0.0508 -0.348273,-0.1551 -0.10716,-0.10576 -0.10716,-0.28906 0,-0.22278 0.157921,-0.34404 0.157921,-0.12126 0.448383,-0.12126 0.143821,0 0.270722,0.0212 0.126901,0.0212 0.234061,0.0634 z"
         style="font-style:normal;font-variant:normal;font-weight:normal;font-stretch:normal;font-size:2.88769984px;font-family:sans-serif;-inkscape-font-specification:sans-serif;stroke-width:0.24064164"
         id="path10119"
         inkscape:connector-curvature="0" />
    </g>
    <g
       aria-label="Rand"
       style="font-style:normal;font-weight:normal;font-size:2.82222223px;line-height:1.25;font-family:sans-serif;letter-spacing:0px;word-spacing:0px;fill:#000000;fill-opacity:1;stroke:none;stroke-width:0.26458332"
       id="text10124">
      <path
         d="m 122.76861,100.71204 q 0.0896,0.0303 0.17363,0.12954 0.0854,0.0992 0.17087,0.27285 l 0.2825,0.56224 h -0.29903 l -0.26321,-0.52779 q -0.10197,-0.20671 -0.19843,-0.27423 -0.0951,-0.0675 -0.26045,-0.0675 h -0.30317 v 0.86955 h -0.27837 v -2.057415 h 0.62839 q 0.35278,0 0.52641,0.14745 0.17363,0.14745 0.17363,0.445105 0,0.19431 -0.091,0.32246 -0.0896,0.12816 -0.26182,0.17777 z m -0.69729,-0.86403 v 0.73036 h 0.35002 q 0.20119,0 0.30317,-0.0923 0.10335,-0.0937 0.10335,-0.27423 0,-0.18052 -0.10335,-0.271472 -0.10198,-0.09233 -0.30317,-0.09233 z"
         style="font-size:2.82222223px;stroke-width:0.26458332"
         id="path10479" />
      <path
         d="m 124.38229,100.90083 q -0.3073,0 -0.42582,0.0703 -0.11851,0.0703 -0.11851,0.23978 0,0.13505 0.0882,0.21497 0.0896,0.0785 0.24253,0.0785 0.21084,0 0.33762,-0.14883 0.12816,-0.1502 0.12816,-0.39825 v -0.0565 z m 0.50574,-0.10473 v 0.88057 h -0.25356 v -0.23427 q -0.0868,0.14056 -0.21635,0.20808 -0.12954,0.0661 -0.31695,0.0661 -0.23702,0 -0.37758,-0.13229 -0.13919,-0.13367 -0.13919,-0.35691 0,-0.26045 0.17364,-0.39275 0.17501,-0.13229 0.52089,-0.13229 h 0.35554 v -0.0248 q 0,-0.17501 -0.11576,-0.2701 -0.11437,-0.0965 -0.32246,-0.0965 -0.13229,0 -0.25769,0.0317 -0.1254,0.0317 -0.24116,0.0951 v -0.23427 q 0.13918,-0.0537 0.2701,-0.0799 0.13091,-0.0276 0.25494,-0.0276 0.33486,0 0.50022,0.17363 0.16537,0.17363 0.16537,0.52641 z"
         style="font-size:2.82222223px;stroke-width:0.26458332"
         id="path10481" />
      <path
         d="m 126.69326,100.74511 v 0.93156 h -0.25356 v -0.92329 q 0,-0.21911 -0.0854,-0.32797 -0.0854,-0.10887 -0.25631,-0.10887 -0.20533,0 -0.32384,0.13092 -0.11851,0.13091 -0.11851,0.35691 v 0.8723 h -0.25494 v -1.54341 h 0.25494 v 0.23978 q 0.0909,-0.13918 0.21359,-0.20808 0.12402,-0.0689 0.28525,-0.0689 0.26597,0 0.40239,0.16536 0.13643,0.16399 0.13643,0.48369 z"
         style="font-size:2.82222223px;stroke-width:0.26458332"
         id="path10483" />
      <path
         d="m 128.21461,100.36753 v -0.835091 h 0.25356 v 2.144231 h -0.25356 v -0.23151 q -0.0799,0.1378 -0.20257,0.20532 -0.12127,0.0661 -0.29214,0.0661 -0.27975,0 -0.45613,-0.22324 -0.17502,-0.22325 -0.17502,-0.58705 0,-0.3638 0.17502,-0.58704 0.17638,-0.22324 0.45613,-0.22324 0.17087,0 0.29214,0.0675 0.12265,0.0662 0.20257,0.20395 z m -0.86403,0.53881 q 0,0.27974 0.11438,0.4396 0.11575,0.15847 0.31695,0.15847 0.20119,0 0.31695,-0.15847 0.11575,-0.15986 0.11575,-0.4396 0,-0.27974 -0.11575,-0.43821 -0.11576,-0.15986 -0.31695,-0.15986 -0.2012,0 -0.31695,0.15986 -0.11438,0.15847 -0.11438,0.43821 z"
         style="font-size:2.82222223px;stroke-width:0.26458332"
         id="path10485" />
    </g>
    <g
       aria-label="Rand"
       style="font-style:normal;font-weight:normal;font-size:2.82222223px;line-height:1.25;font-family:sans-serif;letter-spacing:0px;word-spacing:0px;fill:#000000;fill-opacity:1;stroke:none;stroke-width:0.26458332"
       id="text10124-7">
      <path
         d="m 122.76861,126.71804 q 0.0896,0.0303 0.17363,0.12954 0.0854,0.0992 0.17087,0.27285 l 0.2825,0.56224 h -0.29903 l -0.26321,-0.52779 q -0.10197,-0.2067 -0.19843,-0.27423 -0.0951,-0.0675 -0.26045,-0.0675 h -0.30317 v 0.86954 h -0.27837 v -2.05741 h 0.62839 q 0.35278,0 0.52641,0.14745 0.17363,0.14745 0.17363,0.44511 0,0.1943 -0.091,0.32246 -0.0896,0.12815 -0.26182,0.17776 z m -0.69729,-0.86403 v 0.73036 h 0.35002 q 0.20119,0 0.30317,-0.0923 0.10335,-0.0937 0.10335,-0.27423 0,-0.18053 -0.10335,-0.27148 -0.10198,-0.0923 -0.30317,-0.0923 z"
         style="font-size:2.82222223px;stroke-width:0.26458332"
         id="path10470" />
      <path
         d="m 124.38229,126.90684 q -0.3073,0 -0.42582,0.0703 -0.11851,0.0703 -0.11851,0.23977 0,0.13505 0.0882,0.21498 0.0896,0.0785 0.24253,0.0785 0.21084,0 0.33762,-0.14883 0.12816,-0.15021 0.12816,-0.39826 v -0.0565 z m 0.50574,-0.10474 v 0.88057 h -0.25356 v -0.23427 q -0.0868,0.14056 -0.21635,0.20809 -0.12954,0.0661 -0.31695,0.0661 -0.23702,0 -0.37758,-0.13229 -0.13919,-0.13367 -0.13919,-0.35691 0,-0.26045 0.17364,-0.39274 0.17501,-0.13229 0.52089,-0.13229 h 0.35554 v -0.0248 q 0,-0.17501 -0.11576,-0.27009 -0.11437,-0.0965 -0.32246,-0.0965 -0.13229,0 -0.25769,0.0317 -0.1254,0.0317 -0.24116,0.0951 v -0.23426 q 0.13918,-0.0537 0.2701,-0.0799 0.13091,-0.0276 0.25494,-0.0276 0.33486,0 0.50022,0.17363 0.16537,0.17364 0.16537,0.52641 z"
         style="font-size:2.82222223px;stroke-width:0.26458332"
         id="path10472" />
      <path
         d="m 126.69326,126.75112 v 0.93155 h -0.25356 v -0.92329 q 0,-0.2191 -0.0854,-0.32797 -0.0854,-0.10886 -0.25631,-0.10886 -0.20533,0 -0.32384,0.13091 -0.11851,0.13091 -0.11851,0.35691 v 0.8723 h -0.25494 v -1.5434 h 0.25494 v 0.23978 q 0.0909,-0.13919 0.21359,-0.20809 0.12402,-0.0689 0.28525,-0.0689 0.26597,0 0.40239,0.16537 0.13643,0.16398 0.13643,0.48369 z"
         style="font-size:2.82222223px;stroke-width:0.26458332"
         id="path10474" />
      <path
         d="m 128.21461,126.37353 v -0.83509 h 0.25356 v 2.14423 h -0.25356 v -0.23151 q -0.0799,0.1378 -0.20257,0.20533 -0.12127,0.0661 -0.29214,0.0661 -0.27975,0 -0.45613,-0.22324 -0.17502,-0.22324 -0.17502,-0.58704 0,-0.3638 0.17502,-0.58705 0.17638,-0.22324 0.45613,-0.22324 0.17087,0 0.29214,0.0675 0.12265,0.0662 0.20257,0.20395 z m -0.86403,0.53882 q 0,0.27974 0.11438,0.43959 0.11575,0.15848 0.31695,0.15848 0.20119,0 0.31695,-0.15848 0.11575,-0.15985 0.11575,-0.43959 0,-0.27974 -0.11575,-0.43822 -0.11576,-0.15985 -0.31695,-0.15985 -0.2012,0 -0.31695,0.15985 -0.11438,0.15848 -0.11438,0.43822 z"
         style="font-size:2.82222223px;stroke-width:0.26458332"
         id="path10476" />
    </g>
    <g
       aria-label="Rand"
       style="font-style:normal;font-weight:normal;font-size:2.82222223px;line-height:1.25;font-family:sans-serif;letter-spacing:0px;word-spacing:0px;fill:#000000;fill-opacity:1;stroke:none;stroke-width:0.26458332"
       id="text10124-7-4">
      <path
         d="m 122.76861,114.14702 q 0.0896,0.0303 0.17363,0.12954 0.0854,0.0992 0.17087,0.27285 l 0.2825,0.56224 h -0.29903 l -0.26321,-0.52779 q -0.10197,-0.20671 -0.19843,-0.27423 -0.0951,-0.0675 -0.26045,-0.0675 h -0.30317 v 0.86954 h -0.27837 v -2.05741 h 0.62839 q 0.35278,0 0.52641,0.14745 0.17363,0.14745 0.17363,0.4451 0,0.19431 -0.091,0.32246 -0.0896,0.12816 -0.26182,0.17777 z m -0.69729,-0.86403 v 0.73036 h 0.35002 q 0.20119,0 0.30317,-0.0923 0.10335,-0.0937 0.10335,-0.27423 0,-0.18052 -0.10335,-0.27147 -0.10198,-0.0923 -0.30317,-0.0923 z"
         style="font-size:2.82222223px;stroke-width:0.26458332"
         id="path10461" />
      <path
         d="m 124.38229,114.33581 q -0.3073,0 -0.42582,0.0703 -0.11851,0.0703 -0.11851,0.23978 0,0.13505 0.0882,0.21498 0.0896,0.0785 0.24253,0.0785 0.21084,0 0.33762,-0.14882 0.12816,-0.15021 0.12816,-0.39826 v -0.0565 z m 0.50574,-0.10473 v 0.88057 h -0.25356 v -0.23427 q -0.0868,0.14056 -0.21635,0.20809 -0.12954,0.0661 -0.31695,0.0661 -0.23702,0 -0.37758,-0.13229 -0.13919,-0.13367 -0.13919,-0.35691 0,-0.26045 0.17364,-0.39274 0.17501,-0.13229 0.52089,-0.13229 h 0.35554 v -0.0248 q 0,-0.17501 -0.11576,-0.27009 -0.11437,-0.0965 -0.32246,-0.0965 -0.13229,0 -0.25769,0.0317 -0.1254,0.0317 -0.24116,0.0951 v -0.23426 q 0.13918,-0.0538 0.2701,-0.0799 0.13091,-0.0276 0.25494,-0.0276 0.33486,0 0.50022,0.17363 0.16537,0.17363 0.16537,0.52641 z"
         style="font-size:2.82222223px;stroke-width:0.26458332"
         id="path10463" />
      <path
         d="m 126.69326,114.18009 v 0.93156 h -0.25356 v -0.92329 q 0,-0.21911 -0.0854,-0.32797 -0.0854,-0.10887 -0.25631,-0.10887 -0.20533,0 -0.32384,0.13092 -0.11851,0.13091 -0.11851,0.35691 v 0.8723 h -0.25494 v -1.5434 h 0.25494 v 0.23977 q 0.0909,-0.13918 0.21359,-0.20808 0.12402,-0.0689 0.28525,-0.0689 0.26597,0 0.40239,0.16536 0.13643,0.16399 0.13643,0.48369 z"
         style="font-size:2.82222223px;stroke-width:0.26458332"
         id="path10465" />
      <path
         d="m 128.21461,113.80251 v -0.83509 h 0.25356 v 2.14423 h -0.25356 v -0.23151 q -0.0799,0.1378 -0.20257,0.20533 -0.12127,0.0661 -0.29214,0.0661 -0.27975,0 -0.45613,-0.22324 -0.17502,-0.22324 -0.17502,-0.58704 0,-0.36381 0.17502,-0.58705 0.17638,-0.22324 0.45613,-0.22324 0.17087,0 0.29214,0.0675 0.12265,0.0661 0.20257,0.20395 z m -0.86403,0.53882 q 0,0.27974 0.11438,0.43959 0.11575,0.15847 0.31695,0.15847 0.20119,0 0.31695,-0.15847 0.11575,-0.15985 0.11575,-0.43959 0,-0.27975 -0.11575,-0.43822 -0.11576,-0.15985 -0.31695,-0.15985 -0.2012,0 -0.31695,0.15985 -0.11438,0.15847 -0.11438,0.43822 z"
         style="font-size:2.82222223px;stroke-width:0.26458332"
         id="path10467" />
    </g>
    <g
       aria-label="Rand"
       style="font-style:normal;font-weight:normal;font-size:2.82222223px;line-height:1.25;font-family:sans-serif;letter-spacing:0px;word-spacing:0px;fill:#000000;fill-opacity:1;stroke:none;stroke-width:0.26458332"
       id="text10124-7-6">
      <path
         d="m 122.76861,139.66004 q 0.0896,0.0303 0.17363,0.12953 0.0854,0.0992 0.17087,0.27285 l 0.2825,0.56224 h -0.29903 l -0.26321,-0.52778 q -0.10197,-0.20671 -0.19843,-0.27423 -0.0951,-0.0675 -0.26045,-0.0675 h -0.30317 v 0.86954 h -0.27837 v -2.05741 h 0.62839 q 0.35278,0 0.52641,0.14745 0.17363,0.14745 0.17363,0.44511 0,0.1943 -0.091,0.32246 -0.0896,0.12816 -0.26182,0.17777 z m -0.69729,-0.86403 v 0.73036 h 0.35002 q 0.20119,0 0.30317,-0.0923 0.10335,-0.0937 0.10335,-0.27423 0,-0.18052 -0.10335,-0.27147 -0.10198,-0.0923 -0.30317,-0.0923 z"
         style="font-size:2.82222223px;stroke-width:0.26458332"
         id="path10452" />
      <path
         d="m 124.38229,139.84883 q -0.3073,0 -0.42582,0.0703 -0.11851,0.0703 -0.11851,0.23978 0,0.13505 0.0882,0.21497 0.0896,0.0785 0.24253,0.0785 0.21084,0 0.33762,-0.14883 0.12816,-0.1502 0.12816,-0.39825 v -0.0565 z m 0.50574,-0.10473 v 0.88056 h -0.25356 v -0.23426 q -0.0868,0.14056 -0.21635,0.20808 -0.12954,0.0661 -0.31695,0.0661 -0.23702,0 -0.37758,-0.13229 -0.13919,-0.13367 -0.13919,-0.35692 0,-0.26045 0.17364,-0.39274 0.17501,-0.13229 0.52089,-0.13229 h 0.35554 v -0.0248 q 0,-0.17501 -0.11576,-0.2701 -0.11437,-0.0965 -0.32246,-0.0965 -0.13229,0 -0.25769,0.0317 -0.1254,0.0317 -0.24116,0.0951 v -0.23427 q 0.13918,-0.0537 0.2701,-0.0799 0.13091,-0.0276 0.25494,-0.0276 0.33486,0 0.50022,0.17364 0.16537,0.17363 0.16537,0.52641 z"
         style="font-size:2.82222223px;stroke-width:0.26458332"
         id="path10454" />
      <path
         d="m 126.69326,139.69311 v 0.93155 h -0.25356 v -0.92328 q 0,-0.21911 -0.0854,-0.32797 -0.0854,-0.10887 -0.25631,-0.10887 -0.20533,0 -0.32384,0.13091 -0.11851,0.13092 -0.11851,0.35692 v 0.87229 h -0.25494 v -1.5434 h 0.25494 v 0.23978 q 0.0909,-0.13918 0.21359,-0.20808 0.12402,-0.0689 0.28525,-0.0689 0.26597,0 0.40239,0.16537 0.13643,0.16399 0.13643,0.48369 z"
         style="font-size:2.82222223px;stroke-width:0.26458332"
         id="path10456" />
      <path
         d="m 128.21461,139.31553 v -0.83509 h 0.25356 v 2.14422 h -0.25356 v -0.23151 q -0.0799,0.13781 -0.20257,0.20533 -0.12127,0.0661 -0.29214,0.0661 -0.27975,0 -0.45613,-0.22324 -0.17502,-0.22325 -0.17502,-0.58705 0,-0.3638 0.17502,-0.58704 0.17638,-0.22325 0.45613,-0.22325 0.17087,0 0.29214,0.0675 0.12265,0.0661 0.20257,0.20395 z m -0.86403,0.53881 q 0,0.27974 0.11438,0.4396 0.11575,0.15847 0.31695,0.15847 0.20119,0 0.31695,-0.15847 0.11575,-0.15986 0.11575,-0.4396 0,-0.27974 -0.11575,-0.43822 -0.11576,-0.15985 -0.31695,-0.15985 -0.2012,0 -0.31695,0.15985 -0.11438,0.15848 -0.11438,0.43822 z"
         style="font-size:2.82222223px;stroke-width:0.26458332"
         id="path10458" />
    </g>
    <g
       aria-label="Rand"
       style="font-style:normal;font-weight:normal;font-size:2.82222223px;line-height:1.25;font-family:sans-serif;letter-spacing:0px;word-spacing:0px;fill:#000000;fill-opacity:1;stroke:none;stroke-width:0.26458332"
       id="text10124-7-6-7">
      <path
         d="m 122.76861,152.68204 q 0.0896,0.0303 0.17363,0.12954 0.0854,0.0992 0.17087,0.27285 l 0.2825,0.56224 h -0.29903 l -0.26321,-0.52779 q -0.10197,-0.20671 -0.19843,-0.27423 -0.0951,-0.0675 -0.26045,-0.0675 h -0.30317 v 0.86954 h -0.27837 v -2.05741 h 0.62839 q 0.35278,0 0.52641,0.14745 0.17363,0.14745 0.17363,0.4451 0,0.19431 -0.091,0.32246 -0.0896,0.12816 -0.26182,0.17777 z m -0.69729,-0.86403 v 0.73036 h 0.35002 q 0.20119,0 0.30317,-0.0923 0.10335,-0.0937 0.10335,-0.27423 0,-0.18052 -0.10335,-0.27147 -0.10198,-0.0923 -0.30317,-0.0923 z"
         style="font-size:2.82222223px;stroke-width:0.26458332"
         id="path10443" />
      <path
         d="m 124.38229,152.87083 q -0.3073,0 -0.42582,0.0703 -0.11851,0.0703 -0.11851,0.23978 0,0.13505 0.0882,0.21497 0.0896,0.0786 0.24253,0.0786 0.21084,0 0.33762,-0.14883 0.12816,-0.1502 0.12816,-0.39825 v -0.0565 z m 0.50574,-0.10473 v 0.88057 h -0.25356 v -0.23427 q -0.0868,0.14056 -0.21635,0.20808 -0.12954,0.0662 -0.31695,0.0662 -0.23702,0 -0.37758,-0.13229 -0.13919,-0.13367 -0.13919,-0.35691 0,-0.26045 0.17364,-0.39274 0.17501,-0.1323 0.52089,-0.1323 h 0.35554 v -0.0248 q 0,-0.17501 -0.11576,-0.2701 -0.11437,-0.0965 -0.32246,-0.0965 -0.13229,0 -0.25769,0.0317 -0.1254,0.0317 -0.24116,0.0951 v -0.23427 q 0.13918,-0.0537 0.2701,-0.0799 0.13091,-0.0276 0.25494,-0.0276 0.33486,0 0.50022,0.17363 0.16537,0.17363 0.16537,0.52641 z"
         style="font-size:2.82222223px;stroke-width:0.26458332"
         id="path10445" />
      <path
         d="m 126.69326,152.71511 v 0.93156 h -0.25356 v -0.92329 q 0,-0.21911 -0.0854,-0.32797 -0.0854,-0.10887 -0.25631,-0.10887 -0.20533,0 -0.32384,0.13092 -0.11851,0.13091 -0.11851,0.35691 v 0.8723 h -0.25494 v -1.54341 h 0.25494 v 0.23978 q 0.0909,-0.13918 0.21359,-0.20808 0.12402,-0.0689 0.28525,-0.0689 0.26597,0 0.40239,0.16536 0.13643,0.16399 0.13643,0.48369 z"
         style="font-size:2.82222223px;stroke-width:0.26458332"
         id="path10447" />
      <path
         d="m 128.21461,152.33753 v -0.83509 h 0.25356 v 2.14423 h -0.25356 v -0.23151 q -0.0799,0.1378 -0.20257,0.20532 -0.12127,0.0662 -0.29214,0.0662 -0.27975,0 -0.45613,-0.22324 -0.17502,-0.22324 -0.17502,-0.58705 0,-0.3638 0.17502,-0.58704 0.17638,-0.22324 0.45613,-0.22324 0.17087,0 0.29214,0.0675 0.12265,0.0661 0.20257,0.20395 z m -0.86403,0.53881 q 0,0.27975 0.11438,0.4396 0.11575,0.15847 0.31695,0.15847 0.20119,0 0.31695,-0.15847 0.11575,-0.15985 0.11575,-0.4396 0,-0.27974 -0.11575,-0.43821 -0.11576,-0.15985 -0.31695,-0.15985 -0.2012,0 -0.31695,0.15985 -0.11438,0.15847 -0.11438,0.43821 z"
         style="font-size:2.82222223px;stroke-width:0.26458332"
         id="path10449" />
    </g>
    <g
       aria-label="Rand"
       style="font-style:normal;font-weight:normal;font-size:2.82222223px;line-height:1.25;font-family:sans-serif;letter-spacing:0px;word-spacing:0px;fill:#000000;fill-opacity:1;stroke:none;stroke-width:0.26458332"
       id="text10124-7-6-7-8">
      <path
         d="m 122.76861,165.62505 q 0.0896,0.0303 0.17363,0.12953 0.0854,0.0992 0.17087,0.27286 l 0.2825,0.56224 h -0.29903 l -0.26321,-0.52779 q -0.10197,-0.20671 -0.19843,-0.27423 -0.0951,-0.0675 -0.26045,-0.0675 h -0.30317 v 0.86955 h -0.27837 v -2.05742 h 0.62839 q 0.35278,0 0.52641,0.14745 0.17363,0.14746 0.17363,0.44511 0,0.1943 -0.091,0.32246 -0.0896,0.12816 -0.26182,0.17777 z m -0.69729,-0.86403 v 0.73036 h 0.35002 q 0.20119,0 0.30317,-0.0923 0.10335,-0.0937 0.10335,-0.27423 0,-0.18052 -0.10335,-0.27147 -0.10198,-0.0923 -0.30317,-0.0923 z"
         style="font-size:2.82222223px;stroke-width:0.26458332"
         id="path10434" />
      <path
         d="m 124.38229,165.81384 q -0.3073,0 -0.42582,0.0703 -0.11851,0.0703 -0.11851,0.23978 0,0.13505 0.0882,0.21497 0.0896,0.0786 0.24253,0.0786 0.21084,0 0.33762,-0.14883 0.12816,-0.1502 0.12816,-0.39825 v -0.0565 z m 0.50574,-0.10473 v 0.88057 h -0.25356 v -0.23427 q -0.0868,0.14056 -0.21635,0.20808 -0.12954,0.0661 -0.31695,0.0661 -0.23702,0 -0.37758,-0.13229 -0.13919,-0.13367 -0.13919,-0.35691 0,-0.26045 0.17364,-0.39275 0.17501,-0.13229 0.52089,-0.13229 h 0.35554 v -0.0248 q 0,-0.17501 -0.11576,-0.2701 -0.11437,-0.0965 -0.32246,-0.0965 -0.13229,0 -0.25769,0.0317 -0.1254,0.0317 -0.24116,0.0951 v -0.23427 q 0.13918,-0.0537 0.2701,-0.0799 0.13091,-0.0276 0.25494,-0.0276 0.33486,0 0.50022,0.17363 0.16537,0.17363 0.16537,0.52641 z"
         style="font-size:2.82222223px;stroke-width:0.26458332"
         id="path10436" />
      <path
         d="m 126.69326,165.65812 v 0.93156 h -0.25356 v -0.92329 q 0,-0.21911 -0.0854,-0.32797 -0.0854,-0.10887 -0.25631,-0.10887 -0.20533,0 -0.32384,0.13092 -0.11851,0.13091 -0.11851,0.35691 v 0.8723 h -0.25494 v -1.54341 h 0.25494 v 0.23978 q 0.0909,-0.13918 0.21359,-0.20808 0.12402,-0.0689 0.28525,-0.0689 0.26597,0 0.40239,0.16536 0.13643,0.16399 0.13643,0.48369 z"
         style="font-size:2.82222223px;stroke-width:0.26458332"
         id="path10438" />
      <path
         d="m 128.21461,165.28054 v -0.83509 h 0.25356 v 2.14423 h -0.25356 v -0.23151 q -0.0799,0.1378 -0.20257,0.20532 -0.12127,0.0661 -0.29214,0.0661 -0.27975,0 -0.45613,-0.22324 -0.17502,-0.22325 -0.17502,-0.58705 0,-0.3638 0.17502,-0.58704 0.17638,-0.22324 0.45613,-0.22324 0.17087,0 0.29214,0.0675 0.12265,0.0661 0.20257,0.20395 z m -0.86403,0.53881 q 0,0.27974 0.11438,0.4396 0.11575,0.15847 0.31695,0.15847 0.20119,0 0.31695,-0.15847 0.11575,-0.15986 0.11575,-0.4396 0,-0.27974 -0.11575,-0.43821 -0.11576,-0.15986 -0.31695,-0.15986 -0.2012,0 -0.31695,0.15986 -0.11438,0.15847 -0.11438,0.43821 z"
         style="font-size:2.82222223px;stroke-width:0.26458332"
         id="path10440" />
    </g>
    <g
       aria-label="Rotate all"
       style="font-style:normal;font-weight:normal;font-size:2.82222223px;line-height:1.25;font-family:sans-serif;letter-spacing:0px;word-spacing:0px;fill:#000000;fill-opacity:1;stroke:none;stroke-width:0.26458332"
       id="text10124-8">
      <path
         d="m 122.76861,87.730045 q 0.0896,0.03032 0.17363,0.129535 0.0854,0.09922 0.17087,0.272852 l 0.2825,0.56224 h -0.29903 l -0.26321,-0.527789 q -0.10197,-0.206706 -0.19843,-0.27423 -0.0951,-0.06752 -0.26045,-0.06752 h -0.30317 v 0.869542 h -0.27837 v -2.057411 h 0.62839 q 0.35278,0 0.52641,0.14745 0.17363,0.14745 0.17363,0.445106 0,0.194303 -0.091,0.322461 -0.0896,0.128158 -0.26182,0.177767 z m -0.69729,-0.86403 v 0.73036 h 0.35002 q 0.20119,0 0.30317,-0.09233 0.10335,-0.09371 0.10335,-0.27423 0,-0.180523 -0.10335,-0.271474 -0.10198,-0.09233 -0.30317,-0.09233 z"
         style="font-size:2.82222223px;stroke-width:0.26458332"
         id="path10415" />
      <path
         d="m 124.21417,87.329036 q -0.20395,0 -0.32246,0.159852 -0.11852,0.158475 -0.11852,0.43546 0,0.276986 0.11714,0.436838 0.11851,0.158475 0.32384,0.158475 0.20257,0 0.32108,-0.159853 0.11851,-0.159852 0.11851,-0.43546 0,-0.274229 -0.11851,-0.434082 -0.11851,-0.16123 -0.32108,-0.16123 z m 0,-0.214974 q 0.33073,0 0.51952,0.214974 0.18879,0.214974 0.18879,0.595312 0,0.378961 -0.18879,0.595313 -0.18879,0.214974 -0.51952,0.214974 -0.33211,0 -0.5209,-0.214974 -0.18741,-0.216352 -0.18741,-0.595313 0,-0.380338 0.18741,-0.595312 0.18879,-0.214974 0.5209,-0.214974 z"
         style="font-size:2.82222223px;stroke-width:0.26458332"
         id="path10417" />
      <path
         d="m 125.59358,86.713053 v 0.438216 h 0.52228 v 0.197059 h -0.52228 v 0.837848 q 0,0.188791 0.051,0.242534 0.0524,0.05374 0.21084,0.05374 h 0.26045 v 0.212218 h -0.26045 q -0.29352,0 -0.40514,-0.108865 -0.11162,-0.110243 -0.11162,-0.399631 v -0.837848 h -0.18604 v -0.197059 h 0.18604 v -0.438216 z"
         style="font-size:2.82222223px;stroke-width:0.26458332"
         id="path10419" />
      <path
         d="m 127.15077,87.918836 q -0.30731,0 -0.42582,0.07028 -0.11851,0.07028 -0.11851,0.239779 0,0.135047 0.0882,0.214974 0.0896,0.07855 0.24253,0.07855 0.21084,0 0.33762,-0.148828 0.12816,-0.150206 0.12816,-0.398253 v -0.0565 z m 0.50574,-0.104731 v 0.880567 h -0.25356 v -0.234267 q -0.0868,0.14056 -0.21635,0.208084 -0.12954,0.06615 -0.31695,0.06615 -0.23703,0 -0.37759,-0.132292 -0.13918,-0.13367 -0.13918,-0.356912 0,-0.260449 0.17363,-0.392741 0.17502,-0.132291 0.5209,-0.132291 h 0.35554 v -0.02481 q 0,-0.175011 -0.11576,-0.270096 -0.11438,-0.09646 -0.32246,-0.09646 -0.13229,0 -0.25769,0.03169 -0.1254,0.03169 -0.24116,0.09508 v -0.234266 q 0.13918,-0.05374 0.2701,-0.07993 0.13091,-0.02756 0.25493,-0.02756 0.33487,0 0.50023,0.173633 0.16537,0.173632 0.16537,0.52641 z"
         style="font-size:2.82222223px;stroke-width:0.26458332"
         id="path10421" />
      <path
         d="m 128.42959,86.713053 v 0.438216 h 0.52227 v 0.197059 h -0.52227 v 0.837848 q 0,0.188791 0.051,0.242534 0.0524,0.05374 0.21084,0.05374 h 0.26045 v 0.212218 h -0.26045 q -0.29352,0 -0.40514,-0.108865 -0.11162,-0.110243 -0.11162,-0.399631 v -0.837848 h -0.18604 v -0.197059 h 0.18604 v -0.438216 z"
         style="font-size:2.82222223px;stroke-width:0.26458332"
         id="path10423" />
      <path
         d="m 130.60551,87.85958 v 0.124024 h -1.16582 q 0.0165,0.261827 0.15709,0.399631 0.14194,0.136426 0.39412,0.136426 0.14608,0 0.2825,-0.03583 0.1378,-0.03583 0.27285,-0.107487 v 0.239778 q -0.13642,0.05788 -0.27974,0.08819 -0.14332,0.03032 -0.29077,0.03032 -0.36931,0 -0.58566,-0.214974 -0.21498,-0.214974 -0.21498,-0.581532 0,-0.378961 0.20395,-0.600825 0.20533,-0.223242 0.5526,-0.223242 0.31143,0 0.49196,0.201193 0.1819,0.199816 0.1819,0.544325 z m -0.25356,-0.07441 q -0.003,-0.208083 -0.11713,-0.332107 -0.113,-0.124023 -0.30042,-0.124023 -0.21221,0 -0.34037,0.119889 -0.12678,0.119889 -0.14607,0.337619 z"
         style="font-size:2.82222223px;stroke-width:0.26458332"
         id="path10425" />
      <path
         d="m 132.6202,87.918836 q -0.3073,0 -0.42581,0.07028 -0.11852,0.07028 -0.11852,0.239779 0,0.135047 0.0882,0.214974 0.0896,0.07855 0.24253,0.07855 0.21084,0 0.33762,-0.148828 0.12816,-0.150206 0.12816,-0.398253 v -0.0565 z m 0.50574,-0.104731 v 0.880567 h -0.25356 v -0.234267 q -0.0868,0.14056 -0.21635,0.208084 -0.12954,0.06615 -0.31695,0.06615 -0.23702,0 -0.37758,-0.132292 -0.13918,-0.13367 -0.13918,-0.356912 0,-0.260449 0.17363,-0.392741 0.17501,-0.132291 0.5209,-0.132291 h 0.35553 v -0.02481 q 0,-0.175011 -0.11575,-0.270096 -0.11438,-0.09646 -0.32247,-0.09646 -0.13229,0 -0.25769,0.03169 -0.1254,0.03169 -0.24116,0.09508 v -0.234266 q 0.13919,-0.05374 0.2701,-0.07993 0.13091,-0.02756 0.25494,-0.02756 0.33486,0 0.50023,0.173633 0.16536,0.173632 0.16536,0.52641 z"
         style="font-size:2.82222223px;stroke-width:0.26458332"
         id="path10427" />
      <path
         d="m 133.64822,86.550444 h 0.25356 v 2.144228 h -0.25356 z"
         style="font-size:2.82222223px;stroke-width:0.26458332"
         id="path10429" />
      <path
         d="m 134.43232,86.550444 h 0.25356 v 2.144228 h -0.25356 z"
         style="font-size:2.82222223px;stroke-width:0.26458332"
         id="path10431" />
    </g>
    <g
       aria-label="X"
       style="font-style:normal;font-weight:normal;font-size:2.82222223px;line-height:1.25;font-family:sans-serif;letter-spacing:0px;word-spacing:0px;fill:#000000;fill-opacity:1;stroke:none;stroke-width:0.26458332"
       id="text10124-3"
       transform="translate(1.5875)">
      <path
         d="m 155.93428,99.253983 h 0.29904 l 0.51125,0.764807 0.51401,-0.764807 h 0.29903 l -0.66146,0.988057 0.70556,1.06935 h -0.29904 l -0.57877,-0.87505 -0.58291,0.87505 h -0.30041 l 0.73449,-1.09829 z"
         style="font-size:2.82222223px;stroke-width:0.26458332"
         id="path10412"
         inkscape:connector-curvature="0" />
    </g>
    <g
       aria-label="Speed"
       style="font-style:normal;font-weight:normal;font-size:2.82222223px;line-height:1.25;font-family:sans-serif;letter-spacing:0px;word-spacing:0px;fill:#000000;fill-opacity:1;stroke:none;stroke-width:0.26458332"
       id="text10124-7-2"
       transform="translate(1.5875)">
      <path
         d="m 157.26685,125.32751 v 0.27147 q -0.15848,-0.0758 -0.29904,-0.11299 -0.14056,-0.0372 -0.27147,-0.0372 -0.22738,0 -0.3514,0.0882 -0.12265,0.0882 -0.12265,0.25081 0,0.13642 0.0813,0.2067 0.0827,0.0689 0.31143,0.11162 l 0.16812,0.0345 q 0.31144,0.0593 0.45889,0.20947 0.14883,0.14882 0.14883,0.39963 0,0.29903 -0.20119,0.45337 -0.19982,0.15434 -0.58705,0.15434 -0.14607,0 -0.31144,-0.0331 -0.16398,-0.0331 -0.34037,-0.0978 v -0.28663 q 0.1695,0.0951 0.33211,0.14331 0.1626,0.0482 0.3197,0.0482 0.2384,0 0.36794,-0.0937 0.12953,-0.0937 0.12953,-0.26734 0,-0.15159 -0.0937,-0.23703 -0.0923,-0.0854 -0.30455,-0.12815 l -0.1695,-0.0331 q -0.31144,-0.062 -0.45062,-0.1943 -0.13918,-0.13229 -0.13918,-0.36794 0,-0.27285 0.19155,-0.42994 0.19292,-0.1571 0.53054,-0.1571 0.1447,0 0.2949,0.0262 0.15021,0.0262 0.30731,0.0786 z"
         style="font-size:2.82222223px;stroke-width:0.26458332"
         id="path10401"
         inkscape:connector-curvature="0" />
      <path
         d="m 158.05922,127.08589 v 0.81855 h -0.25494 V 125.774 h 0.25494 v 0.23426 q 0.0799,-0.1378 0.20119,-0.20395 0.12265,-0.0675 0.29215,-0.0675 0.28111,0 0.45613,0.22324 0.17638,0.22324 0.17638,0.58704 0,0.36381 -0.17638,0.58705 -0.17502,0.22324 -0.45613,0.22324 -0.1695,0 -0.29215,-0.0661 -0.12127,-0.0675 -0.20119,-0.20533 z m 0.86265,-0.53882 q 0,-0.27974 -0.11576,-0.43821 -0.11437,-0.15985 -0.31557,-0.15985 -0.20119,0 -0.31695,0.15985 -0.11437,0.15847 -0.11437,0.43821 0,0.27975 0.11437,0.4396 0.11576,0.15847 0.31695,0.15847 0.2012,0 0.31557,-0.15847 0.11576,-0.15985 0.11576,-0.4396 z"
         style="font-size:2.82222223px;stroke-width:0.26458332"
         id="path10403"
         inkscape:connector-curvature="0" />
      <path
         d="m 160.92554,126.48231 v 0.12402 h -1.16582 q 0.0165,0.26183 0.15709,0.39963 0.14194,0.13643 0.39412,0.13643 0.14607,0 0.2825,-0.0358 0.1378,-0.0358 0.27285,-0.10749 v 0.23978 q -0.13642,0.0579 -0.27974,0.0882 -0.14332,0.0303 -0.29077,0.0303 -0.36931,0 -0.58566,-0.21497 -0.21498,-0.21498 -0.21498,-0.58153 0,-0.37897 0.20395,-0.60083 0.20533,-0.22324 0.5526,-0.22324 0.31143,0 0.49196,0.20119 0.1819,0.19982 0.1819,0.54433 z m -0.25356,-0.0744 q -0.003,-0.20808 -0.11714,-0.3321 -0.11299,-0.12403 -0.30041,-0.12403 -0.21222,0 -0.34037,0.11989 -0.12678,0.11989 -0.14608,0.33762 z"
         style="font-size:2.82222223px;stroke-width:0.26458332"
         id="path10405"
         inkscape:connector-curvature="0" />
      <path
         d="m 162.66186,126.48231 v 0.12402 h -1.16582 q 0.0165,0.26183 0.1571,0.39963 0.14194,0.13643 0.39412,0.13643 0.14607,0 0.2825,-0.0358 0.1378,-0.0358 0.27285,-0.10749 v 0.23978 q -0.13643,0.0579 -0.27974,0.0882 -0.14332,0.0303 -0.29077,0.0303 -0.36931,0 -0.58567,-0.21497 -0.21497,-0.21498 -0.21497,-0.58153 0,-0.37897 0.20395,-0.60083 0.20533,-0.22324 0.55259,-0.22324 0.31144,0 0.49196,0.20119 0.1819,0.19982 0.1819,0.54433 z m -0.25355,-0.0744 q -0.003,-0.20808 -0.11714,-0.3321 -0.113,-0.12403 -0.30041,-0.12403 -0.21222,0 -0.34038,0.11989 -0.12677,0.11989 -0.14607,0.33762 z"
         style="font-size:2.82222223px;stroke-width:0.26458332"
         id="path10407"
         inkscape:connector-curvature="0" />
      <path
         d="m 164.09365,126.00826 v -0.83509 h 0.25356 v 2.14423 h -0.25356 v -0.23151 q -0.0799,0.1378 -0.20258,0.20533 -0.12126,0.0661 -0.29214,0.0661 -0.27974,0 -0.45613,-0.22324 -0.17501,-0.22324 -0.17501,-0.58705 0,-0.3638 0.17501,-0.58704 0.17639,-0.22324 0.45613,-0.22324 0.17088,0 0.29214,0.0675 0.12265,0.0661 0.20258,0.20395 z m -0.86403,0.53881 q 0,0.27975 0.11437,0.4396 0.11576,0.15847 0.31695,0.15847 0.2012,0 0.31695,-0.15847 0.11576,-0.15985 0.11576,-0.4396 0,-0.27974 -0.11576,-0.43821 -0.11575,-0.15985 -0.31695,-0.15985 -0.20119,0 -0.31695,0.15985 -0.11437,0.15847 -0.11437,0.43821 z"
         style="font-size:2.82222223px;stroke-width:0.26458332"
         id="path10409"
         inkscape:connector-curvature="0" />
    </g>
    <g
       aria-label="Y"
       style="font-style:normal;font-weight:normal;font-size:2.82222223px;line-height:1.25;font-family:sans-serif;letter-spacing:0px;word-spacing:0px;fill:#000000;fill-opacity:1;stroke:none;stroke-width:0.26458332"
       id="text10124-7-4-4"
       transform="translate(1.5875)">
      <path
         d="m 155.751,112.68896 h 0.29904 l 0.57051,0.84611 0.56637,-0.84611 h 0.29903 l -0.7276,1.07762 v 0.97979 h -0.27974 v -0.97979 z"
         style="font-size:2.82222223px;stroke-width:0.26458332"
         id="path10398"
         inkscape:connector-curvature="0" />
    </g>
    <g
       aria-label="Red"
       style="font-style:normal;font-weight:normal;font-size:2.82222223px;line-height:1.25;font-family:sans-serif;letter-spacing:0px;word-spacing:0px;fill:#000000;fill-opacity:1;stroke:none;stroke-width:0.26458332"
       id="text10124-7-6-2"
       transform="translate(1.5875)">
      <path
         d="m 157.00915,139.29476 q 0.0896,0.0303 0.17364,0.12953 0.0854,0.0992 0.17087,0.27285 l 0.2825,0.56224 h -0.29903 l -0.26321,-0.52778 q -0.10197,-0.20671 -0.19844,-0.27423 -0.0951,-0.0675 -0.26045,-0.0675 h -0.30317 v 0.86954 H 156.0335 V 138.202 h 0.62839 q 0.35277,0 0.52641,0.14745 0.17363,0.14745 0.17363,0.44511 0,0.1943 -0.0909,0.32246 -0.0896,0.12816 -0.26183,0.17777 z m -0.69729,-0.86403 v 0.73036 h 0.35003 q 0.20119,0 0.30317,-0.0923 0.10335,-0.0937 0.10335,-0.27423 0,-0.18052 -0.10335,-0.27147 -0.10198,-0.0923 -0.30317,-0.0923 z"
         style="font-size:2.82222223px;stroke-width:0.26458332"
         id="path10391"
         inkscape:connector-curvature="0" />
      <path
         d="m 159.17681,139.42429 v 0.12403 h -1.16582 q 0.0165,0.26182 0.15709,0.39963 0.14194,0.13642 0.39412,0.13642 0.14607,0 0.2825,-0.0358 0.1378,-0.0358 0.27285,-0.10748 v 0.23978 q -0.13643,0.0579 -0.27974,0.0882 -0.14332,0.0303 -0.29077,0.0303 -0.36931,0 -0.58566,-0.21498 -0.21498,-0.21497 -0.21498,-0.58153 0,-0.37896 0.20395,-0.60082 0.20533,-0.22325 0.5526,-0.22325 0.31143,0 0.49196,0.2012 0.1819,0.19981 0.1819,0.54432 z m -0.25356,-0.0744 q -0.003,-0.20808 -0.11714,-0.33211 -0.113,-0.12402 -0.30041,-0.12402 -0.21222,0 -0.34037,0.11989 -0.12678,0.11989 -0.14608,0.33762 z"
         style="font-size:2.82222223px;stroke-width:0.26458332"
         id="path10393"
         inkscape:connector-curvature="0" />
      <path
         d="m 160.60859,138.95025 v -0.83509 h 0.25356 v 2.14422 h -0.25356 v -0.23151 q -0.0799,0.13781 -0.20257,0.20533 -0.12127,0.0661 -0.29215,0.0661 -0.27974,0 -0.45613,-0.22324 -0.17501,-0.22325 -0.17501,-0.58705 0,-0.3638 0.17501,-0.58704 0.17639,-0.22325 0.45613,-0.22325 0.17088,0 0.29215,0.0675 0.12264,0.0661 0.20257,0.20395 z m -0.86403,0.53881 q 0,0.27974 0.11438,0.43959 0.11575,0.15848 0.31694,0.15848 0.2012,0 0.31695,-0.15848 0.11576,-0.15985 0.11576,-0.43959 0,-0.27974 -0.11576,-0.43822 -0.11575,-0.15985 -0.31695,-0.15985 -0.20119,0 -0.31694,0.15985 -0.11438,0.15848 -0.11438,0.43822 z"
         style="font-size:2.82222223px;stroke-width:0.26458332"
         id="path10395"
         inkscape:connector-curvature="0" />
    </g>
    <g
       aria-label="Green"
       style="font-style:normal;font-weight:normal;font-size:2.82222223px;line-height:1.25;font-family:sans-serif;letter-spacing:0px;word-spacing:0px;fill:#000000;fill-opacity:1;stroke:none;stroke-width:0.26458332"
       id="text10124-7-6-7-2"
       transform="translate(1.5875)">
      <path
         d="m 157.43634,152.98788 v -0.55259 h -0.45475 v -0.22876 h 0.73036 v 0.88333 q -0.16123,0.11437 -0.35553,0.17363 -0.19431,0.0579 -0.41479,0.0579 -0.48232,0 -0.75517,-0.28112 -0.27147,-0.2825 -0.27147,-0.78549 0,-0.50436 0.27147,-0.78548 0.27285,-0.2825 0.75517,-0.2825 0.20119,0 0.38171,0.0496 0.18191,0.0496 0.33487,0.14608 v 0.29627 q -0.15434,-0.13091 -0.32797,-0.19706 -0.17364,-0.0661 -0.36518,-0.0661 -0.37759,0 -0.56776,0.21084 -0.18879,0.21084 -0.18879,0.62838 0,0.41617 0.18879,0.62701 0.19017,0.21084 0.56776,0.21084 0.14745,0 0.2632,-0.0248 0.11576,-0.0262 0.20808,-0.0799 z"
         style="font-size:2.82222223px;stroke-width:0.26458332"
         id="path10380"
         inkscape:connector-curvature="0" />
      <path
         d="m 159.10377,151.97502 q -0.0427,-0.0248 -0.0937,-0.0358 -0.0496,-0.0124 -0.11024,-0.0124 -0.21497,0 -0.33073,0.14056 -0.11438,0.13918 -0.11438,0.40101 v 0.81304 h -0.25493 v -1.5434 h 0.25493 v 0.23978 q 0.0799,-0.14056 0.20809,-0.20809 0.12816,-0.0689 0.31143,-0.0689 0.0262,0 0.0579,0.004 0.0317,0.003 0.0703,0.01 z"
         style="font-size:2.82222223px;stroke-width:0.26458332"
         id="path10382"
         inkscape:connector-curvature="0" />
      <path
         d="m 160.62788,152.44631 v 0.12402 h -1.16582 q 0.0165,0.26183 0.1571,0.39964 0.14193,0.13642 0.39412,0.13642 0.14607,0 0.28249,-0.0358 0.13781,-0.0358 0.27285,-0.10748 v 0.23977 q -0.13642,0.0579 -0.27974,0.0882 -0.14331,0.0303 -0.29076,0.0303 -0.36932,0 -0.58567,-0.21498 -0.21497,-0.21497 -0.21497,-0.58153 0,-0.37896 0.20395,-0.60083 0.20532,-0.22324 0.55259,-0.22324 0.31144,0 0.49196,0.2012 0.1819,0.19981 0.1819,0.54432 z m -0.25356,-0.0744 q -0.003,-0.20809 -0.11713,-0.33211 -0.113,-0.12402 -0.30041,-0.12402 -0.21222,0 -0.34038,0.11989 -0.12678,0.11989 -0.14607,0.33762 z"
         style="font-size:2.82222223px;stroke-width:0.26458332"
         id="path10384"
         inkscape:connector-curvature="0" />
      <path
         d="m 162.36421,152.44631 v 0.12402 h -1.16582 q 0.0165,0.26183 0.15709,0.39964 0.14194,0.13642 0.39412,0.13642 0.14608,0 0.2825,-0.0358 0.13781,-0.0358 0.27285,-0.10748 v 0.23977 q -0.13642,0.0579 -0.27974,0.0882 -0.14331,0.0303 -0.29076,0.0303 -0.36932,0 -0.58567,-0.21498 -0.21498,-0.21497 -0.21498,-0.58153 0,-0.37896 0.20395,-0.60083 0.20533,-0.22324 0.5526,-0.22324 0.31143,0 0.49196,0.2012 0.1819,0.19981 0.1819,0.54432 z m -0.25356,-0.0744 q -0.003,-0.20809 -0.11713,-0.33211 -0.113,-0.12402 -0.30042,-0.12402 -0.21221,0 -0.34037,0.11989 -0.12678,0.11989 -0.14607,0.33762 z"
         style="font-size:2.82222223px;stroke-width:0.26458332"
         id="path10386"
         inkscape:connector-curvature="0" />
      <path
         d="m 164.06333,152.34985 v 0.93155 h -0.25356 v -0.92328 q 0,-0.21911 -0.0854,-0.32798 -0.0854,-0.10886 -0.25631,-0.10886 -0.20533,0 -0.32384,0.13091 -0.11851,0.13092 -0.11851,0.35691 v 0.8723 h -0.25494 v -1.5434 h 0.25494 v 0.23978 q 0.091,-0.13918 0.21359,-0.20809 0.12403,-0.0689 0.28526,-0.0689 0.26596,0 0.40238,0.16537 0.13643,0.16398 0.13643,0.48369 z"
         style="font-size:2.82222223px;stroke-width:0.26458332"
         id="path10388"
         inkscape:connector-curvature="0" />
    </g>
    <g
       aria-label="Blue"
       style="font-style:normal;font-weight:normal;font-size:2.82222223px;line-height:1.25;font-family:sans-serif;letter-spacing:0px;word-spacing:0px;fill:#000000;fill-opacity:1;stroke:none;stroke-width:0.26458332"
       id="text10124-7-6-7-8-0"
       transform="translate(1.5875)">
      <path
         d="m 156.31186,165.24187 v 0.75379 h 0.44649 q 0.22462,0 0.33211,-0.0923 0.10886,-0.0937 0.10886,-0.28526 0,-0.19292 -0.10886,-0.28387 -0.10749,-0.0923 -0.33211,-0.0923 z m 0,-0.84612 v 0.62012 h 0.41204 q 0.20395,0 0.30317,-0.0758 0.10059,-0.0772 0.10059,-0.23427 0,-0.15572 -0.10059,-0.23289 -0.0992,-0.0772 -0.30317,-0.0772 z M 156.0335,164.167 h 0.71107 q 0.31833,0 0.49058,0.13229 0.17226,0.13229 0.17226,0.37621 0,0.18879 -0.0882,0.30041 -0.0882,0.11162 -0.25907,0.13918 0.20533,0.0441 0.31833,0.18466 0.11437,0.13918 0.11437,0.34864 0,0.27561 -0.18741,0.42581 -0.18741,0.15021 -0.5333,0.15021 h -0.73863 z"
         style="font-size:2.82222223px;stroke-width:0.26458332"
         id="path10371"
         inkscape:connector-curvature="0" />
      <path
         d="m 157.95862,164.08018 h 0.25356 v 2.14423 h -0.25356 z"
         style="font-size:2.82222223px;stroke-width:0.26458332"
         id="path10373"
         inkscape:connector-curvature="0" />
      <path
         d="m 158.71654,165.61532 v -0.93431 h 0.25356 v 0.92466 q 0,0.21911 0.0854,0.32935 0.0854,0.10887 0.25631,0.10887 0.20533,0 0.32384,-0.13092 0.11989,-0.13091 0.11989,-0.35691 v -0.87505 h 0.25356 v 1.5434 h -0.25356 v -0.23702 q -0.0923,0.14056 -0.21497,0.20946 -0.12127,0.0675 -0.2825,0.0675 -0.26596,0 -0.40376,-0.16536 -0.13781,-0.16537 -0.13781,-0.48369 z m 0.63803,-0.97152 z"
         style="font-size:2.82222223px;stroke-width:0.26458332"
         id="path10375"
         inkscape:connector-curvature="0" />
      <path
         d="m 161.85158,165.38932 v 0.12402 h -1.16582 q 0.0165,0.26183 0.15709,0.39963 0.14194,0.13643 0.39412,0.13643 0.14608,0 0.2825,-0.0358 0.1378,-0.0358 0.27285,-0.10749 v 0.23978 q -0.13642,0.0579 -0.27974,0.0882 -0.14332,0.0303 -0.29077,0.0303 -0.36931,0 -0.58566,-0.21497 -0.21498,-0.21497 -0.21498,-0.58153 0,-0.37896 0.20395,-0.60083 0.20533,-0.22324 0.5526,-0.22324 0.31143,0 0.49196,0.20119 0.1819,0.19982 0.1819,0.54433 z m -0.25356,-0.0744 q -0.003,-0.20809 -0.11713,-0.33211 -0.113,-0.12402 -0.30042,-0.12402 -0.21221,0 -0.34037,0.11988 -0.12678,0.11989 -0.14607,0.33762 z"
         style="font-size:2.82222223px;stroke-width:0.26458332"
         id="path10377"
         inkscape:connector-curvature="0" />
    </g>
    <g
       aria-label="Angle"
       style="font-style:normal;font-weight:normal;font-size:2.82222223px;line-height:1.25;font-family:sans-serif;letter-spacing:0px;word-spacing:0px;fill:#000000;fill-opacity:1;stroke:none;stroke-width:0.26458332"
       id="text10124-8-9"
       transform="translate(1.5875)" />
    <g
       aria-label="ColoredGlass"
       style="font-style:normal;font-weight:normal;font-size:2.11666656px;line-height:1.25;font-family:sans-serif;letter-spacing:0px;word-spacing:0px;fill:#7a7a7a;fill-opacity:1;stroke:none;stroke-width:0.26458332"
       id="text10508"
       transform="matrix(1.3515339,0,0,1.3515339,-48.612475,-25.754809)">
      <path
         d="m 89.135412,78.719139 q -0.146072,0.07579 -0.304547,0.114377 -0.158474,0.03858 -0.330729,0.03858 -0.514008,0 -0.81442,-0.286632 -0.300413,-0.28801 -0.300413,-0.779969 0,-0.493338 0.300413,-0.77997 0.300412,-0.28801 0.81442,-0.28801 0.172255,0 0.330729,0.03858 0.158475,0.03858 0.304547,0.114377 v 0.425814 q -0.14745,-0.100597 -0.290766,-0.14745 -0.143316,-0.04685 -0.301791,-0.04685 -0.283876,0 -0.446484,0.181901 -0.162609,0.181901 -0.162609,0.501606 0,0.318326 0.162609,0.500227 0.162608,0.181902 0.446484,0.181902 0.158475,0 0.301791,-0.04685 0.143316,-0.04685 0.290766,-0.14745 z"
         style="font-style:normal;font-variant:normal;font-weight:bold;font-stretch:normal;font-size:2.82222223px;font-family:sans-serif;-inkscape-font-specification:'sans-serif Bold';fill:#7a7a7a;fill-opacity:1;stroke-width:0.26458332"
         id="path10542"
         inkscape:connector-curvature="0" />
      <path
         d="m 90.287452,77.604306 q -0.163987,0 -0.250803,0.118511 -0.08544,0.117134 -0.08544,0.338998 0,0.221864 0.08544,0.340375 0.08682,0.117133 0.250803,0.117133 0.16123,0 0.246668,-0.117133 0.08544,-0.118511 0.08544,-0.340375 0,-0.221864 -0.08544,-0.338998 -0.08544,-0.118511 -0.246668,-0.118511 z m 0,-0.352778 q 0.398253,0 0.621495,0.214974 0.22462,0.214974 0.22462,0.595313 0,0.380338 -0.22462,0.595312 -0.223242,0.214974 -0.621495,0.214974 -0.399631,0 -0.62563,-0.214974 -0.22462,-0.214974 -0.22462,-0.595312 0,-0.380339 0.22462,-0.595313 0.225999,-0.214974 0.62563,-0.214974 z"
         style="fill:#7a7a7a;fill-opacity:1"
         id="path10544"
         inkscape:connector-curvature="0" />
      <path
         d="m 91.491857,76.687911 h 0.493337 v 2.144227 h -0.493337 z"
         style="fill:#7a7a7a;fill-opacity:1"
         id="path10546"
         inkscape:connector-curvature="0" />
      <path
         d="m 93.193734,77.604306 q -0.163987,0 -0.250803,0.118511 -0.08544,0.117134 -0.08544,0.338998 0,0.221864 0.08544,0.340375 0.08682,0.117133 0.250803,0.117133 0.16123,0 0.246669,-0.117133 0.08544,-0.118511 0.08544,-0.340375 0,-0.221864 -0.08544,-0.338998 -0.08544,-0.118511 -0.246669,-0.118511 z m 0,-0.352778 q 0.398253,0 0.621495,0.214974 0.22462,0.214974 0.22462,0.595313 0,0.380338 -0.22462,0.595312 -0.223242,0.214974 -0.621495,0.214974 -0.399631,0 -0.625629,-0.214974 -0.224621,-0.214974 -0.224621,-0.595312 0,-0.380339 0.224621,-0.595313 0.225998,-0.214974 0.625629,-0.214974 z"
         style="fill:#7a7a7a;fill-opacity:1"
         id="path10548"
         inkscape:connector-curvature="0" />
      <path
         d="m 95.544667,77.709037 q -0.06477,-0.03032 -0.129535,-0.0441 -0.06339,-0.01516 -0.128158,-0.01516 -0.190169,0 -0.293522,0.122646 -0.101975,0.121267 -0.101975,0.348643 v 0.711068 H 94.39814 v -1.543403 h 0.493337 v 0.253559 q 0.09509,-0.151584 0.21773,-0.220486 0.124024,-0.07028 0.296279,-0.07028 0.0248,0 0.05374,0.0028 0.02894,0.0014 0.08406,0.0083 z"
         style="font-style:normal;font-variant:normal;font-weight:bold;font-stretch:normal;font-size:2.82222223px;font-family:sans-serif;-inkscape-font-specification:'sans-serif Bold';fill:#7a7a7a;fill-opacity:1;stroke-width:0.26458332"
         id="path10550"
         inkscape:connector-curvature="0" />
      <path
         d="m 97.330605,78.056303 v 0.140559 h -1.153418 q 0.01791,0.173633 0.125401,0.26045 0.107487,0.08682 0.300413,0.08682 0.155718,0 0.318327,-0.04547 0.163986,-0.04685 0.336241,-0.14056 v 0.380338 q -0.175011,0.06615 -0.350022,0.09922 -0.175011,0.03445 -0.350022,0.03445 -0.418923,0 -0.651812,-0.212218 -0.23151,-0.213596 -0.23151,-0.598068 0,-0.377583 0.227376,-0.593935 0.228755,-0.216352 0.628386,-0.216352 0.363802,0 0.581532,0.219108 0.219108,0.219108 0.219108,0.585667 z m -0.507118,-0.163987 q 0,-0.14056 -0.08268,-0.225998 -0.08131,-0.08682 -0.213596,-0.08682 -0.143316,0 -0.232889,0.08131 -0.08957,0.07993 -0.111621,0.23151 z"
         style="font-style:normal;font-variant:normal;font-weight:bold;font-stretch:normal;font-size:2.82222223px;font-family:sans-serif;-inkscape-font-specification:'sans-serif Bold';fill:#7a7a7a;fill-opacity:1;stroke-width:0.26458332"
         id="path10552"
         inkscape:connector-curvature="0" />
      <path
         d="m 98.754118,77.514734 v -0.826823 h 0.496094 v 2.144227 h -0.496094 v -0.223242 q -0.101975,0.136426 -0.22462,0.199815 -0.122645,0.06339 -0.283876,0.06339 -0.285254,0 -0.468533,-0.225998 -0.183279,-0.227376 -0.183279,-0.584288 0,-0.356912 0.183279,-0.58291 0.183279,-0.227377 0.468533,-0.227377 0.159853,0 0.282498,0.06477 0.124023,0.06339 0.225998,0.198438 z m -0.325217,0.999077 q 0.158475,0 0.241157,-0.115755 0.08406,-0.115755 0.08406,-0.336241 0,-0.220486 -0.08406,-0.336242 -0.08268,-0.115755 -0.241157,-0.115755 -0.157096,0 -0.241156,0.115755 -0.08268,0.115756 -0.08268,0.336242 0,0.220486 0.08268,0.336241 0.08406,0.115755 0.241156,0.115755 z"
         style="font-style:normal;font-variant:normal;font-weight:bold;font-stretch:normal;font-size:2.82222223px;font-family:sans-serif;-inkscape-font-specification:'sans-serif Bold';fill:#7a7a7a;fill-opacity:1;stroke-width:0.26458332"
         id="path10554"
         inkscape:connector-curvature="0" />
      <path
         d="m 101.59563,78.679176 q -0.19843,0.09646 -0.41203,0.144694 -0.2136,0.04823 -0.44097,0.04823 -0.51401,0 -0.814424,-0.286632 -0.300412,-0.28801 -0.300412,-0.779969 0,-0.497472 0.305924,-0.782726 0.305922,-0.285254 0.837852,-0.285254 0.20532,0 0.39274,0.03858 0.18879,0.03858 0.35553,0.114377 v 0.425814 q -0.17225,-0.09784 -0.34313,-0.146072 -0.1695,-0.04823 -0.34038,-0.04823 -0.31695,0 -0.4892,0.177767 -0.17088,0.176388 -0.17088,0.50574 0,0.326595 0.16537,0.504362 0.16536,0.177767 0.46991,0.177767 0.0827,0 0.15296,-0.0096 0.0717,-0.01102 0.12816,-0.03307 v -0.399631 h -0.32384 v -0.355534 h 0.82682 z"
         style="font-style:normal;font-variant:normal;font-weight:bold;font-stretch:normal;font-size:2.82222223px;font-family:sans-serif;-inkscape-font-specification:'sans-serif Bold';fill:#7a7a7a;fill-opacity:1;stroke-width:0.26458332"
         id="path10556"
         inkscape:connector-curvature="0" />
      <path
         d="m 102.04074,76.687911 h 0.49334 v 2.144227 h -0.49334 z"
         style="font-style:normal;font-variant:normal;font-weight:bold;font-stretch:normal;font-size:2.82222223px;font-family:sans-serif;-inkscape-font-specification:'sans-serif Bold';fill:#7a7a7a;fill-opacity:1;stroke-width:0.26458332"
         id="path10558"
         inkscape:connector-curvature="0" />
      <path
         d="m 103.6999,78.137607 q -0.15434,0 -0.23289,0.05236 -0.0772,0.05237 -0.0772,0.154341 0,0.09371 0.062,0.14745 0.0634,0.05236 0.17501,0.05236 0.13918,0 0.23427,-0.09922 0.0951,-0.100596 0.0951,-0.250803 v -0.0565 z m 0.75378,-0.186035 v 0.880566 h -0.49747 v -0.228754 q -0.0992,0.14056 -0.22324,0.205327 -0.12402,0.06339 -0.30179,0.06339 -0.23978,0 -0.38998,-0.139182 -0.14883,-0.14056 -0.14883,-0.363802 0,-0.271473 0.18603,-0.398253 0.18742,-0.126779 0.58705,-0.126779 h 0.29076 V 77.8055 q 0,-0.117134 -0.0923,-0.170877 -0.0923,-0.05512 -0.28801,-0.05512 -0.15847,0 -0.2949,0.0317 -0.13642,0.03169 -0.25355,0.09508 v -0.376205 q 0.15847,-0.03859 0.31832,-0.05788 0.15985,-0.02067 0.31971,-0.02067 0.41754,0 0.6022,0.165365 0.18603,0.163986 0.18603,0.534679 z"
         style="font-style:normal;font-variant:normal;font-weight:bold;font-stretch:normal;font-size:2.82222223px;font-family:sans-serif;-inkscape-font-specification:'sans-serif Bold';fill:#7a7a7a;fill-opacity:1;stroke-width:0.26458332"
         id="path10560"
         inkscape:connector-curvature="0" />
      <path
         d="m 106.11835,77.336967 v 0.374826 q -0.15847,-0.06615 -0.30592,-0.09922 -0.14745,-0.03307 -0.27836,-0.03307 -0.14056,0 -0.20947,0.03583 -0.0675,0.03445 -0.0675,0.107487 0,0.05926 0.051,0.09095 0.0524,0.03169 0.18603,0.04685 l 0.0868,0.0124 q 0.37896,0.04823 0.50987,0.158475 0.13092,0.110243 0.13092,0.345887 0,0.246669 -0.1819,0.370693 -0.1819,0.124023 -0.54295,0.124023 -0.15296,0 -0.31695,-0.02481 -0.16261,-0.02343 -0.33486,-0.07166 v -0.374826 q 0.14745,0.07166 0.30179,0.107487 0.15572,0.03583 0.31557,0.03583 0.14469,0 0.21773,-0.03996 0.073,-0.03996 0.073,-0.118511 0,-0.06615 -0.051,-0.09784 -0.0496,-0.03307 -0.19982,-0.05099 l -0.0868,-0.01102 q -0.32936,-0.04134 -0.46165,-0.152962 -0.13229,-0.111621 -0.13229,-0.338997 0,-0.245291 0.16812,-0.363802 0.16812,-0.118512 0.51539,-0.118512 0.13642,0 0.28663,0.02067 0.15021,0.02067 0.32659,0.06477 z"
         style="font-style:normal;font-variant:normal;font-weight:bold;font-stretch:normal;font-size:2.82222223px;font-family:sans-serif;-inkscape-font-specification:'sans-serif Bold';fill:#7a7a7a;fill-opacity:1;stroke-width:0.26458332"
         id="path10562"
         inkscape:connector-curvature="0" />
      <path
         d="m 107.79818,77.336967 v 0.374826 q -0.15847,-0.06615 -0.30592,-0.09922 -0.14745,-0.03307 -0.27837,-0.03307 -0.14055,0 -0.20946,0.03583 -0.0675,0.03445 -0.0675,0.107487 0,0.05926 0.051,0.09095 0.0524,0.03169 0.18603,0.04685 l 0.0868,0.0124 q 0.37896,0.04823 0.50987,0.158475 0.13092,0.110243 0.13092,0.345887 0,0.246669 -0.1819,0.370693 -0.18191,0.124023 -0.54295,0.124023 -0.15296,0 -0.31695,-0.02481 -0.16261,-0.02343 -0.33486,-0.07166 v -0.374826 q 0.14745,0.07166 0.30179,0.107487 0.15571,0.03583 0.31557,0.03583 0.14469,0 0.21773,-0.03996 0.073,-0.03996 0.073,-0.118511 0,-0.06615 -0.051,-0.09784 -0.0496,-0.03307 -0.19982,-0.05099 l -0.0868,-0.01102 q -0.32935,-0.04134 -0.46164,-0.152962 -0.13229,-0.111621 -0.13229,-0.338997 0,-0.245291 0.16812,-0.363802 0.16812,-0.118512 0.51539,-0.118512 0.13642,0 0.28663,0.02067 0.1502,0.02067 0.32659,0.06477 z"
         style="font-style:normal;font-variant:normal;font-weight:bold;font-stretch:normal;font-size:2.82222223px;font-family:sans-serif;-inkscape-font-specification:'sans-serif Bold';fill:#7a7a7a;fill-opacity:1;stroke-width:0.26458332"
         id="path10564"
         inkscape:connector-curvature="0" />
    </g>
    <g
       aria-label="Rot. speed"
       style="font-style:normal;font-weight:normal;font-size:2.11666656px;line-height:1.25;font-family:sans-serif;letter-spacing:0px;word-spacing:0px;fill:#000000;fill-opacity:1;stroke:none;stroke-width:0.26458332"
       id="text10569">
      <path
         d="m 158.35447,87.368885 q 0.0896,0.03032 0.17364,0.129535 0.0854,0.09922 0.17087,0.272852 l 0.2825,0.562239 h -0.29903 l -0.26321,-0.527788 q -0.10197,-0.206706 -0.19844,-0.27423 -0.0951,-0.06752 -0.26045,-0.06752 h -0.30316 v 0.869542 h -0.27837 V 86.2761 h 0.62839 q 0.35278,0 0.52641,0.14745 0.17363,0.14745 0.17363,0.445107 0,0.194303 -0.0909,0.322461 -0.0896,0.128157 -0.26183,0.177767 z m -0.69728,-0.86403 v 0.73036 h 0.35002 q 0.20119,0 0.30317,-0.09233 0.10335,-0.09371 0.10335,-0.274229 0,-0.180523 -0.10335,-0.271474 -0.10198,-0.09233 -0.30317,-0.09233 z"
         style="font-size:2.82222223px;stroke-width:0.26458332"
         id="path10571" />
      <path
         d="m 159.80004,86.967875 q -0.20395,0 -0.32247,0.159853 -0.11851,0.158474 -0.11851,0.43546 0,0.276986 0.11714,0.436838 0.11851,0.158475 0.32384,0.158475 0.20257,0 0.32108,-0.159853 0.11851,-0.159852 0.11851,-0.43546 0,-0.27423 -0.11851,-0.434082 -0.11851,-0.161231 -0.32108,-0.161231 z m 0,-0.214973 q 0.33073,0 0.51952,0.214973 0.18879,0.214974 0.18879,0.595313 0,0.378961 -0.18879,0.595313 -0.18879,0.214973 -0.51952,0.214973 -0.33211,0 -0.5209,-0.214973 -0.18742,-0.216352 -0.18742,-0.595313 0,-0.380339 0.18742,-0.595313 0.18879,-0.214973 0.5209,-0.214973 z"
         style="font-size:2.82222223px;stroke-width:0.26458332"
         id="path10573" />
      <path
         d="m 161.17945,86.351892 v 0.438217 h 0.52228 v 0.197059 h -0.52228 v 0.837847 q 0,0.188791 0.051,0.242535 0.0524,0.05374 0.21084,0.05374 h 0.26045 v 0.212218 h -0.26045 q -0.29352,0 -0.40514,-0.108865 -0.11162,-0.110243 -0.11162,-0.399631 v -0.837847 h -0.18604 v -0.197059 h 0.18604 v -0.438217 z"
         style="font-size:2.82222223px;stroke-width:0.26458332"
         id="path10575" />
      <path
         d="m 162.07104,87.98349 h 0.29077 v 0.350021 h -0.29077 z"
         style="font-size:2.82222223px;stroke-width:0.26458332"
         id="path10577" />
      <path
         d="m 164.81334,86.835584 v 0.239778 q -0.10749,-0.05512 -0.22324,-0.08268 -0.11576,-0.02756 -0.23978,-0.02756 -0.18879,0 -0.28388,0.05788 -0.0937,0.05788 -0.0937,0.173633 0,0.08819 0.0675,0.139182 0.0675,0.04961 0.27147,0.09508 l 0.0868,0.01929 q 0.2701,0.05788 0.38309,0.163986 0.11438,0.104731 0.11438,0.293523 0,0.214974 -0.17088,0.340375 -0.16949,0.125401 -0.46715,0.125401 -0.12402,0 -0.25907,-0.0248 -0.13367,-0.02343 -0.2825,-0.07166 v -0.261827 q 0.14056,0.07304 0.27699,0.110243 0.13642,0.03583 0.27009,0.03583 0.17915,0 0.27561,-0.06063 0.0965,-0.06201 0.0965,-0.173633 0,-0.103353 -0.0703,-0.158474 -0.0689,-0.05512 -0.30454,-0.106109 l -0.0882,-0.02067 q -0.23564,-0.04961 -0.34037,-0.151584 -0.10474,-0.103353 -0.10474,-0.282498 0,-0.21773 0.15435,-0.336241 0.15434,-0.118511 0.43821,-0.118511 0.14056,0 0.26458,0.02067 0.12403,0.02067 0.22876,0.06201 z"
         style="font-size:2.82222223px;stroke-width:0.26458332"
         id="path10579" />
      <path
         d="m 165.54508,88.102001 v 0.818555 h -0.25494 v -2.130447 h 0.25494 v 0.234266 q 0.0799,-0.137804 0.20119,-0.20395 0.12265,-0.06752 0.29214,-0.06752 0.28112,0 0.45614,0.223242 0.17638,0.223242 0.17638,0.587044 0,0.363802 -0.17638,0.587044 -0.17502,0.223242 -0.45614,0.223242 -0.16949,0 -0.29214,-0.06615 -0.12127,-0.06752 -0.20119,-0.205328 z m 0.86265,-0.538813 q 0,-0.279742 -0.11576,-0.438216 -0.11437,-0.159853 -0.31557,-0.159853 -0.20119,0 -0.31695,0.159853 -0.11437,0.158474 -0.11437,0.438216 0,0.279742 0.11437,0.439594 0.11576,0.158475 0.31695,0.158475 0.2012,0 0.31557,-0.158475 0.11576,-0.159852 0.11576,-0.439594 z"
         style="font-size:2.82222223px;stroke-width:0.26458332"
         id="path10581" />
      <path
         d="m 168.4114,87.49842 v 0.124024 h -1.16582 q 0.0165,0.261827 0.15709,0.399631 0.14194,0.136426 0.39412,0.136426 0.14607,0 0.2825,-0.03583 0.1378,-0.03583 0.27285,-0.107487 v 0.239778 q -0.13642,0.05788 -0.27974,0.08819 -0.14332,0.03032 -0.29077,0.03032 -0.36931,0 -0.58566,-0.214973 -0.21498,-0.214974 -0.21498,-0.581533 0,-0.37896 0.20395,-0.600824 0.20533,-0.223242 0.5526,-0.223242 0.31143,0 0.49196,0.201193 0.1819,0.199816 0.1819,0.544325 z m -0.25356,-0.07441 q -0.003,-0.208084 -0.11714,-0.332107 -0.11299,-0.124024 -0.30041,-0.124024 -0.21222,0 -0.34037,0.11989 -0.12678,0.119889 -0.14608,0.337619 z"
         style="font-size:2.82222223px;stroke-width:0.26458332"
         id="path10583" />
      <path
         d="m 170.14772,87.49842 v 0.124024 h -1.16582 q 0.0165,0.261827 0.1571,0.399631 0.14194,0.136426 0.39412,0.136426 0.14607,0 0.2825,-0.03583 0.1378,-0.03583 0.27285,-0.107487 v 0.239778 q -0.13643,0.05788 -0.27974,0.08819 -0.14332,0.03032 -0.29077,0.03032 -0.36931,0 -0.58567,-0.214973 -0.21497,-0.214974 -0.21497,-0.581533 0,-0.37896 0.20395,-0.600824 0.20533,-0.223242 0.55259,-0.223242 0.31144,0 0.49196,0.201193 0.1819,0.199816 0.1819,0.544325 z m -0.25355,-0.07441 q -0.003,-0.208084 -0.11714,-0.332107 -0.113,-0.124024 -0.30041,-0.124024 -0.21222,0 -0.34038,0.11989 -0.12677,0.119889 -0.14607,0.337619 z"
         style="font-size:2.82222223px;stroke-width:0.26458332"
         id="path10585" />
      <path
         d="m 171.57951,87.024375 v -0.835091 h 0.25356 v 2.144227 h -0.25356 v -0.23151 q -0.0799,0.137804 -0.20258,0.205328 -0.12126,0.06615 -0.29214,0.06615 -0.27974,0 -0.45613,-0.223242 -0.17501,-0.223242 -0.17501,-0.587044 0,-0.363802 0.17501,-0.587044 0.17639,-0.223242 0.45613,-0.223242 0.17088,0 0.29214,0.06752 0.12265,0.06615 0.20258,0.20395 z m -0.86403,0.538813 q 0,0.279742 0.11437,0.439594 0.11576,0.158475 0.31695,0.158475 0.2012,0 0.31695,-0.158475 0.11576,-0.159852 0.11576,-0.439594 0,-0.279742 -0.11576,-0.438216 -0.11575,-0.159853 -0.31695,-0.159853 -0.20119,0 -0.31695,0.159853 -0.11437,0.158474 -0.11437,0.438216 z"
         style="font-size:2.82222223px;stroke-width:0.26458332"
         id="path10587" />
    </g>
  </g>
</svg>
