<?xml version="1.0" encoding="UTF-8" standalone="no"?>
<!-- Created with Inkscape (http://www.inkscape.org/) -->

<svg
   xmlns:dc="http://purl.org/dc/elements/1.1/"
   xmlns:cc="http://creativecommons.org/ns#"
   xmlns:rdf="http://www.w3.org/1999/02/22-rdf-syntax-ns#"
   xmlns:svg="http://www.w3.org/2000/svg"
   xmlns="http://www.w3.org/2000/svg"
   xmlns:sodipodi="http://sodipodi.sourceforge.net/DTD/sodipodi-0.dtd"
   xmlns:inkscape="http://www.inkscape.org/namespaces/inkscape"
   width="262"
   height="380"
   viewBox="0 0 69.320835 100.54167"
   version="1.1"
   id="svg11003"
   inkscape:version="0.92.5 (2060ec1f9f, 2020-04-08)"
   sodipodi:docname="Math.svg">
  <defs
     id="defs10997" />
  <sodipodi:namedview
     id="base"
     pagecolor="#ffffff"
     bordercolor="#666666"
     borderopacity="1.0"
     inkscape:pageopacity="0.0"
     inkscape:pageshadow="2"
     inkscape:zoom="1.979899"
     inkscape:cx="228.66942"
     inkscape:cy="185.29615"
     inkscape:document-units="mm"
     inkscape:current-layer="layer1"
     showgrid="false"
     fit-margin-top="0"
     fit-margin-left="0"
     fit-margin-right="0"
     fit-margin-bottom="0"
     inkscape:window-width="1916"
     inkscape:window-height="1033"
     inkscape:window-x="0"
     inkscape:window-y="22"
     inkscape:window-maximized="0"
     units="px"
     showguides="true"
     inkscape:guide-bbox="true">
    <sodipodi:guide
       position="52.785732,30.067822"
       orientation="1,0"
       id="guide1789"
       inkscape:locked="false" />
    <sodipodi:guide
       position="36.002232,48.806176"
       orientation="1,0"
       id="guide1837"
       inkscape:locked="false" />
    <sodipodi:guide
       position="9.4880683,25.256971"
       orientation="1,0"
       id="guide2144"
       inkscape:locked="false" />
    <sodipodi:guide
       position="20.045215,84.457172"
       orientation="0,1"
       id="guide2262"
       inkscape:locked="false" />
    <sodipodi:guide
       position="46.264447,75.639966"
       orientation="0,1"
       id="guide2290"
       inkscape:locked="false" />
    <sodipodi:guide
       position="-5.0081846,68.035715"
       orientation="0,1"
       id="guide2292"
       inkscape:locked="false" />
    <sodipodi:guide
       position="33.074604,47.039437"
       orientation="0,1"
       id="guide2342"
       inkscape:locked="false" />
    <sodipodi:guide
       position="-2.4054258,56.059784"
       orientation="0,1"
       id="guide2344"
       inkscape:locked="false" />
    <sodipodi:guide
       position="42.994792,23.151042"
       orientation="1,0"
       id="guide2376"
       inkscape:locked="false" />
    <sodipodi:guide
       position="20.883185,17.764881"
       orientation="0,1"
       id="guide2378"
       inkscape:locked="false" />
    <sodipodi:guide
       position="45.859337,60.210016"
       orientation="0,1"
       id="guide2510"
       inkscape:locked="false" />
    <sodipodi:guide
       position="42.665057,31.826605"
       orientation="0,1"
       id="guide2512"
       inkscape:locked="false" />
    <sodipodi:guide
       position="40.09043,27.127858"
       orientation="0,1"
       id="guide2514"
       inkscape:locked="false" />
  </sodipodi:namedview>
  <metadata
     id="metadata11000">
    <rdf:RDF>
      <cc:Work
         rdf:about="">
        <dc:format>image/svg+xml</dc:format>
        <dc:type
           rdf:resource="http://purl.org/dc/dcmitype/StillImage" />
        <dc:title></dc:title>
      </cc:Work>
    </rdf:RDF>
  </metadata>
  <g
     inkscape:label="Layer 1"
     inkscape:groupmode="layer"
     id="layer1"
     transform="translate(-64.792954,-75.127967)">
    <path
       inkscape:connector-curvature="0"
       id="path33429"
       d="M 64.792954,75.127963 H 134.11379 V 175.66963 H 64.792954 Z m 0,0"
       style="fill:#e6e6e6;fill-opacity:1;fill-rule:nonzero;stroke:none;stroke-width:0.36546105" />
    <g
       aria-label="Freq div"
       style="font-style:normal;font-variant:normal;font-weight:normal;font-stretch:normal;font-size:3.17499995px;line-height:1.25;font-family:system-ui;-inkscape-font-specification:system-ui;letter-spacing:0px;word-spacing:0px;fill:#000000;fill-opacity:1;stroke:none;stroke-width:0.26458332"
       id="text1969-3"
       transform="translate(1.5875,22.85479)" />
    <g
       aria-label="Math"
       style="font-style:normal;font-variant:normal;font-weight:normal;font-stretch:normal;font-size:2.11666656px;line-height:1.25;font-family:system-ui;-inkscape-font-specification:system-ui;letter-spacing:0px;word-spacing:0px;fill:#000000;fill-opacity:1;stroke:none;stroke-width:0.26458332"
       id="text1965">
      <path
         d="m 67.692937,77.163219 h 0.759643 l 0.5271,1.238684 0.5302,-1.238684 h 0.758093 v 2.314587 h -0.564306 v -1.69292 l -0.533301,1.247986 h -0.378272 l -0.5333,-1.247986 v 1.69292 h -0.565857 z"
         style="font-style:normal;font-variant:normal;font-weight:bold;font-stretch:normal;font-size:3.17499995px;font-family:system-ui;-inkscape-font-specification:'system-ui Bold';fill:#797979;fill-opacity:1;stroke-width:0.26458332"
         id="path2161"
         inkscape:connector-curvature="0" />
      <path
         d="m 71.605876,78.696458 q -0.173633,0 -0.261999,0.05891 -0.08682,0.05891 -0.08682,0.173632 0,0.10542 0.06976,0.165882 0.07131,0.05891 0.196888,0.05891 0.156579,0 0.263549,-0.111621 0.106971,-0.113172 0.106971,-0.282154 v -0.06356 z m 0.84801,-0.209289 v 0.990637 h -0.559655 v -0.257349 q -0.111622,0.15813 -0.251148,0.230994 -0.139526,0.07131 -0.339514,0.07131 -0.269751,0 -0.438733,-0.15658 -0.167432,-0.15813 -0.167432,-0.409277 0,-0.305408 0.20929,-0.448035 0.21084,-0.142627 0.660425,-0.142627 h 0.327112 v -0.04341 q 0,-0.131775 -0.10387,-0.192236 -0.10387,-0.06201 -0.324011,-0.06201 -0.178284,0 -0.331763,0.03566 -0.153479,0.03566 -0.285254,0.10697 v -0.42323 q 0.178284,-0.04341 0.358118,-0.06511 0.179834,-0.02325 0.359668,-0.02325 0.469739,0 0.677478,0.186035 0.209289,0.184485 0.209289,0.601514 z"
         style="font-style:normal;font-variant:normal;font-weight:bold;font-stretch:normal;font-size:3.17499995px;font-family:system-ui;-inkscape-font-specification:'system-ui Bold';fill:#797979;fill-opacity:1;stroke-width:0.26458332"
         id="path2163"
         inkscape:connector-curvature="0" />
      <path
         d="m 73.576299,77.248485 v 0.492993 h 0.572058 v 0.396875 h -0.572058 v 0.736389 q 0,0.120923 0.04806,0.164331 0.04806,0.04186 0.190686,0.04186 h 0.285254 v 0.396875 h -0.47594 q -0.328663,0 -0.466639,-0.136426 -0.136425,-0.137976 -0.136425,-0.466638 V 78.138355 H 72.745342 V 77.74148 h 0.275953 v -0.492993 z"
         style="font-style:normal;font-variant:normal;font-weight:bold;font-stretch:normal;font-size:3.17499995px;font-family:system-ui;-inkscape-font-specification:'system-ui Bold';fill:#797979;fill-opacity:1;stroke-width:0.26458332"
         id="path2165"
         inkscape:connector-curvature="0" />
      <path
         d="m 76.233501,78.420506 v 1.0573 h -0.558106 v -0.172082 -0.63407 q 0,-0.227893 -0.01085,-0.313159 -0.0093,-0.08527 -0.03411,-0.125574 -0.03256,-0.05426 -0.08837,-0.08372 -0.05581,-0.03101 -0.127124,-0.03101 -0.173633,0 -0.272851,0.134876 -0.09922,0.133325 -0.09922,0.37052 v 0.854211 H 74.487871 V 77.06555 h 0.555005 v 0.930176 q 0.125573,-0.151929 0.26665,-0.223242 0.141077,-0.07286 0.311609,-0.07286 0.300757,0 0.455786,0.184485 0.15658,0.184485 0.15658,0.536401 z"
         style="font-style:normal;font-variant:normal;font-weight:bold;font-stretch:normal;font-size:3.17499995px;font-family:system-ui;-inkscape-font-specification:'system-ui Bold';fill:#797979;fill-opacity:1;stroke-width:0.26458332"
         id="path2167"
         inkscape:connector-curvature="0" />
    </g>
    <g
       aria-label="A/B"
       style="font-style:normal;font-variant:normal;font-weight:normal;font-stretch:normal;font-size:2.11666656px;line-height:1.25;font-family:system-ui;-inkscape-font-specification:system-ui;letter-spacing:0px;word-spacing:0px;fill:#006691;fill-opacity:1;stroke:none;stroke-width:0.26458332"
       id="text1969"
       transform="translate(0,1.0583333)">
      <path
         d="m 69.735531,83.880866 -0.377582,1.023882 h 0.756543 z m -0.157096,-0.27423 h 0.315571 l 0.784103,2.057411 h -0.289388 l -0.187413,-0.527788 h -0.92742 l -0.187413,0.527788 h -0.293522 z"
         style="font-size:2.82222223px;fill:#006691;fill-opacity:1;stroke-width:0.26458332"
         id="path2170"
         inkscape:connector-curvature="0" />
      <path
         d="m 71.418116,83.606636 h 0.234266 l -0.716579,2.319238 h -0.234267 z"
         style="font-size:2.82222223px;fill:#006691;fill-opacity:1;stroke-width:0.26458332"
         id="path2172"
         inkscape:connector-curvature="0" />
      <path
         d="m 72.207732,84.681506 v 0.753787 h 0.446484 q 0.22462,0 0.332107,-0.09233 0.108865,-0.09371 0.108865,-0.285254 0,-0.192925 -0.108865,-0.283875 -0.107487,-0.09233 -0.332107,-0.09233 z m 0,-0.846115 v 0.620117 h 0.412033 q 0.20395,0 0.303169,-0.07579 0.100596,-0.07717 0.100596,-0.234267 0,-0.155718 -0.100596,-0.232888 -0.09922,-0.07717 -0.303169,-0.07717 z m -0.278364,-0.228755 h 0.711068 q 0.318327,0 0.490581,0.132292 0.172255,0.132292 0.172255,0.376204 0,0.188792 -0.08819,0.300413 -0.08819,0.111621 -0.259071,0.139181 0.205327,0.0441 0.318326,0.184658 0.114378,0.139181 0.114378,0.348643 0,0.275608 -0.187414,0.425814 -0.187413,0.150206 -0.5333,0.150206 h -0.738629 z"
         style="font-size:2.82222223px;fill:#006691;fill-opacity:1;stroke-width:0.26458332"
         id="path2174"
         inkscape:connector-curvature="0" />
    </g>
    <path
       inkscape:connector-curvature="0"
       id="path2177"
       style="font-style:normal;font-variant:normal;font-weight:normal;font-stretch:normal;font-size:2.82222223px;line-height:1.25;font-family:system-ui;-inkscape-font-specification:system-ui;letter-spacing:0px;word-spacing:0px;fill:#000000;fill-opacity:1;stroke:none;stroke-width:0.26458332"
       d="m 72.448889,89.499266 -0.377582,1.023883 h 0.756542 z m -0.157096,-0.274229 h 0.31557 l 0.784104,2.057411 h -0.289388 l -0.187413,-0.527789 h -0.92742 l -0.187413,0.527789 h -0.293522 z" />
    <path
       inkscape:connector-curvature="0"
       id="path2179"
       style="font-style:normal;font-variant:normal;font-weight:normal;font-stretch:normal;font-size:2.82222223px;line-height:1.25;font-family:system-ui;-inkscape-font-specification:system-ui;letter-spacing:0px;word-spacing:0px;fill:#000000;fill-opacity:1;stroke:none;stroke-width:0.26458332"
       d="m 72.039612,99.119353 v 0.75379 h 0.446484 q 0.22462,0 0.332107,-0.0923 0.108865,-0.0937 0.108865,-0.28526 0,-0.192923 -0.108865,-0.283874 -0.107487,-0.09233 -0.332107,-0.09233 z m 0,-0.846116 v 0.620117 h 0.412033 q 0.20395,0 0.303168,-0.07579 0.100597,-0.07717 0.100597,-0.234266 0,-0.155719 -0.100597,-0.232889 -0.09922,-0.07717 -0.303168,-0.07717 z m -0.278364,-0.228754 h 0.711068 q 0.318326,0 0.490581,0.132291 0.172255,0.132292 0.172255,0.376205 0,0.188791 -0.08819,0.300412 -0.08819,0.111621 -0.259072,0.139182 0.205328,0.0441 0.318327,0.184657 0.114377,0.139182 0.114377,0.348643 0,0.27561 -0.187413,0.42581 -0.187413,0.150207 -0.533301,0.150207 h -0.738628 z" />
    <path
       inkscape:connector-curvature="0"
       id="path2181"
       style="font-style:normal;font-variant:normal;font-weight:normal;font-stretch:normal;font-size:2.82222223px;line-height:1.25;font-family:system-ui;-inkscape-font-specification:system-ui;letter-spacing:0px;word-spacing:0px;fill:#000000;fill-opacity:1;stroke:none;stroke-width:0.26458332"
       d="m 69.90503,106.81897 q -0.303168,0 -0.482313,0.226 -0.177767,0.226 -0.177767,0.6159 0,0.3886 0.177767,0.6146 0.179145,0.226 0.482313,0.226 0.303169,0 0.479558,-0.226 0.177767,-0.226 0.177767,-0.6146 0,-0.3899 -0.177767,-0.6159 -0.176389,-0.226 -0.479558,-0.226 z m 0,-0.226 q 0.432704,0 0.691775,0.2907 0.259072,0.2894 0.259072,0.7772 0,0.4865 -0.259072,0.7772 -0.259071,0.2894 -0.691775,0.2894 -0.434082,0 -0.694531,-0.2894 -0.259071,-0.2893 -0.259071,-0.7772 0,-0.4878 0.259071,-0.7772 0.260449,-0.2907 0.694531,-0.2907 z" />
    <path
       inkscape:connector-curvature="0"
       id="path2183"
       style="font-style:normal;font-variant:normal;font-weight:normal;font-stretch:normal;font-size:2.82222223px;line-height:1.25;font-family:system-ui;-inkscape-font-specification:system-ui;letter-spacing:0px;word-spacing:0px;fill:#000000;fill-opacity:1;stroke:none;stroke-width:0.26458332"
       d="m 71.25413,108.07847 v -0.9343 h 0.253559 v 0.9246 q 0,0.2191 0.08544,0.3294 0.08544,0.1089 0.256315,0.1089 0.205328,0 0.323839,-0.131 0.11989,-0.1309 0.11989,-0.3569 v -0.875 h 0.253559 v 1.5434 h -0.253559 v -0.237 q -0.09233,0.1405 -0.214974,0.2094 -0.121268,0.068 -0.282498,0.068 -0.265962,0 -0.403765,-0.1653 -0.137804,-0.1654 -0.137804,-0.4837 z m 0.638031,-0.9715 z" />
    <path
       inkscape:connector-curvature="0"
       id="path2185"
       style="font-style:normal;font-variant:normal;font-weight:normal;font-stretch:normal;font-size:2.82222223px;line-height:1.25;font-family:system-ui;-inkscape-font-specification:system-ui;letter-spacing:0px;word-spacing:0px;fill:#000000;fill-opacity:1;stroke:none;stroke-width:0.26458332"
       d="m 73.319809,106.70597 v 0.4382 h 0.522277 v 0.197 h -0.522277 v 0.8379 q 0,0.1888 0.05099,0.2425 0.05237,0.054 0.210839,0.054 h 0.26045 v 0.2122 h -0.26045 q -0.293522,0 -0.405143,-0.1088 -0.111621,-0.1103 -0.111621,-0.3997 v -0.8378 h -0.186035 v -0.1971 h 0.186035 v -0.4382 z" />
    <g
       aria-label="  A*B "
       style="font-style:normal;font-variant:normal;font-weight:normal;font-stretch:normal;font-size:2.11666656px;line-height:1.25;font-family:system-ui;-inkscape-font-specification:system-ui;letter-spacing:0px;word-spacing:0px;fill:#006691;fill-opacity:1;stroke:none;stroke-width:0.26458332"
       id="text1969-2"
       transform="translate(0,7.4083335)">
      <path
         d="m 69.458257,134.59164 -0.377582,1.02388 h 0.756543 z m -0.157096,-0.27423 h 0.315571 l 0.784103,2.05741 h -0.289388 l -0.187413,-0.52779 h -0.92742 l -0.187413,0.52779 h -0.293522 z"
         style="font-size:2.82222223px;fill:#006691;fill-opacity:1;stroke-width:0.26458332"
         id="path2188"
         inkscape:connector-curvature="0" />
      <path
         d="m 71.751313,134.6564 -0.494716,0.26734 0.494716,0.26872 -0.07993,0.13505 -0.463021,-0.27974 v 0.51952 h -0.157097 v -0.51952 l -0.46302,0.27974 -0.07993,-0.13505 0.494716,-0.26872 -0.494716,-0.26734 0.07993,-0.13642 0.46302,0.27974 v -0.51952 h 0.157097 v 0.51952 l 0.463021,-0.27974 z"
         style="font-size:2.82222223px;fill:#006691;fill-opacity:1;stroke-width:0.26458332"
         id="path2190"
         inkscape:connector-curvature="0" />
      <path
         d="m 72.390722,135.39228 v 0.75378 h 0.446485 q 0.22462,0 0.332107,-0.0923 0.108865,-0.0937 0.108865,-0.28525 0,-0.19293 -0.108865,-0.28388 -0.107487,-0.0923 -0.332107,-0.0923 z m 0,-0.84612 v 0.62012 h 0.412034 q 0.203949,0 0.303168,-0.0758 0.100597,-0.0772 0.100597,-0.23427 0,-0.15572 -0.100597,-0.23289 -0.09922,-0.0772 -0.303168,-0.0772 z m -0.278363,-0.22875 h 0.711067 q 0.318327,0 0.490582,0.13229 0.172255,0.13229 0.172255,0.3762 0,0.18879 -0.08819,0.30041 -0.08819,0.11163 -0.259071,0.13919 0.205328,0.0441 0.318327,0.18465 0.114377,0.13919 0.114377,0.34865 0,0.2756 -0.187413,0.42581 -0.187413,0.15021 -0.533301,0.15021 h -0.738628 z"
         style="font-size:2.82222223px;fill:#006691;fill-opacity:1;stroke-width:0.26458332"
         id="path2192"
         inkscape:connector-curvature="0" />
    </g>
    <path
       inkscape:connector-curvature="0"
       id="path2195"
       style="font-style:normal;font-variant:normal;font-weight:normal;font-stretch:normal;font-size:2.82222223px;line-height:1.25;font-family:system-ui;-inkscape-font-specification:system-ui;letter-spacing:0px;word-spacing:0px;fill:#000000;fill-opacity:1;stroke:none;stroke-width:0.26458332"
       d="m 72.448889,146.77487 -0.377582,1.02388 h 0.756542 z m -0.157096,-0.27423 h 0.31557 l 0.784104,2.05741 h -0.289388 l -0.187413,-0.52779 h -0.92742 l -0.187413,0.52779 h -0.293522 z" />
    <path
       inkscape:connector-curvature="0"
       id="path2197"
       style="font-style:normal;font-variant:normal;font-weight:normal;font-stretch:normal;font-size:2.82222223px;line-height:1.25;font-family:system-ui;-inkscape-font-specification:system-ui;letter-spacing:0px;word-spacing:0px;fill:#000000;fill-opacity:1;stroke:none;stroke-width:0.26458332"
       d="m 72.039612,156.92414 v 0.75379 h 0.446484 q 0.22462,0 0.332107,-0.0923 0.108865,-0.0937 0.108865,-0.28525 0,-0.19293 -0.108865,-0.28388 -0.107487,-0.0923 -0.332107,-0.0923 z m 0,-0.84611 v 0.62012 h 0.412033 q 0.20395,0 0.303168,-0.0758 0.100597,-0.0772 0.100597,-0.23426 0,-0.15572 -0.100597,-0.23289 -0.09922,-0.0772 -0.303168,-0.0772 z m -0.278364,-0.22876 h 0.711068 q 0.318326,0 0.490581,0.1323 0.172255,0.13229 0.172255,0.3762 0,0.18879 -0.08819,0.30041 -0.08819,0.11162 -0.259072,0.13918 0.205328,0.0441 0.318327,0.18466 0.114377,0.13918 0.114377,0.34864 0,0.27561 -0.187413,0.42582 -0.187413,0.1502 -0.533301,0.1502 h -0.738628 z" />
    <path
       inkscape:connector-curvature="0"
       id="path2199"
       style="font-style:normal;font-variant:normal;font-weight:normal;font-stretch:normal;font-size:2.82222223px;line-height:1.25;font-family:system-ui;-inkscape-font-specification:system-ui;letter-spacing:0px;word-spacing:0px;fill:#000000;fill-opacity:1;stroke:none;stroke-width:0.26458332"
       d="m 69.90503,164.32836 q -0.303168,0 -0.482313,0.22599 -0.177767,0.226 -0.177767,0.61599 0,0.3886 0.177767,0.6146 0.179145,0.226 0.482313,0.226 0.303169,0 0.479558,-0.226 0.177767,-0.226 0.177767,-0.6146 0,-0.38999 -0.177767,-0.61599 -0.176389,-0.22599 -0.479558,-0.22599 z m 0,-0.226 q 0.432704,0 0.691775,0.29076 0.259072,0.28939 0.259072,0.77722 0,0.48644 -0.259072,0.77721 -0.259071,0.28939 -0.691775,0.28939 -0.434082,0 -0.694531,-0.28939 -0.259071,-0.28939 -0.259071,-0.77721 0,-0.48783 0.259071,-0.77722 0.260449,-0.29076 0.694531,-0.29076 z" />
    <path
       inkscape:connector-curvature="0"
       id="path2201"
       style="font-style:normal;font-variant:normal;font-weight:normal;font-stretch:normal;font-size:2.82222223px;line-height:1.25;font-family:system-ui;-inkscape-font-specification:system-ui;letter-spacing:0px;word-spacing:0px;fill:#000000;fill-opacity:1;stroke:none;stroke-width:0.26458332"
       d="m 71.25413,165.58788 v -0.93431 h 0.253559 v 0.92467 q 0,0.2191 0.08544,0.32935 0.08544,0.10886 0.256315,0.10886 0.205328,0 0.323839,-0.13091 0.11989,-0.13091 0.11989,-0.35691 v -0.87506 h 0.253559 v 1.54341 h -0.253559 v -0.23703 q -0.09233,0.14056 -0.214974,0.20946 -0.121268,0.0675 -0.282498,0.0675 -0.265962,0 -0.403765,-0.16537 -0.137804,-0.16536 -0.137804,-0.48369 z m 0.638031,-0.97151 z" />
    <path
       inkscape:connector-curvature="0"
       id="path2203"
       style="font-style:normal;font-variant:normal;font-weight:normal;font-stretch:normal;font-size:2.82222223px;line-height:1.25;font-family:system-ui;-inkscape-font-specification:system-ui;letter-spacing:0px;word-spacing:0px;fill:#000000;fill-opacity:1;stroke:none;stroke-width:0.26458332"
       d="m 73.319809,164.21536 v 0.43821 h 0.522277 v 0.19706 h -0.522277 v 0.83785 q 0,0.18879 0.05099,0.24253 0.05237,0.0538 0.210839,0.0538 h 0.26045 v 0.21222 h -0.26045 q -0.293522,0 -0.405143,-0.10887 -0.111621,-0.11024 -0.111621,-0.39963 v -0.83785 h -0.186035 v -0.19706 h 0.186035 v -0.43821 z" />
    <g
       aria-label="A"
       style="font-style:normal;font-variant:normal;font-weight:normal;font-stretch:normal;font-size:2.11666656px;line-height:1.25;font-family:system-ui;-inkscape-font-specification:system-ui;letter-spacing:0px;word-spacing:0px;fill:#006691;fill-opacity:1;stroke:none;stroke-width:0.26458332"
       id="text1969-0"
       transform="translate(0,3.1750001)">
      <path
         d="m 72.381367,110.09602 -0.377582,1.02388 h 0.756543 z m -0.157096,-0.27423 h 0.315571 l 0.784103,2.05741 h -0.289388 l -0.187413,-0.52778 h -0.92742 l -0.187413,0.52778 h -0.293522 z"
         style="font-size:2.82222223px;fill:#006691;fill-opacity:1;stroke-width:0.26458332"
         id="path2206"
         inkscape:connector-curvature="0" />
    </g>
    <path
       inkscape:connector-curvature="0"
       id="path2209"
       style="font-style:normal;font-variant:normal;font-weight:normal;font-stretch:normal;font-size:2.82222223px;line-height:1.25;font-family:system-ui;-inkscape-font-specification:system-ui;letter-spacing:0px;word-spacing:0px;fill:#000000;fill-opacity:1;stroke:none;stroke-width:0.26458332"
       d="m 72.448889,118.36021 -0.377582,1.02388 h 0.756542 z m -0.157096,-0.27423 h 0.31557 l 0.784104,2.05741 h -0.289388 l -0.187413,-0.52779 h -0.92742 l -0.187413,0.52779 h -0.293522 z" />
    <path
       inkscape:connector-curvature="0"
       id="path2211"
       style="font-style:normal;font-variant:normal;font-weight:normal;font-stretch:normal;font-size:2.82222223px;line-height:1.25;font-family:system-ui;-inkscape-font-specification:system-ui;letter-spacing:0px;word-spacing:0px;fill:#000000;fill-opacity:1;stroke:none;stroke-width:0.26458332"
       d="m 72.039612,126.92197 v 0.75379 h 0.446484 q 0.22462,0 0.332107,-0.0923 0.108865,-0.0937 0.108865,-0.28526 0,-0.19292 -0.108865,-0.28387 -0.107487,-0.0923 -0.332107,-0.0923 z m 0,-0.84612 v 0.62012 h 0.412033 q 0.20395,0 0.303168,-0.0758 0.100597,-0.0772 0.100597,-0.23427 0,-0.15572 -0.100597,-0.23289 -0.09922,-0.0772 -0.303168,-0.0772 z m -0.278364,-0.22875 h 0.711068 q 0.318326,0 0.490581,0.13229 0.172255,0.13229 0.172255,0.37621 0,0.18879 -0.08819,0.30041 -0.08819,0.11162 -0.259072,0.13918 0.205328,0.0441 0.318327,0.18466 0.114377,0.13918 0.114377,0.34864 0,0.27561 -0.187413,0.42581 -0.187413,0.15021 -0.533301,0.15021 h -0.738628 z" />
    <path
       inkscape:connector-curvature="0"
       id="path2213"
       style="font-style:normal;font-variant:normal;font-weight:normal;font-stretch:normal;font-size:2.82222223px;line-height:1.25;font-family:system-ui;-inkscape-font-specification:system-ui;letter-spacing:0px;word-spacing:0px;fill:#000000;fill-opacity:1;stroke:none;stroke-width:0.26458332"
       d="m 69.90503,134.85535 q -0.303168,0 -0.482313,0.226 -0.177767,0.226 -0.177767,0.61598 0,0.38861 0.177767,0.61461 0.179145,0.226 0.482313,0.226 0.303169,0 0.479558,-0.226 0.177767,-0.226 0.177767,-0.61461 0,-0.38998 -0.177767,-0.61598 -0.176389,-0.226 -0.479558,-0.226 z m 0,-0.226 q 0.432704,0 0.691775,0.29077 0.259072,0.28939 0.259072,0.77721 0,0.48645 -0.259072,0.77722 -0.259071,0.28938 -0.691775,0.28938 -0.434082,0 -0.694531,-0.28938 -0.259071,-0.28939 -0.259071,-0.77722 0,-0.48782 0.259071,-0.77721 0.260449,-0.29077 0.694531,-0.29077 z" />
    <path
       inkscape:connector-curvature="0"
       id="path2215"
       style="font-style:normal;font-variant:normal;font-weight:normal;font-stretch:normal;font-size:2.82222223px;line-height:1.25;font-family:system-ui;-inkscape-font-specification:system-ui;letter-spacing:0px;word-spacing:0px;fill:#000000;fill-opacity:1;stroke:none;stroke-width:0.26458332"
       d="m 71.25413,136.11488 v -0.93431 h 0.253559 v 0.92466 q 0,0.21911 0.08544,0.32935 0.08544,0.10887 0.256315,0.10887 0.205328,0 0.323839,-0.13092 0.11989,-0.13091 0.11989,-0.35691 v -0.87505 h 0.253559 v 1.5434 h -0.253559 v -0.23702 q -0.09233,0.14056 -0.214974,0.20946 -0.121268,0.0675 -0.282498,0.0675 -0.265962,0 -0.403765,-0.16536 -0.137804,-0.16536 -0.137804,-0.48369 z m 0.638031,-0.97152 z" />
    <path
       inkscape:connector-curvature="0"
       id="path2217"
       style="font-style:normal;font-variant:normal;font-weight:normal;font-stretch:normal;font-size:2.82222223px;line-height:1.25;font-family:system-ui;-inkscape-font-specification:system-ui;letter-spacing:0px;word-spacing:0px;fill:#000000;fill-opacity:1;stroke:none;stroke-width:0.26458332"
       d="m 73.319809,134.74235 v 0.43822 h 0.522277 v 0.19706 h -0.522277 v 0.83784 q 0,0.1888 0.05099,0.24254 0.05237,0.0537 0.210839,0.0537 h 0.26045 v 0.21222 h -0.26045 q -0.293522,0 -0.405143,-0.10886 -0.111621,-0.11025 -0.111621,-0.39964 v -0.83784 h -0.186035 v -0.19706 h 0.186035 v -0.43822 z" />
    <g
       aria-label="B"
       style="font-style:normal;font-variant:normal;font-weight:normal;font-stretch:normal;font-size:2.11666656px;line-height:1.25;font-family:system-ui;-inkscape-font-specification:system-ui;letter-spacing:0px;word-spacing:0px;fill:#006691;fill-opacity:1;stroke:none;stroke-width:0.26458332"
       id="text2142"
       transform="translate(0,3.1750001)">
      <path
         d="m 73.59623,109.76196 v 0.56534 h 0.334863 q 0.168465,0 0.249081,-0.0692 0.08165,-0.0703 0.08165,-0.21394 0,-0.14469 -0.08165,-0.21291 -0.08062,-0.0692 -0.249081,-0.0692 z m 0,-0.63459 v 0.46509 h 0.309025 q 0.152962,0 0.227376,-0.0568 0.07545,-0.0579 0.07545,-0.1757 0,-0.11678 -0.07545,-0.17466 -0.07441,-0.0579 -0.227376,-0.0579 z m -0.208773,-0.17156 h 0.533301 q 0.238745,0 0.367936,0.0992 0.129191,0.0992 0.129191,0.28216 0,0.14159 -0.06615,0.22531 -0.06614,0.0837 -0.194303,0.10438 0.153996,0.0331 0.238745,0.1385 0.08578,0.10438 0.08578,0.26148 0,0.2067 -0.14056,0.31936 -0.14056,0.11265 -0.399975,0.11265 H 73.38745 Z"
         style="fill:#006691;fill-opacity:1;stroke-width:0.26458332"
         id="path2220"
         inkscape:connector-curvature="0" />
    </g>
    <g
       aria-label="Ln"
       style="font-style:normal;font-variant:normal;font-weight:normal;font-stretch:normal;font-size:2.11666656px;line-height:1.25;font-family:system-ui;-inkscape-font-specification:system-ui;letter-spacing:0px;word-spacing:0px;fill:#006691;fill-opacity:1;stroke:none;stroke-width:0.26458332"
       id="text2266">
      <path
         d="m 106.77959,84.44764 h 0.27837 v 1.823144 h 1.00183 v 0.234267 h -1.2802 z"
         style="font-size:2.82222223px;fill:#006691;fill-opacity:1;stroke-width:0.26458332"
         id="path2380"
         inkscape:connector-curvature="0" />
      <path
         d="m 109.62387,85.573497 v 0.931554 h -0.25356 v -0.923286 q 0,-0.219108 -0.0854,-0.327973 -0.0854,-0.108865 -0.25632,-0.108865 -0.20532,0 -0.32384,0.130914 -0.11851,0.130913 -0.11851,0.356911 v 0.872299 h -0.25493 v -1.543403 h 0.25493 v 0.239779 q 0.0909,-0.139182 0.2136,-0.208084 0.12402,-0.0689 0.28525,-0.0689 0.26596,0 0.40239,0.165364 0.13643,0.163987 0.13643,0.483692 z"
         style="font-size:2.82222223px;fill:#006691;fill-opacity:1;stroke-width:0.26458332"
         id="path2382"
         inkscape:connector-curvature="0" />
    </g>
    <g
       aria-label="In"
       style="font-style:normal;font-variant:normal;font-weight:normal;font-stretch:normal;font-size:2.11666656px;line-height:1.25;font-family:system-ui;-inkscape-font-specification:system-ui;letter-spacing:0px;word-spacing:0px;fill:#000000;fill-opacity:1;stroke:none;stroke-width:0.26458332"
       id="text2266-0">
      <path
         d="m 107.46174,89.110222 h 0.27836 v 2.057411 h -0.27836 z"
         style="font-size:2.82222223px;stroke-width:0.26458332"
         id="path2385"
         inkscape:connector-curvature="0" />
      <path
         d="m 109.566,90.236079 v 0.931554 h -0.25356 v -0.923286 q 0,-0.219108 -0.0854,-0.327973 -0.0854,-0.108865 -0.25632,-0.108865 -0.20533,0 -0.32384,0.130914 -0.11851,0.130914 -0.11851,0.356912 v 0.872298 H 108.2734 V 89.62423 h 0.25494 v 0.239779 q 0.091,-0.139182 0.2136,-0.208084 0.12402,-0.0689 0.28525,-0.0689 0.26596,0 0.40239,0.165365 0.13642,0.163986 0.13642,0.483691 z"
         style="font-size:2.82222223px;stroke-width:0.26458332"
         id="path2387"
         inkscape:connector-curvature="0" />
    </g>
    <g
       aria-label="Out"
       style="font-style:normal;font-variant:normal;font-weight:normal;font-stretch:normal;font-size:2.11666656px;line-height:1.25;font-family:system-ui;-inkscape-font-specification:system-ui;letter-spacing:0px;word-spacing:0px;fill:#000000;fill-opacity:1;stroke:none;stroke-width:0.26458332"
       id="text2288"
       transform="translate(0,-1.0583333)">
      <path
         d="m 108.41573,98.161051 q -0.30317,0 -0.48232,0.225998 -0.17776,0.225998 -0.17776,0.615983 0,0.388607 0.17776,0.614605 0.17915,0.225999 0.48232,0.225999 0.30317,0 0.47955,-0.225999 0.17777,-0.225998 0.17777,-0.614605 0,-0.389985 -0.17777,-0.615983 -0.17638,-0.225998 -0.47955,-0.225998 z m 0,-0.225998 q 0.4327,0 0.69177,0.290766 0.25907,0.289388 0.25907,0.777213 0,0.486448 -0.25907,0.777214 -0.25907,0.289384 -0.69177,0.289384 -0.43409,0 -0.69453,-0.289384 -0.25908,-0.289388 -0.25908,-0.777214 0,-0.487825 0.25908,-0.777213 0.26044,-0.290766 0.69453,-0.290766 z"
         style="font-size:2.82222223px;stroke-width:0.26458332"
         id="path2390"
         inkscape:connector-curvature="0" />
      <path
         d="m 109.76483,99.420578 v -0.93431 h 0.25356 v 0.924664 q 0,0.219108 0.0854,0.329351 0.0854,0.108865 0.25632,0.108865 0.20533,0 0.32384,-0.130914 0.11989,-0.130914 0.11989,-0.356912 v -0.875054 h 0.25356 v 1.543402 h -0.25356 v -0.237022 q -0.0923,0.14056 -0.21498,0.209462 -0.12126,0.0675 -0.28249,0.0675 -0.26597,0 -0.40377,-0.165361 -0.1378,-0.165364 -0.1378,-0.483691 z m 0.63803,-0.971517 z"
         style="font-size:2.82222223px;stroke-width:0.26458332"
         id="path2392"
         inkscape:connector-curvature="0" />
      <path
         d="m 111.83051,98.048052 v 0.438216 h 0.52227 v 0.197059 h -0.52227 v 0.837848 q 0,0.188791 0.051,0.242534 0.0524,0.05374 0.21084,0.05374 h 0.26045 v 0.212221 h -0.26045 q -0.29352,0 -0.40514,-0.108868 -0.11162,-0.110243 -0.11162,-0.399631 v -0.837848 h -0.18604 v -0.197059 h 0.18604 v -0.438216 z"
         style="font-size:2.82222223px;stroke-width:0.26458332"
         id="path2394"
         inkscape:connector-curvature="0" />
    </g>
    <path
       inkscape:connector-curvature="0"
       id="path2397"
       style="font-style:normal;font-variant:normal;font-weight:normal;font-stretch:normal;font-size:2.82222223px;line-height:1.25;font-family:system-ui;-inkscape-font-specification:system-ui;letter-spacing:0px;word-spacing:0px;fill:#006691;fill-opacity:1;stroke:none;stroke-width:0.26458332"
       d="m 107.3381,112.89647 h 0.27837 v 1.82314 h 1.00183 v 0.23427 h -1.2802 z" />
    <g
       aria-label="In"
       style="font-style:normal;font-variant:normal;font-weight:normal;font-stretch:normal;font-size:2.11666656px;line-height:1.25;font-family:system-ui;-inkscape-font-specification:system-ui;letter-spacing:0px;word-spacing:0px;fill:#000000;fill-opacity:1;stroke:none;stroke-width:0.26458332"
       id="text2266-0-2"
       transform="translate(0,0.52916663)">
      <path
         d="m 107.49107,117.55906 h 0.27836 v 2.05741 h -0.27836 z"
         style="font-size:2.82222223px;stroke-width:0.26458332"
         id="path2402"
         inkscape:connector-curvature="0" />
      <path
         d="m 109.59533,118.68492 v 0.93155 h -0.25356 v -0.92329 q 0,-0.2191 -0.0854,-0.32797 -0.0854,-0.10886 -0.25631,-0.10886 -0.20533,0 -0.32384,0.13091 -0.11851,0.13091 -0.11851,0.35691 v 0.8723 h -0.25494 v -1.5434 h 0.25494 v 0.23978 q 0.0909,-0.13919 0.21359,-0.20809 0.12403,-0.0689 0.28526,-0.0689 0.26596,0 0.40239,0.16537 0.13642,0.16398 0.13642,0.48369 z"
         style="font-size:2.82222223px;stroke-width:0.26458332"
         id="path2404"
         inkscape:connector-curvature="0" />
    </g>
    <g
       aria-label="Out"
       style="font-style:normal;font-variant:normal;font-weight:normal;font-stretch:normal;font-size:2.11666656px;line-height:1.25;font-family:system-ui;-inkscape-font-specification:system-ui;letter-spacing:0px;word-spacing:0px;fill:#000000;fill-opacity:1;stroke:none;stroke-width:0.26458332"
       id="text2288-8"
       transform="translate(0,-0.52916667)">
      <path
         d="m 108.44505,126.60987 q -0.30316,0 -0.48231,0.22599 -0.17777,0.226 -0.17777,0.61599 0,0.3886 0.17777,0.6146 0.17915,0.226 0.48231,0.226 0.30317,0 0.47956,-0.226 0.17777,-0.226 0.17777,-0.6146 0,-0.38999 -0.17777,-0.61599 -0.17639,-0.22599 -0.47956,-0.22599 z m 0,-0.226 q 0.43271,0 0.69178,0.29076 0.25907,0.28939 0.25907,0.77722 0,0.48644 -0.25907,0.77721 -0.25907,0.28939 -0.69178,0.28939 -0.43408,0 -0.69453,-0.28939 -0.25907,-0.28939 -0.25907,-0.77721 0,-0.48783 0.25907,-0.77722 0.26045,-0.29076 0.69453,-0.29076 z"
         style="font-size:2.82222223px;stroke-width:0.26458332"
         id="path2407"
         inkscape:connector-curvature="0" />
      <path
         d="m 109.79415,127.86939 v -0.93431 h 0.25356 v 0.92467 q 0,0.2191 0.0854,0.32935 0.0854,0.10886 0.25632,0.10886 0.20532,0 0.32384,-0.13091 0.11988,-0.13092 0.11988,-0.35691 v -0.87506 h 0.25356 v 1.54341 h -0.25356 v -0.23703 q -0.0923,0.14056 -0.21497,0.20946 -0.12127,0.0675 -0.2825,0.0675 -0.26596,0 -0.40376,-0.16537 -0.13781,-0.16536 -0.13781,-0.48369 z m 0.63804,-0.97151 z"
         style="font-size:2.82222223px;stroke-width:0.26458332"
         id="path2409"
         inkscape:connector-curvature="0" />
      <path
         d="m 111.85983,126.49687 v 0.43821 h 0.52228 v 0.19706 h -0.52228 v 0.83785 q 0,0.18879 0.051,0.24253 0.0524,0.0537 0.21084,0.0537 h 0.26045 v 0.21222 h -0.26045 q -0.29352,0 -0.40514,-0.10887 -0.11162,-0.11024 -0.11162,-0.39963 v -0.83785 h -0.18604 v -0.19706 h 0.18604 v -0.43821 z"
         style="font-size:2.82222223px;stroke-width:0.26458332"
         id="path2411"
         inkscape:connector-curvature="0" />
    </g>
    <g
       aria-label="In"
       style="font-style:normal;font-variant:normal;font-weight:normal;font-stretch:normal;font-size:2.11666656px;line-height:1.25;font-family:system-ui;-inkscape-font-specification:system-ui;letter-spacing:0px;word-spacing:0px;fill:#000000;fill-opacity:1;stroke:none;stroke-width:0.26458332"
       id="text2266-0-2-6">
      <path
         d="m 107.61095,146.97738 h 0.27837 v 2.05741 h -0.27837 z"
         style="font-size:2.82222223px;stroke-width:0.26458332"
         id="path2419"
         inkscape:connector-curvature="0" />
      <path
         d="m 109.71522,148.10324 v 0.93155 h -0.25356 v -0.92329 q 0,-0.2191 -0.0854,-0.32797 -0.0854,-0.10886 -0.25631,-0.10886 -0.20533,0 -0.32384,0.13091 -0.11851,0.13091 -0.11851,0.35691 v 0.8723 h -0.25494 v -1.5434 h 0.25494 v 0.23978 q 0.091,-0.13919 0.21359,-0.20809 0.12403,-0.0689 0.28526,-0.0689 0.26596,0 0.40238,0.16536 0.13643,0.16399 0.13643,0.4837 z"
         style="font-size:2.82222223px;stroke-width:0.26458332"
         id="path2421"
         inkscape:connector-curvature="0" />
    </g>
    <g
       aria-label="Out"
       style="font-style:normal;font-variant:normal;font-weight:normal;font-stretch:normal;font-size:2.11666656px;line-height:1.25;font-family:system-ui;-inkscape-font-specification:system-ui;letter-spacing:0px;word-spacing:0px;fill:#000000;fill-opacity:1;stroke:none;stroke-width:0.26458332"
       id="text2288-8-2">
      <path
         d="m 108.56496,156.02805 q -0.30317,0 -0.48232,0.226 -0.17776,0.22599 -0.17776,0.61598 0,0.38861 0.17776,0.6146 0.17915,0.226 0.48232,0.226 0.30317,0 0.47955,-0.226 0.17777,-0.22599 0.17777,-0.6146 0,-0.38999 -0.17777,-0.61598 -0.17638,-0.226 -0.47955,-0.226 z m 0,-0.226 q 0.4327,0 0.69177,0.29077 0.25907,0.28938 0.25907,0.77721 0,0.48645 -0.25907,0.77721 -0.25907,0.28939 -0.69177,0.28939 -0.43408,0 -0.69453,-0.28939 -0.25907,-0.28939 -0.25907,-0.77721 0,-0.48783 0.25907,-0.77721 0.26045,-0.29077 0.69453,-0.29077 z"
         style="font-size:2.82222223px;stroke-width:0.26458332"
         id="path2424"
         inkscape:connector-curvature="0" />
      <path
         d="m 109.91406,157.28757 v -0.93431 h 0.25356 v 0.92467 q 0,0.21911 0.0854,0.32935 0.0854,0.10886 0.25632,0.10886 0.20533,0 0.32384,-0.13091 0.11989,-0.13091 0.11989,-0.35691 v -0.87506 h 0.25356 v 1.54341 h -0.25356 v -0.23703 q -0.0923,0.14056 -0.21498,0.20947 -0.12126,0.0675 -0.28249,0.0675 -0.26597,0 -0.40377,-0.16536 -0.1378,-0.16537 -0.1378,-0.4837 z m 0.63803,-0.97151 z"
         style="font-size:2.82222223px;stroke-width:0.26458332"
         id="path2426"
         inkscape:connector-curvature="0" />
      <path
         d="m 111.97974,155.91505 v 0.43821 h 0.52227 v 0.19706 h -0.52227 v 0.83785 q 0,0.18879 0.051,0.24254 0.0524,0.0537 0.21084,0.0537 h 0.26045 v 0.21222 h -0.26045 q -0.29352,0 -0.40514,-0.10887 -0.11162,-0.11024 -0.11162,-0.39963 v -0.83785 h -0.18604 v -0.19706 h 0.18604 v -0.43821 z"
         style="font-size:2.82222223px;stroke-width:0.26458332"
         id="path2428"
         inkscape:connector-curvature="0" />
    </g>
    <path
       inkscape:connector-curvature="0"
       id="path2475"
       style="font-style:normal;font-variant:normal;font-weight:normal;font-stretch:normal;font-size:2.82222223px;line-height:1.25;font-family:system-ui;-inkscape-font-specification:system-ui;letter-spacing:0px;word-spacing:0px;fill:#006691;fill-opacity:1;stroke:none;stroke-width:0.26458332"
       d="m 109.44788,113.58824 q -0.20395,0 -0.32246,0.15986 -0.11851,0.15847 -0.11851,0.43546 0,0.27698 0.11713,0.43684 0.11851,0.15847 0.32384,0.15847 0.20257,0 0.32108,-0.15985 0.11851,-0.15986 0.11851,-0.43546 0,-0.27423 -0.11851,-0.43408 -0.11851,-0.16124 -0.32108,-0.16124 z m 0,-0.21497 q 0.33073,0 0.51952,0.21497 0.18879,0.21498 0.18879,0.59532 0,0.37896 -0.18879,0.59531 -0.18879,0.21497 -0.51952,0.21497 -0.33211,0 -0.5209,-0.21497 -0.18741,-0.21635 -0.18741,-0.59531 0,-0.38034 0.18741,-0.59532 0.18879,-0.21497 0.5209,-0.21497 z" />
    <path
       inkscape:connector-curvature="0"
       id="path2477"
       style="font-style:normal;font-variant:normal;font-weight:normal;font-stretch:normal;font-size:2.82222223px;line-height:1.25;font-family:system-ui;-inkscape-font-specification:system-ui;letter-spacing:0px;word-spacing:0px;fill:#006691;fill-opacity:1;stroke:none;stroke-width:0.26458332"
       d="m 111.59211,114.16426 q 0,-0.2756 -0.11438,-0.42719 -0.113,-0.15158 -0.31833,-0.15158 -0.20395,0 -0.31832,0.15158 -0.113,0.15159 -0.113,0.42719 0,0.27423 0.113,0.42582 0.11437,0.15158 0.31832,0.15158 0.20533,0 0.31833,-0.15158 0.11438,-0.15159 0.11438,-0.42582 z m 0.25356,0.59807 q 0,0.39412 -0.17501,0.58567 -0.17501,0.19292 -0.53606,0.19292 -0.13367,0 -0.25218,-0.0207 -0.11851,-0.0193 -0.23013,-0.0606 v -0.24667 q 0.11162,0.0606 0.22048,0.0896 0.10887,0.0289 0.22187,0.0289 0.24942,0 0.37344,-0.13091 0.12403,-0.12954 0.12403,-0.39274 v -0.1254 q -0.0786,0.13642 -0.2012,0.20395 -0.12264,0.0675 -0.29352,0.0675 -0.28387,0 -0.45751,-0.21635 -0.17363,-0.21635 -0.17363,-0.57327 0,-0.35829 0.17363,-0.57464 0.17364,-0.21635 0.45751,-0.21635 0.17088,0 0.29352,0.0675 0.12265,0.0675 0.2012,0.20395 v -0.23426 h 0.25356 z" />
    <path
       inkscape:connector-curvature="0"
       id="path2479"
       style="font-style:normal;font-variant:normal;font-weight:normal;font-stretch:normal;font-size:2.82222223px;line-height:1.25;font-family:system-ui;-inkscape-font-specification:system-ui;letter-spacing:0px;word-spacing:0px;fill:#006691;fill-opacity:1;stroke:none;stroke-width:0.26458332"
       d="m 112.64355,114.71961 h 0.97152 v 0.23427 h -1.30638 v -0.23427 q 0.15847,-0.16398 0.43132,-0.43959 0.27423,-0.27699 0.34451,-0.35691 0.13367,-0.15021 0.18604,-0.25356 0.0537,-0.10473 0.0537,-0.20533 0,-0.16399 -0.11575,-0.26734 -0.11438,-0.10335 -0.29904,-0.10335 -0.13091,0 -0.27698,0.0455 -0.1447,0.0455 -0.31006,0.13781 v -0.28112 q 0.16812,-0.0675 0.31419,-0.10198 0.14607,-0.0344 0.26734,-0.0344 0.31971,0 0.50987,0.15986 0.19017,0.15985 0.19017,0.42719 0,0.12678 -0.0482,0.24115 -0.0468,0.113 -0.17225,0.26734 -0.0344,0.04 -0.21911,0.23151 -0.18466,0.19017 -0.5209,0.5333 z" />
    <g
       id="g2508">
      <path
         d="m 107.45801,141.78562 h 0.27837 v 1.82315 h 1.00183 v 0.23426 h -1.2802 z"
         style="font-style:normal;font-variant:normal;font-weight:normal;font-stretch:normal;font-size:2.82222223px;line-height:1.25;font-family:system-ui;-inkscape-font-specification:system-ui;letter-spacing:0px;word-spacing:0px;fill:#006691;fill-opacity:1;stroke:none;stroke-width:0.26458332"
         id="path2481"
         inkscape:connector-curvature="0" />
      <path
         d="m 109.56779,142.4774 q -0.20395,0 -0.32246,0.15985 -0.11851,0.15847 -0.11851,0.43546 0,0.27698 0.11713,0.43684 0.11851,0.15847 0.32384,0.15847 0.20257,0 0.32108,-0.15985 0.11851,-0.15985 0.11851,-0.43546 0,-0.27423 -0.11851,-0.43408 -0.11851,-0.16123 -0.32108,-0.16123 z m 0,-0.21498 q 0.33073,0 0.51952,0.21498 0.18879,0.21497 0.18879,0.59531 0,0.37896 -0.18879,0.59531 -0.18879,0.21497 -0.51952,0.21497 -0.33211,0 -0.5209,-0.21497 -0.18741,-0.21635 -0.18741,-0.59531 0,-0.38034 0.18741,-0.59531 0.18879,-0.21498 0.5209,-0.21498 z"
         style="font-style:normal;font-variant:normal;font-weight:normal;font-stretch:normal;font-size:2.82222223px;line-height:1.25;font-family:system-ui;-inkscape-font-specification:system-ui;letter-spacing:0px;word-spacing:0px;fill:#006691;fill-opacity:1;stroke:none;stroke-width:0.26458332"
         id="path2483"
         inkscape:connector-curvature="0" />
      <path
         d="m 111.71202,143.05342 q 0,-0.27561 -0.11438,-0.4272 -0.113,-0.15158 -0.31833,-0.15158 -0.20395,0 -0.31832,0.15158 -0.113,0.15159 -0.113,0.4272 0,0.27423 0.113,0.42581 0.11437,0.15158 0.31832,0.15158 0.20533,0 0.31833,-0.15158 0.11438,-0.15158 0.11438,-0.42581 z m 0.25356,0.59806 q 0,0.39412 -0.17501,0.58567 -0.17501,0.19293 -0.53606,0.19293 -0.13367,0 -0.25218,-0.0207 -0.11851,-0.0193 -0.23013,-0.0606 v -0.24667 q 0.11162,0.0606 0.22048,0.0896 0.10887,0.0289 0.22187,0.0289 0.24942,0 0.37344,-0.13091 0.12403,-0.12954 0.12403,-0.39274 v -0.1254 q -0.0786,0.13642 -0.2012,0.20395 -0.12264,0.0675 -0.29352,0.0675 -0.28387,0 -0.45751,-0.21635 -0.17363,-0.21635 -0.17363,-0.57326 0,-0.35829 0.17363,-0.57465 0.17364,-0.21635 0.45751,-0.21635 0.17088,0 0.29352,0.0675 0.12265,0.0675 0.2012,0.20395 v -0.23427 h 0.25356 z"
         style="font-style:normal;font-variant:normal;font-weight:normal;font-stretch:normal;font-size:2.82222223px;line-height:1.25;font-family:system-ui;-inkscape-font-specification:system-ui;letter-spacing:0px;word-spacing:0px;fill:#006691;fill-opacity:1;stroke:none;stroke-width:0.26458332"
         id="path2485"
         inkscape:connector-curvature="0" />
      <path
         d="m 112.57191,143.60877 h 0.45476 v -1.56959 l -0.49472,0.0992 v -0.25356 l 0.49196,-0.0992 h 0.27836 v 1.82315 h 0.45476 v 0.23426 h -1.18512 z"
         style="font-style:normal;font-variant:normal;font-weight:normal;font-stretch:normal;font-size:2.82222223px;line-height:1.25;font-family:system-ui;-inkscape-font-specification:system-ui;letter-spacing:0px;word-spacing:0px;fill:#006691;fill-opacity:1;stroke:none;stroke-width:0.26458332"
         id="path2487"
         inkscape:connector-curvature="0" />
      <path
         d="m 114.91458,141.9689 q -0.21498,0 -0.32384,0.21222 -0.10749,0.21084 -0.10749,0.63527 0,0.42306 0.10749,0.63528 0.10886,0.21084 0.32384,0.21084 0.21635,0 0.32384,-0.21084 0.10886,-0.21222 0.10886,-0.63528 0,-0.42443 -0.10886,-0.63527 -0.10749,-0.21222 -0.32384,-0.21222 z m 0,-0.22049 q 0.34589,0 0.52779,0.27423 0.18328,0.27285 0.18328,0.79375 0,0.51952 -0.18328,0.79375 -0.1819,0.27285 -0.52779,0.27285 -0.34589,0 -0.52917,-0.27285 -0.1819,-0.27423 -0.1819,-0.79375 0,-0.5209 0.1819,-0.79375 0.18328,-0.27423 0.52917,-0.27423 z"
         style="font-style:normal;font-variant:normal;font-weight:normal;font-stretch:normal;font-size:2.82222223px;line-height:1.25;font-family:system-ui;-inkscape-font-specification:system-ui;letter-spacing:0px;word-spacing:0px;fill:#006691;fill-opacity:1;stroke:none;stroke-width:0.26458332"
         id="path2489"
         inkscape:connector-curvature="0" />
    </g>
  </g>
</svg>
