<?xml version="1.0" encoding="UTF-8" standalone="no"?>
<!-- Created with Inkscape (http://www.inkscape.org/) -->

<svg
   xmlns:dc="http://purl.org/dc/elements/1.1/"
   xmlns:cc="http://creativecommons.org/ns#"
   xmlns:rdf="http://www.w3.org/1999/02/22-rdf-syntax-ns#"
   xmlns:svg="http://www.w3.org/2000/svg"
   xmlns="http://www.w3.org/2000/svg"
   xmlns:sodipodi="http://sodipodi.sourceforge.net/DTD/sodipodi-0.dtd"
   xmlns:inkscape="http://www.inkscape.org/namespaces/inkscape"
   width="150.22649"
   height="379.99997"
   viewBox="0 0 39.747425 100.54166"
   version="1.1"
   id="svg11003"
   inkscape:version="0.92.5 (2060ec1f9f, 2020-04-08)"
   sodipodi:docname="PowVCO.svg">
  <defs
     id="defs10997" />
  <sodipodi:namedview
     id="base"
     pagecolor="#ffffff"
     bordercolor="#666666"
     borderopacity="1.0"
     inkscape:pageopacity="0.0"
     inkscape:pageshadow="2"
     inkscape:zoom="2.8"
     inkscape:cx="12.359948"
     inkscape:cy="161.84235"
     inkscape:document-units="mm"
     inkscape:current-layer="layer1"
     showgrid="false"
     fit-margin-top="0"
     fit-margin-left="0"
     fit-margin-right="0"
     fit-margin-bottom="0"
     inkscape:window-width="1916"
     inkscape:window-height="1033"
     inkscape:window-x="0"
     inkscape:window-y="22"
     inkscape:window-maximized="0"
     units="px"
     showguides="true"
     inkscape:guide-bbox="true">
    <sodipodi:guide
       position="52.785732,30.067822"
       orientation="1,0"
       id="guide1789"
       inkscape:locked="false" />
    <sodipodi:guide
       position="36.002232,48.806176"
       orientation="1,0"
       id="guide1837"
       inkscape:locked="false" />
    <sodipodi:guide
       position="3.640332,7.2308537"
       orientation="0,1"
       id="guide1880"
       inkscape:locked="false" />
  </sodipodi:namedview>
  <metadata
     id="metadata11000">
    <rdf:RDF>
      <cc:Work
         rdf:about="">
        <dc:format>image/svg+xml</dc:format>
        <dc:type
           rdf:resource="http://purl.org/dc/dcmitype/StillImage" />
        <dc:title />
      </cc:Work>
    </rdf:RDF>
  </metadata>
  <g
     inkscape:label="Layer 1"
     inkscape:groupmode="layer"
     id="layer1"
     transform="translate(-64.792954,-75.127975)">
    <path
       inkscape:connector-curvature="0"
       id="path33429"
       d="M 64.866273,75.201293 H 104.46706 V 175.59739 H 64.866273 Z m 0,0"
       style="fill:#e6e6e6;fill-opacity:1;fill-rule:nonzero;stroke:none;stroke-width:0.27602378"
       sodipodi:insensitive="true" />
    <path
       style="fill:#e6e6e6;fill-opacity:1;stroke:none;stroke-width:0.27602378"
       d="m 97.365679,161.65408 c 0.267396,0 0.457163,-0.13801 0.457163,-0.38816 v -0.004 c 0,-0.21995 -0.142325,-0.31052 -0.396785,-0.37522 -0.215644,-0.0561 -0.271709,-0.0819 -0.271709,-0.1682 0,-0.0647 0.05607,-0.11213 0.163888,-0.11213 0.08626,0 0.172514,0.0302 0.263086,0.0863 0.02156,0.0129 0.04313,0.0172 0.06901,0.0172 0.07332,0 0.129387,-0.0561 0.129387,-0.12508 0,-0.0561 -0.03019,-0.0906 -0.06038,-0.11213 -0.112136,-0.069 -0.245835,-0.10782 -0.396785,-0.10782 -0.258773,0 -0.439912,0.15095 -0.439912,0.37522 v 0.004 c 0,0.25014 0.159575,0.31915 0.414036,0.38384 0.211331,0.0561 0.254458,0.0906 0.254458,0.15958 v 0.004 c 0,0.0733 -0.06901,0.12076 -0.181139,0.12076 -0.125074,0 -0.228585,-0.0431 -0.323467,-0.11645 -0.01725,-0.0129 -0.04313,-0.0216 -0.07763,-0.0216 -0.07332,0 -0.129387,0.0517 -0.129387,0.12507 0,0.0431 0.02156,0.0819 0.05175,0.10351 0.142325,0.10351 0.306213,0.15095 0.474417,0.15095 z m 0,0"
       id="path4567"
       inkscape:connector-curvature="0" />
    <path
       style="fill:#e6e6e6;fill-opacity:1;stroke:none;stroke-width:0.27602378"
       d="m 98.716573,161.65839 c 0.142324,0 0.267398,-0.0388 0.375218,-0.10782 l 0.06901,0.0604 c 0.02156,0.0216 0.05176,0.0388 0.09057,0.0388 0.07332,0 0.129383,-0.0604 0.129383,-0.12938 0,-0.0474 -0.02156,-0.0819 -0.05175,-0.10782 l -0.05175,-0.0431 c 0.06901,-0.10351 0.112133,-0.22859 0.112133,-0.36228 0,-0.35797 -0.280337,-0.64693 -0.668494,-0.64693 -0.388159,0 -0.668496,0.29327 -0.668496,0.64693 v 0.004 c 0,0.35796 0.280337,0.64693 0.664184,0.64693 z m 0.03881,-0.40109 0.129386,0.11213 c -0.04744,0.0216 -0.103507,0.0345 -0.163888,0.0345 -0.219956,0 -0.379534,-0.18114 -0.379534,-0.39678 0,-0.21565 0.155265,-0.39248 0.375222,-0.39248 0.224268,0 0.383844,0.17683 0.383844,0.39248 v 0.004 c 0,0.0647 -0.01294,0.12507 -0.0345,0.17251 l -0.138012,-0.12507 c -0.03019,-0.0216 -0.05607,-0.0345 -0.09488,-0.0345 -0.06901,0 -0.129387,0.0561 -0.129387,0.12939 0,0.0431 0.02156,0.0776 0.05175,0.10351 z m 0,0"
       id="path4563"
       inkscape:connector-curvature="0" />
    <path
       style="fill:#e6e6e6;fill-opacity:1;stroke:none;stroke-width:0.27602378"
       d="m 99.707408,161.50744 c 0,0.0776 0.06038,0.13802 0.138012,0.13802 0.07763,0 0.138012,-0.0604 0.138012,-0.13802 v -0.27171 h 0.219958 l 0.27171,0.34072 c 0.0302,0.0388 0.0733,0.069 0.1337,0.069 0.069,0 0.1337,-0.0474 0.1337,-0.12507 0,-0.0431 -0.0216,-0.0733 -0.0474,-0.10782 l -0.18977,-0.23291 c 0.15095,-0.0604 0.25015,-0.18545 0.25015,-0.37953 v -0.004 c 0,-0.12076 -0.0388,-0.21564 -0.10782,-0.28896 -0.0819,-0.0819 -0.20702,-0.12507 -0.3666,-0.12507 h -0.4356 c -0.07763,0 -0.138012,0.0604 -0.138012,0.13801 z m 0.276024,-0.51754 v -0.35797 h 0.276028 c 0.13369,0 0.21564,0.0604 0.21564,0.17683 v 0.004 c 0,0.10782 -0.0776,0.17683 -0.21133,0.17683 z m 0,0"
       id="path4559"
       inkscape:connector-curvature="0" />
    <path
       style="fill:#e6e6e6;fill-opacity:1;stroke:none;stroke-width:0.27602378"
       d="m 88.078444,161.65408 c 0.267398,0 0.457165,-0.13801 0.457165,-0.38816 v -0.004 c 0,-0.21995 -0.142325,-0.31052 -0.396785,-0.37522 -0.215643,-0.0561 -0.27171,-0.0819 -0.27171,-0.1682 0,-0.0647 0.05607,-0.11213 0.163889,-0.11213 0.08626,0 0.172515,0.0302 0.263085,0.0863 0.02156,0.0129 0.04313,0.0172 0.06901,0.0172 0.07332,0 0.129386,-0.0561 0.129386,-0.12508 0,-0.0561 -0.03019,-0.0906 -0.06038,-0.11213 -0.112135,-0.069 -0.245834,-0.10782 -0.396784,-0.10782 -0.258773,0 -0.439913,0.15095 -0.439913,0.37522 v 0.004 c 0,0.25014 0.159576,0.31915 0.414035,0.38384 0.211331,0.0561 0.25446,0.0906 0.25446,0.15958 v 0.004 c 0,0.0733 -0.06901,0.12076 -0.181141,0.12076 -0.125073,0 -0.228582,-0.0431 -0.323465,-0.11645 -0.01725,-0.0129 -0.04313,-0.0216 -0.07763,-0.0216 -0.07332,0 -0.129386,0.0517 -0.129386,0.12507 0,0.0431 0.02156,0.0819 0.05175,0.10351 0.142325,0.10351 0.306214,0.15095 0.474416,0.15095 z m 0,0"
       id="path4555"
       inkscape:connector-curvature="0" />
    <path
       style="fill:#e6e6e6;fill-opacity:1;stroke:none;stroke-width:0.27602378"
       d="m 88.732994,161.52038 c 0,0.069 0.05607,0.12508 0.129386,0.12508 0.05607,0 0.103509,-0.0302 0.125074,-0.0819 l 0.08626,-0.20702 h 0.556361 l 0.08194,0.19408 c 0.02588,0.0604 0.06901,0.0949 0.133699,0.0949 0.07332,0 0.129386,-0.0561 0.129386,-0.12939 0,-0.0172 -0.0043,-0.0388 -0.01294,-0.0561 l -0.43991,-0.98765 c -0.03019,-0.069 -0.08194,-0.11213 -0.159576,-0.11213 h -0.01294 c -0.07763,0 -0.1337,0.0431 -0.16389,0.11213 l -0.435599,0.98765 c -0.0086,0.0173 -0.01725,0.0388 -0.01725,0.0604 z m 0.444226,-0.40972 0.172515,-0.41403 0.176828,0.41403 z m 0,0"
       id="path4551"
       inkscape:connector-curvature="0" />
    <path
       style="fill:#e6e6e6;fill-opacity:1;stroke:none;stroke-width:0.27602378"
       d="m 90.441961,161.54195 c 0.02588,0.0733 0.07763,0.11644 0.142325,0.11644 h 0.03019 c 0.06901,0 0.116447,-0.0431 0.142325,-0.11644 l 0.245833,-0.71594 0.250147,0.71594 c 0.02588,0.0733 0.07332,0.11644 0.142325,0.11644 h 0.02588 c 0.06901,0 0.12076,-0.0431 0.146638,-0.11644 l 0.349343,-0.98334 c 0.0043,-0.0172 0.01294,-0.0388 0.01294,-0.0561 0,-0.0733 -0.06469,-0.1337 -0.138012,-0.1337 -0.06901,0 -0.116449,0.0474 -0.1337,0.0992 l -0.250147,0.77201 -0.250146,-0.76338 c -0.02156,-0.069 -0.06901,-0.11213 -0.138012,-0.11213 h -0.02157 c -0.07332,0 -0.12076,0.0474 -0.142325,0.11213 l -0.250146,0.76338 -0.250147,-0.77201 c -0.01725,-0.0561 -0.06901,-0.0992 -0.133699,-0.0992 -0.07763,0 -0.142324,0.0604 -0.142324,0.13802 0,0.0129 0.0043,0.0345 0.01294,0.0517 z m 0,0"
       id="path4547"
       inkscape:connector-curvature="0" />
    <path
       style="fill:#e6e6e6;fill-opacity:1;stroke:none;stroke-width:0.27602378"
       d="m 78.98931,161.50744 c 0,0.0776 0.06038,0.13802 0.138011,0.13802 0.07763,0 0.138012,-0.0604 0.138012,-0.13802 v -0.87119 h 0.263085 c 0.07332,0 0.129386,-0.0561 0.129386,-0.12939 0,-0.069 -0.05607,-0.12508 -0.129386,-0.12508 h -0.806507 c -0.06901,0 -0.125073,0.0561 -0.125073,0.12508 0,0.0733 0.05607,0.12939 0.125073,0.12939 h 0.267399 z m 0,0"
       id="path4543"
       inkscape:connector-curvature="0" />
    <path
       style="fill:#e6e6e6;fill-opacity:1;stroke:none;stroke-width:0.27602378"
       d="m 79.899913,161.50744 c 0,0.0776 0.06038,0.13802 0.138012,0.13802 0.07763,0 0.138012,-0.0604 0.138012,-0.13802 v -0.27171 h 0.219956 l 0.271711,0.34072 c 0.03019,0.0388 0.07332,0.069 0.133699,0.069 0.06901,0 0.133699,-0.0474 0.133699,-0.12507 0,-0.0431 -0.02156,-0.0733 -0.04744,-0.10782 l -0.189768,-0.23291 c 0.150951,-0.0604 0.250147,-0.18545 0.250147,-0.37953 v -0.004 c 0,-0.12076 -0.03882,-0.21564 -0.107822,-0.28896 -0.08194,-0.0819 -0.207018,-0.12507 -0.366594,-0.12507 h -0.4356 c -0.07763,0 -0.138012,0.0604 -0.138012,0.13801 z m 0.276024,-0.51754 v -0.35797 h 0.276024 c 0.133699,0 0.215643,0.0604 0.215643,0.17683 v 0.004 c 0,0.10782 -0.07763,0.17683 -0.211331,0.17683 z m 0,0"
       id="path4539"
       inkscape:connector-curvature="0" />
    <path
       style="fill:#e6e6e6;fill-opacity:1;stroke:none;stroke-width:0.27602378"
       d="m 81.273358,161.50744 c 0,0.0776 0.06038,0.13802 0.138012,0.13802 0.07763,0 0.138012,-0.0604 0.138012,-0.13802 v -1.00058 c 0,-0.0776 -0.06038,-0.13801 -0.138012,-0.13801 -0.07763,0 -0.138012,0.0604 -0.138012,0.13801 z m 0,0"
       id="path4535"
       inkscape:connector-curvature="0" />
    <g
       aria-label="PowVCO"
       style="font-style:normal;font-variant:normal;font-weight:normal;font-stretch:normal;font-size:2.11666656px;line-height:1.25;font-family:system-ui;-inkscape-font-specification:system-ui;letter-spacing:0px;word-spacing:0px;fill:#000000;fill-opacity:0.4745098;stroke:none;stroke-width:0.26458332"
       id="text1016">
      <path
         d="m 67.724832,76.940726 h 1.100708 q 0.490926,0 0.752754,0.218763 0.263549,0.217041 0.263549,0.620117 0,0.404799 -0.263549,0.623563 -0.261828,0.217041 -0.752754,0.217041 h -0.437527 v 0.892279 h -0.663181 z m 0.663181,0.48059 v 0.718303 h 0.366903 q 0.192925,0 0.298001,-0.09302 0.105075,-0.09474 0.105075,-0.266995 0,-0.172254 -0.105075,-0.265272 -0.105076,-0.09302 -0.298001,-0.09302 z"
         style="font-style:normal;font-variant:normal;font-weight:bold;font-stretch:normal;font-size:3.52777767px;font-family:system-ui;-inkscape-font-specification:'system-ui Bold';fill:#000000;fill-opacity:0.4745098;stroke-width:0.26458332"
         id="path2055" />
      <path
         d="m 71.200934,77.977699 q -0.204984,0 -0.313504,0.148139 -0.106798,0.146417 -0.106798,0.423747 0,0.27733 0.106798,0.425469 0.10852,0.146417 0.313504,0.146417 0.201538,0 0.308336,-0.146417 0.106798,-0.148139 0.106798,-0.425469 0,-0.27733 -0.106798,-0.423747 -0.106798,-0.148139 -0.308336,-0.148139 z m 0,-0.440972 q 0.497816,0 0.776869,0.268718 0.280775,0.268717 0.280775,0.74414 0,0.475423 -0.280775,0.744141 -0.279053,0.268717 -0.776869,0.268717 -0.499539,0 -0.782037,-0.268717 -0.280775,-0.268718 -0.280775,-0.744141 0,-0.475423 0.280775,-0.74414 0.282498,-0.268718 0.782037,-0.268718 z"
         style="font-style:normal;font-variant:normal;font-weight:bold;font-stretch:normal;font-size:3.52777767px;font-family:system-ui;-inkscape-font-specification:'system-ui Bold';fill:#000000;fill-opacity:0.4745098;stroke-width:0.26458332"
         id="path2057" />
      <path
         d="m 72.534185,77.583236 h 0.599447 l 0.323839,1.329807 0.325561,-1.329807 h 0.515042 l 0.323839,1.316026 0.325562,-1.316026 h 0.599446 l -0.508151,1.929253 h -0.673516 l -0.325562,-1.326361 -0.323839,1.326361 h -0.673516 z"
         style="font-style:normal;font-variant:normal;font-weight:bold;font-stretch:normal;font-size:3.52777767px;font-family:system-ui;-inkscape-font-specification:'system-ui Bold';fill:#000000;fill-opacity:0.4745098;stroke-width:0.26458332"
         id="path2059" />
      <path
         d="m 75.686447,76.940726 h 0.666626 l 0.682129,1.898247 0.680407,-1.898247 h 0.666625 l -0.952568,2.571763 h -0.79065 z"
         style="font-style:normal;font-variant:normal;font-weight:bold;font-stretch:normal;font-size:3.52777767px;font-family:system-ui;-inkscape-font-specification:'system-ui Bold';fill:#000000;fill-opacity:0.4745098;stroke-width:0.26458332"
         id="path2061" />
      <path
         d="m 80.762795,79.37124 q -0.18259,0.09474 -0.380683,0.142972 -0.198093,0.04823 -0.413411,0.04823 -0.642511,0 -1.018026,-0.35829 -0.375515,-0.360012 -0.375515,-0.974962 0,-0.616672 0.375515,-0.974962 0.375515,-0.360012 1.018026,-0.360012 0.215318,0 0.413411,0.04823 0.198093,0.04823 0.380683,0.142972 v 0.532267 q -0.184312,-0.125746 -0.363457,-0.184313 -0.179145,-0.05857 -0.377238,-0.05857 -0.354845,0 -0.558106,0.227376 -0.20326,0.227376 -0.20326,0.627007 0,0.397909 0.20326,0.625285 0.203261,0.227376 0.558106,0.227376 0.198093,0 0.377238,-0.05857 0.179145,-0.05857 0.363457,-0.184313 z"
         style="font-style:normal;font-variant:normal;font-weight:bold;font-stretch:normal;font-size:3.52777767px;font-family:system-ui;-inkscape-font-specification:'system-ui Bold';fill:#000000;fill-opacity:0.4745098;stroke-width:0.26458332"
         id="path2063" />
      <path
         d="m 82.487066,77.374808 q -0.303169,0 -0.470256,0.223931 -0.167087,0.223931 -0.167087,0.630452 0,0.404799 0.167087,0.62873 0.167087,0.223931 0.470256,0.223931 0.304891,0 0.471978,-0.223931 0.167087,-0.223931 0.167087,-0.62873 0,-0.406521 -0.167087,-0.630452 -0.167087,-0.223931 -0.471978,-0.223931 z m 0,-0.480591 q 0.620117,0 0.971516,0.354845 0.3514,0.354844 0.3514,0.980129 0,0.623563 -0.3514,0.978407 -0.351399,0.354845 -0.971516,0.354845 -0.618395,0 -0.971517,-0.354845 -0.3514,-0.354844 -0.3514,-0.978407 0,-0.625285 0.3514,-0.980129 0.353122,-0.354845 0.971517,-0.354845 z"
         style="font-style:normal;font-variant:normal;font-weight:bold;font-stretch:normal;font-size:3.52777767px;font-family:system-ui;-inkscape-font-specification:'system-ui Bold';fill:#000000;fill-opacity:0.4745098;stroke-width:0.26458332"
         id="path2065" />
    </g>
    <g
       aria-label="Freq div"
       style="font-style:normal;font-variant:normal;font-weight:normal;font-stretch:normal;font-size:3.17499995px;line-height:1.25;font-family:system-ui;-inkscape-font-specification:system-ui;letter-spacing:0px;word-spacing:0px;fill:#000000;fill-opacity:1;stroke:none;stroke-width:0.26458332"
       id="text1969-3"
       transform="translate(1.5875,22.85479)" />
    <g
       aria-label="POW1"
       style="font-style:normal;font-variant:normal;font-weight:normal;font-stretch:normal;font-size:2.11666656px;line-height:1.25;font-family:system-ui;-inkscape-font-specification:system-ui;letter-spacing:0px;word-spacing:0px;fill:#000000;fill-opacity:1;stroke:none;stroke-width:0.26458332"
       id="text1991"
       transform="translate(-4.8381417,23.813309)">
      <path
         d="m 73.380293,112.04187 v 0.77308 h 0.350022 q 0.194303,0 0.300412,-0.10059 0.106109,-0.1006 0.106109,-0.28664 0,-0.18465 -0.106109,-0.28525 -0.106109,-0.1006 -0.300412,-0.1006 z m -0.278364,-0.22875 h 0.628386 q 0.345887,0 0.522276,0.15709 0.177767,0.15572 0.177767,0.45751 0,0.30455 -0.177767,0.46027 -0.176389,0.15572 -0.522276,0.15572 h -0.350022 v 0.82682 h -0.278364 z"
         style="font-size:2.82222223px;stroke-width:0.26458332"
         id="path2092"
         inkscape:connector-curvature="0" />
      <path
         d="m 75.638897,112.00191 q -0.303168,0 -0.482313,0.226 -0.177767,0.226 -0.177767,0.61598 0,0.38861 0.177767,0.61461 0.179145,0.22599 0.482313,0.22599 0.303169,0 0.479558,-0.22599 0.177767,-0.226 0.177767,-0.61461 0,-0.38998 -0.177767,-0.61598 -0.176389,-0.226 -0.479558,-0.226 z m 0,-0.226 q 0.432704,0 0.691776,0.29077 0.259071,0.28939 0.259071,0.77721 0,0.48645 -0.259071,0.77721 -0.259072,0.28939 -0.691776,0.28939 -0.434082,0 -0.694531,-0.28939 -0.259071,-0.28938 -0.259071,-0.77721 0,-0.48782 0.259071,-0.77721 0.260449,-0.29077 0.694531,-0.29077 z"
         style="font-size:2.82222223px;stroke-width:0.26458332"
         id="path2094"
         inkscape:connector-curvature="0" />
      <path
         d="m 76.841925,111.81312 h 0.28112 l 0.432704,1.73908 0.431326,-1.73908 h 0.312814 l 0.432704,1.73908 0.431326,-1.73908 h 0.282498 l -0.516764,2.05741 h -0.350022 l -0.434082,-1.78594 -0.438216,1.78594 h -0.350022 z"
         style="font-size:2.82222223px;stroke-width:0.26458332"
         id="path2096"
         inkscape:connector-curvature="0" />
      <path
         d="m 79.888768,113.63626 h 0.454752 v -1.56958 l -0.494716,0.0992 v -0.25356 l 0.49196,-0.0992 h 0.278364 v 1.82314 h 0.454752 v 0.23427 h -1.185112 z"
         style="font-size:2.82222223px;stroke-width:0.26458332"
         id="path2098"
         inkscape:connector-curvature="0" />
    </g>
    <g
       aria-label="POW2"
       style="font-style:normal;font-variant:normal;font-weight:normal;font-stretch:normal;font-size:2.11666656px;line-height:1.25;font-family:system-ui;-inkscape-font-specification:system-ui;letter-spacing:0px;word-spacing:0px;fill:#000000;fill-opacity:1;stroke:none;stroke-width:0.26458332"
       id="text1991-7"
       transform="translate(2.5177107,24.460219)">
      <path
         d="m 90.782774,111.39496 v 0.77308 h 0.350022 q 0.194303,0 0.300412,-0.1006 0.106109,-0.10059 0.106109,-0.28663 0,-0.18466 -0.106109,-0.28525 -0.106109,-0.1006 -0.300412,-0.1006 z m -0.278364,-0.22875 h 0.628386 q 0.345887,0 0.522276,0.15709 0.177767,0.15572 0.177767,0.45751 0,0.30455 -0.177767,0.46027 -0.176389,0.15571 -0.522276,0.15571 h -0.350022 v 0.82683 H 90.50441 Z"
         style="font-size:2.82222223px;stroke-width:0.26458332"
         id="path2101"
         inkscape:connector-curvature="0" />
      <path
         d="m 93.041379,111.355 q -0.303169,0 -0.482314,0.226 -0.177767,0.22599 -0.177767,0.61598 0,0.38861 0.177767,0.6146 0.179145,0.226 0.482314,0.226 0.303168,0 0.479557,-0.226 0.177767,-0.22599 0.177767,-0.6146 0,-0.38999 -0.177767,-0.61598 -0.176389,-0.226 -0.479557,-0.226 z m 0,-0.226 q 0.432704,0 0.691775,0.29077 0.259071,0.28938 0.259071,0.77721 0,0.48645 -0.259071,0.77721 -0.259071,0.28939 -0.691775,0.28939 -0.434082,0 -0.694532,-0.28939 -0.259071,-0.28939 -0.259071,-0.77721 0,-0.48783 0.259071,-0.77721 0.26045,-0.29077 0.694532,-0.29077 z"
         style="font-size:2.82222223px;stroke-width:0.26458332"
         id="path2103"
         inkscape:connector-curvature="0" />
      <path
         d="m 94.244406,111.16621 h 0.28112 l 0.432704,1.73908 0.431326,-1.73908 h 0.312814 l 0.432704,1.73908 0.431326,-1.73908 h 0.282498 l -0.516764,2.05741 h -0.350022 l -0.434082,-1.78594 -0.438216,1.78594 h -0.350022 z"
         style="font-size:2.82222223px;stroke-width:0.26458332"
         id="path2105"
         inkscape:connector-curvature="0" />
      <path
         d="m 97.482796,112.98935 h 0.971517 v 0.23427 h -1.30638 v -0.23427 q 0.158474,-0.16399 0.431326,-0.43959 0.274229,-0.27699 0.344509,-0.35692 0.13367,-0.1502 0.186035,-0.25355 0.05374,-0.10473 0.05374,-0.20533 0,-0.16399 -0.115755,-0.26734 -0.114378,-0.10335 -0.299035,-0.10335 -0.130913,0 -0.276985,0.0455 -0.144694,0.0455 -0.310059,0.13781 v -0.28112 q 0.168121,-0.0675 0.314193,-0.10198 0.146072,-0.0344 0.267339,-0.0344 0.319705,0 0.509874,0.15985 0.19017,0.15985 0.19017,0.42719 0,0.12678 -0.04823,0.24116 -0.04685,0.113 -0.172255,0.26734 -0.03445,0.04 -0.219108,0.23151 -0.184657,0.19017 -0.520898,0.5333 z"
         style="font-size:2.82222223px;stroke-width:0.26458332"
         id="path2107"
         inkscape:connector-curvature="0" />
    </g>
    <g
       aria-label="POW3"
       style="font-style:normal;font-variant:normal;font-weight:normal;font-stretch:normal;font-size:2.11666656px;line-height:1.25;font-family:system-ui;-inkscape-font-specification:system-ui;letter-spacing:0px;word-spacing:0px;fill:#000000;fill-opacity:1;stroke:none;stroke-width:0.26458332"
       id="text1991-3"
       transform="translate(-5.1372067,30.334629)">
      <path
         d="m 73.679358,123.11222 v 0.77307 h 0.350021 q 0.194304,0 0.300413,-0.10059 0.106109,-0.1006 0.106109,-0.28663 0,-0.18466 -0.106109,-0.28526 -0.106109,-0.10059 -0.300413,-0.10059 z m -0.278364,-0.22876 h 0.628385 q 0.345888,0 0.522277,0.1571 0.177767,0.15572 0.177767,0.45751 0,0.30454 -0.177767,0.46026 -0.176389,0.15572 -0.522277,0.15572 h -0.350021 v 0.82682 h -0.278364 z"
         style="font-size:2.82222223px;stroke-width:0.26458332"
         id="path2110"
         inkscape:connector-curvature="0" />
      <path
         d="m 75.937962,123.07225 q -0.303168,0 -0.482313,0.226 -0.177767,0.226 -0.177767,0.61598 0,0.38861 0.177767,0.61461 0.179145,0.226 0.482313,0.226 0.303169,0 0.479557,-0.226 0.177767,-0.226 0.177767,-0.61461 0,-0.38998 -0.177767,-0.61598 -0.176388,-0.226 -0.479557,-0.226 z m 0,-0.226 q 0.432704,0 0.691775,0.29077 0.259071,0.28939 0.259071,0.77721 0,0.48645 -0.259071,0.77722 -0.259071,0.28939 -0.691775,0.28939 -0.434082,0 -0.694531,-0.28939 -0.259071,-0.28939 -0.259071,-0.77722 0,-0.48782 0.259071,-0.77721 0.260449,-0.29077 0.694531,-0.29077 z"
         style="font-size:2.82222223px;stroke-width:0.26458332"
         id="path2112"
         inkscape:connector-curvature="0" />
      <path
         d="m 77.14099,122.88346 h 0.281119 l 0.432704,1.73909 0.431326,-1.73909 h 0.312815 l 0.432704,1.73909 0.431326,-1.73909 h 0.282498 l -0.516765,2.05741 h -0.350021 l -0.434082,-1.78594 -0.438216,1.78594 h -0.350022 z"
         style="font-size:2.82222223px;stroke-width:0.26458332"
         id="path2114"
         inkscape:connector-curvature="0" />
      <path
         d="m 80.98296,123.83155 q 0.199816,0.0427 0.311437,0.17777 0.112999,0.13505 0.112999,0.33348 0,0.30455 -0.209462,0.47129 -0.209462,0.16675 -0.595312,0.16675 -0.129536,0 -0.26734,-0.0262 -0.136425,-0.0248 -0.282498,-0.0758 v -0.26872 q 0.115756,0.0675 0.25356,0.10198 0.137803,0.0345 0.288009,0.0345 0.261828,0 0.398254,-0.10335 0.137803,-0.10336 0.137803,-0.30042 0,-0.1819 -0.128157,-0.28387 -0.12678,-0.10336 -0.354156,-0.10336 h -0.239779 v -0.22875 h 0.250803 q 0.205328,0 0.314193,-0.0813 0.108865,-0.0827 0.108865,-0.23703 0,-0.15847 -0.112999,-0.24253 -0.111621,-0.0854 -0.321083,-0.0854 -0.114377,0 -0.245291,0.0248 -0.130913,0.0248 -0.28801,0.0772 v -0.24805 q 0.158475,-0.0441 0.296278,-0.0661 0.139182,-0.0221 0.261828,-0.0221 0.316948,0 0.501606,0.1447 0.184657,0.14331 0.184657,0.3886 0,0.17088 -0.09784,0.28939 -0.09784,0.11714 -0.278364,0.16261 z"
         style="font-size:2.82222223px;stroke-width:0.26458332"
         id="path2116"
         inkscape:connector-curvature="0" />
    </g>
    <g
       aria-label="POW4"
       style="font-style:normal;font-variant:normal;font-weight:normal;font-stretch:normal;font-size:2.11666656px;line-height:1.25;font-family:system-ui;-inkscape-font-specification:system-ui;letter-spacing:0px;word-spacing:0px;fill:#000000;fill-opacity:1;stroke:none;stroke-width:0.26458332"
       id="text1991-7-2"
       transform="translate(1.6924937,30.618099)">
      <path
         d="m 91.735991,122.82875 v 0.77308 h 0.350021 q 0.194304,0 0.300413,-0.10059 0.106109,-0.1006 0.106109,-0.28664 0,-0.18465 -0.106109,-0.28525 -0.106109,-0.1006 -0.300413,-0.1006 z M 91.457627,122.6 h 0.628385 q 0.345888,0 0.522277,0.15709 0.177767,0.15572 0.177767,0.45751 0,0.30455 -0.177767,0.46027 -0.176389,0.15572 -0.522277,0.15572 h -0.350021 v 0.82682 h -0.278364 z"
         style="font-size:2.82222223px;stroke-width:0.26458332"
         id="path2119"
         inkscape:connector-curvature="0" />
      <path
         d="m 93.994595,122.78879 q -0.303168,0 -0.482313,0.226 -0.177767,0.226 -0.177767,0.61598 0,0.38861 0.177767,0.61461 0.179145,0.22599 0.482313,0.22599 0.303169,0 0.479557,-0.22599 0.177767,-0.226 0.177767,-0.61461 0,-0.38998 -0.177767,-0.61598 -0.176388,-0.226 -0.479557,-0.226 z m 0,-0.226 q 0.432704,0 0.691775,0.29077 0.259071,0.28939 0.259071,0.77721 0,0.48645 -0.259071,0.77721 -0.259071,0.28939 -0.691775,0.28939 -0.434082,0 -0.694531,-0.28939 -0.259071,-0.28938 -0.259071,-0.77721 0,-0.48782 0.259071,-0.77721 0.260449,-0.29077 0.694531,-0.29077 z"
         style="font-size:2.82222223px;stroke-width:0.26458332"
         id="path2121"
         inkscape:connector-curvature="0" />
      <path
         d="m 95.197623,122.6 h 0.281119 l 0.432704,1.73908 0.431326,-1.73908 h 0.312815 l 0.432704,1.73908 0.431326,-1.73908 h 0.282498 l -0.516765,2.05741 h -0.350021 l -0.434082,-1.78594 -0.438216,1.78594 h -0.350022 z"
         style="font-size:2.82222223px;stroke-width:0.26458332"
         id="path2123"
         inkscape:connector-curvature="0" />
      <path
         d="m 98.961045,122.84253 -0.702799,1.0983 h 0.702799 z M 98.888009,122.6 h 0.350022 v 1.34083 h 0.293522 v 0.23151 h -0.293522 v 0.48507 h -0.276986 v -0.48507 h -0.928798 v -0.26872 z"
         style="font-size:2.82222223px;stroke-width:0.26458332"
         id="path2125"
         inkscape:connector-curvature="0" />
    </g>
    <g
       aria-label="Out"
       style="font-style:normal;font-variant:normal;font-weight:normal;font-stretch:normal;font-size:2.11666656px;line-height:1.25;font-family:system-ui;-inkscape-font-specification:system-ui;letter-spacing:0px;word-spacing:0px;fill:#000000;fill-opacity:1;stroke:none;stroke-width:0.26458332"
       id="text2171"
       transform="translate(1.4176117,1.3329636)">
      <path
         d="m 95.299312,165.18947 q -0.341065,0 -0.542603,0.25425 -0.199988,0.25425 -0.199988,0.69298 0,0.43719 0.199988,0.69143 0.201538,0.25425 0.542603,0.25425 0.341064,0 0.539502,-0.25425 0.199988,-0.25424 0.199988,-0.69143 0,-0.43873 -0.199988,-0.69298 -0.198438,-0.25425 -0.539502,-0.25425 z m 0,-0.25424 q 0.486792,0 0.778247,0.32711 0.291455,0.32556 0.291455,0.87436 0,0.54726 -0.291455,0.87437 -0.291455,0.32556 -0.778247,0.32556 -0.488342,0 -0.781348,-0.32556 -0.291455,-0.32556 -0.291455,-0.87437 0,-0.5488 0.291455,-0.87436 0.293006,-0.32711 0.781348,-0.32711 z"
         style="font-size:3.17499995px;stroke-width:0.26458332"
         id="path2173"
         inkscape:connector-curvature="0" />
      <path
         d="m 96.817049,166.60644 v -1.0511 h 0.285254 v 1.04025 q 0,0.2465 0.09612,0.37052 0.09612,0.12247 0.288354,0.12247 0.230994,0 0.364319,-0.14727 0.134876,-0.14728 0.134876,-0.40153 v -0.98444 h 0.285253 v 1.73633 H 97.98597 v -0.26665 q -0.10387,0.15813 -0.241846,0.23565 -0.136426,0.076 -0.31781,0.076 -0.299207,0 -0.454236,-0.18603 -0.155029,-0.18604 -0.155029,-0.54416 z m 0.717785,-1.09295 z"
         style="font-size:3.17499995px;stroke-width:0.26458332"
         id="path2175"
         inkscape:connector-curvature="0" />
      <path
         d="m 99.140938,165.06235 v 0.49299 h 0.587561 v 0.2217 h -0.587561 v 0.94257 q 0,0.21239 0.05736,0.27286 0.05891,0.0605 0.237194,0.0605 h 0.293006 v 0.23874 h -0.293006 q -0.330212,0 -0.455786,-0.12247 -0.125573,-0.12402 -0.125573,-0.44959 v -0.94257 h -0.20929 v -0.2217 h 0.20929 v -0.49299 z"
         style="font-size:3.17499995px;stroke-width:0.26458332"
         id="path2177"
         inkscape:connector-curvature="0" />
    </g>
    <g
       aria-label="Reset"
       style="font-style:normal;font-variant:normal;font-weight:normal;font-stretch:normal;font-size:2.11666656px;line-height:1.25;font-family:system-ui;-inkscape-font-specification:system-ui;letter-spacing:0px;word-spacing:0px;fill:#000000;fill-opacity:1;stroke:none;stroke-width:0.26458332"
       id="text2182"
       transform="translate(13.042149,-0.78300641)">
      <path
         d="m 69.548415,168.32246 q 0.100769,0.0341 0.195337,0.14573 0.09612,0.11162 0.192236,0.30696 l 0.31781,0.63252 h -0.336414 l -0.296106,-0.59376 q -0.114721,-0.23255 -0.223242,-0.30851 -0.10697,-0.076 -0.293005,-0.076 h -0.341065 v 0.97824 h -0.313159 v -2.31459 h 0.706934 q 0.396875,0 0.592212,0.16588 0.195337,0.16588 0.195337,0.50075 0,0.21859 -0.10232,0.36277 -0.100769,0.14417 -0.294555,0.19998 z m -0.784449,-0.97203 v 0.82166 h 0.393775 q 0.226343,0 0.341064,-0.10387 0.116272,-0.10542 0.116272,-0.30851 0,-0.20309 -0.116272,-0.30541 -0.114721,-0.10387 -0.341064,-0.10387 z"
         style="font-size:3.17499995px;stroke-width:0.26458332"
         id="path2184"
         inkscape:connector-curvature="0" />
      <path
         d="m 71.987025,168.46819 v 0.13953 h -1.311548 q 0.0186,0.29455 0.176734,0.44958 0.15968,0.15348 0.443384,0.15348 0.164331,0 0.31781,-0.0403 0.155029,-0.0403 0.306958,-0.12092 v 0.26975 q -0.153479,0.0651 -0.31471,0.0992 -0.16123,0.0341 -0.327112,0.0341 -0.415478,0 -0.658874,-0.24185 -0.241846,-0.24184 -0.241846,-0.65422 0,-0.42633 0.229444,-0.67593 0.230993,-0.25115 0.621667,-0.25115 0.350366,0 0.553455,0.22635 0.204638,0.22479 0.204638,0.61236 z m -0.285254,-0.0837 q -0.0031,-0.2341 -0.131774,-0.37362 -0.127124,-0.13953 -0.337964,-0.13953 -0.238745,0 -0.382923,0.13487 -0.142627,0.13488 -0.164331,0.37983 z"
         style="font-size:3.17499995px;stroke-width:0.26458332"
         id="path2186"
         inkscape:connector-curvature="0" />
      <path
         d="m 73.562123,167.7225 v 0.26975 q -0.120923,-0.062 -0.251147,-0.093 -0.130225,-0.031 -0.269751,-0.031 -0.212391,0 -0.319361,0.0651 -0.10542,0.0651 -0.10542,0.19534 0,0.0992 0.07596,0.15658 0.07596,0.0558 0.305407,0.10697 l 0.09767,0.0217 q 0.303857,0.0651 0.430981,0.18449 0.128675,0.11782 0.128675,0.33021 0,0.24184 -0.192237,0.38292 -0.190686,0.14108 -0.525549,0.14108 -0.139526,0 -0.291455,-0.0279 -0.150379,-0.0264 -0.31781,-0.0806 v -0.29456 q 0.15813,0.0822 0.311609,0.12402 0.153479,0.0403 0.303857,0.0403 0.201538,0 0.310059,-0.0682 0.10852,-0.0698 0.10852,-0.19534 0,-0.11627 -0.07906,-0.17828 -0.07751,-0.062 -0.342614,-0.11937 l -0.09922,-0.0233 q -0.2651,-0.0558 -0.382923,-0.17053 -0.117822,-0.11627 -0.117822,-0.31781 0,-0.24495 0.173633,-0.37827 0.173633,-0.13333 0.492993,-0.13333 0.15813,0 0.297656,0.0233 0.139527,0.0233 0.257349,0.0698 z"
         style="font-size:3.17499995px;stroke-width:0.26458332"
         id="path2188"
         inkscape:connector-curvature="0" />
      <path
         d="m 75.594557,168.46819 v 0.13953 h -1.311548 q 0.0186,0.29455 0.176733,0.44958 0.159681,0.15348 0.443384,0.15348 0.164331,0 0.31781,-0.0403 0.15503,-0.0403 0.306958,-0.12092 v 0.26975 q -0.153479,0.0651 -0.314709,0.0992 -0.161231,0.0341 -0.327112,0.0341 -0.415479,0 -0.658875,-0.24185 -0.241845,-0.24184 -0.241845,-0.65422 0,-0.42633 0.229443,-0.67593 0.230994,-0.25115 0.621668,-0.25115 0.350366,0 0.553454,0.22635 0.204639,0.22479 0.204639,0.61236 z m -0.285254,-0.0837 q -0.0031,-0.2341 -0.131775,-0.37362 -0.127124,-0.13953 -0.337964,-0.13953 -0.238745,0 -0.382922,0.13487 -0.142627,0.13488 -0.164331,0.37983 z"
         style="font-size:3.17499995px;stroke-width:0.26458332"
         id="path2190"
         inkscape:connector-curvature="0" />
      <path
         d="m 76.344899,167.17835 v 0.49299 h 0.587561 v 0.22169 h -0.587561 v 0.94258 q 0,0.21239 0.05736,0.27285 0.05891,0.0605 0.237194,0.0605 h 0.293006 v 0.23875 h -0.293006 q -0.330212,0 -0.455786,-0.12247 -0.125574,-0.12403 -0.125574,-0.44959 v -0.94258 h -0.209289 v -0.22169 h 0.209289 v -0.49299 z"
         style="font-size:3.17499995px;stroke-width:0.26458332"
         id="path2192"
         inkscape:connector-curvature="0" />
    </g>
    <g
       aria-label="Div"
       style="font-style:normal;font-variant:normal;font-weight:normal;font-stretch:normal;font-size:2.11666656px;line-height:1.25;font-family:system-ui;-inkscape-font-specification:system-ui;letter-spacing:0px;word-spacing:0px;fill:#000000;fill-opacity:1;stroke:none;stroke-width:0.26458332"
       id="text1817"
       transform="translate(-2.1708333)">
      <path
         d="m 97.071318,113.92182 v 1.5999 h 0.336241 q 0.425814,0 0.622873,-0.19293 0.198438,-0.19292 0.198438,-0.60909 0,-0.41341 -0.198438,-0.60496 -0.197059,-0.19292 -0.622873,-0.19292 z m -0.278364,-0.22876 h 0.571886 q 0.598068,0 0.87781,0.24943 0.279742,0.24804 0.279742,0.77721 0,0.53192 -0.28112,0.78135 -0.28112,0.24942 -0.876432,0.24942 h -0.571886 z"
         style="font-size:2.82222223px;stroke-width:0.26458332"
         id="path1858"
         inkscape:connector-curvature="0" />
      <path
         d="m 98.955096,114.20707 h 0.253559 v 1.5434 h -0.253559 z m 0,-0.60082 h 0.253559 v 0.32108 h -0.253559 z"
         style="font-size:2.82222223px;stroke-width:0.26458332"
         id="path1860"
         inkscape:connector-curvature="0" />
      <path
         d="m 99.557299,114.20707 h 0.268717 l 0.482314,1.29536 0.48231,-1.29536 h 0.26872 l -0.57878,1.5434 h -0.34451 z"
         style="font-size:2.82222223px;stroke-width:0.26458332"
         id="path1862"
         inkscape:connector-curvature="0" />
    </g>
    <g
       aria-label="Frequency"
       style="font-style:normal;font-variant:normal;font-weight:normal;font-stretch:normal;font-size:2.11666656px;line-height:1.25;font-family:system-ui;-inkscape-font-specification:system-ui;letter-spacing:0px;word-spacing:0px;fill:#000000;fill-opacity:1;stroke:none;stroke-width:0.26458332"
       id="text1817-7"
       transform="translate(2.1166667)">
      <path
         d="m 69.851456,113.63498 h 1.182356 v 0.23427 h -0.903993 v 0.60633 h 0.815799 v 0.23427 h -0.815799 v 0.98254 h -0.278363 z"
         style="font-size:2.82222223px;stroke-width:0.26458332"
         id="path1839"
         inkscape:connector-curvature="0" />
      <path
         d="m 72.152779,114.38601 q -0.04272,-0.0248 -0.09371,-0.0358 -0.04961,-0.0124 -0.110243,-0.0124 -0.214974,0 -0.330729,0.14056 -0.114378,0.13918 -0.114378,0.40101 v 0.81304 h -0.254937 v -1.5434 h 0.254937 v 0.23978 q 0.07993,-0.14056 0.208084,-0.20809 0.128158,-0.0689 0.311437,-0.0689 0.02618,0 0.05788,0.004 0.03169,0.003 0.07028,0.01 z"
         style="font-size:2.82222223px;stroke-width:0.26458332"
         id="path1841"
         inkscape:connector-curvature="0" />
      <path
         d="m 73.67689,114.8573 v 0.12402 h -1.165821 q 0.01654,0.26183 0.157097,0.39963 0.141938,0.13643 0.394119,0.13643 0.146072,0 0.282498,-0.0358 0.137803,-0.0358 0.272851,-0.10749 v 0.23978 q -0.136426,0.0579 -0.279742,0.0882 -0.143316,0.0303 -0.290766,0.0303 -0.369314,0 -0.585666,-0.21497 -0.214974,-0.21497 -0.214974,-0.58153 0,-0.37896 0.20395,-0.60083 0.205327,-0.22324 0.552593,-0.22324 0.311437,0 0.49196,0.20119 0.181901,0.19982 0.181901,0.54433 z m -0.253559,-0.0744 q -0.0028,-0.20809 -0.117133,-0.33211 -0.113,-0.12403 -0.300413,-0.12403 -0.212218,0 -0.340375,0.11989 -0.12678,0.11989 -0.146072,0.33762 z"
         style="font-size:2.82222223px;stroke-width:0.26458332"
         id="path1843"
         inkscape:connector-curvature="0" />
      <path
         d="m 74.244642,114.92207 q 0,0.27974 0.114377,0.43959 0.115755,0.15848 0.316948,0.15848 0.201194,0 0.316949,-0.15848 0.115755,-0.15985 0.115755,-0.43959 0,-0.27974 -0.115755,-0.43822 -0.115755,-0.15985 -0.316949,-0.15985 -0.201193,0 -0.316948,0.15985 -0.114377,0.15848 -0.114377,0.43822 z m 0.864029,0.53881 q -0.07993,0.1378 -0.202571,0.20533 -0.121268,0.0661 -0.292144,0.0661 -0.279742,0 -0.456131,-0.22324 -0.175011,-0.22324 -0.175011,-0.58704 0,-0.3638 0.175011,-0.58705 0.176389,-0.22324 0.456131,-0.22324 0.170876,0 0.292144,0.0675 0.122645,0.0662 0.202571,0.20395 v -0.23426 h 0.253559 v 2.13044 h -0.253559 z"
         style="font-size:2.82222223px;stroke-width:0.26458332"
         id="path1845"
         inkscape:connector-curvature="0" />
    </g>
    <g
       aria-label="V/Oct"
       style="font-style:normal;font-variant:normal;font-weight:normal;font-stretch:normal;font-size:2.11666656px;line-height:1.25;font-family:system-ui;-inkscape-font-specification:system-ui;letter-spacing:0px;word-spacing:0px;fill:#000000;fill-opacity:1;stroke:none;stroke-width:0.26458332"
       id="text1867"
       transform="translate(0.34243908,0.16903359)">
      <path
         d="m 68.433286,168.33878 -0.785482,-2.05742 h 0.290766 l 0.651812,1.7322 0.65319,-1.7322 h 0.289388 l -0.784104,2.05742 z"
         style="font-size:2.82222223px;stroke-width:0.26458332"
         id="path1869"
         inkscape:connector-curvature="0" />
      <path
         d="m 70.272967,166.28136 h 0.234266 l -0.71658,2.31924 h -0.234266 z"
         style="font-size:2.82222223px;stroke-width:0.26458332"
         id="path1871"
         inkscape:connector-curvature="0" />
      <path
         d="m 71.61931,166.47016 q -0.303168,0 -0.482313,0.22599 -0.177767,0.226 -0.177767,0.61599 0,0.3886 0.177767,0.6146 0.179145,0.226 0.482313,0.226 0.303168,0 0.479557,-0.226 0.177767,-0.226 0.177767,-0.6146 0,-0.38999 -0.177767,-0.61599 -0.176389,-0.22599 -0.479557,-0.22599 z m 0,-0.226 q 0.432704,0 0.691775,0.29076 0.259071,0.28939 0.259071,0.77722 0,0.48644 -0.259071,0.77721 -0.259071,0.28939 -0.691775,0.28939 -0.434082,0 -0.694531,-0.28939 -0.259071,-0.28939 -0.259071,-0.77721 0,-0.48783 0.259071,-0.77722 0.260449,-0.29076 0.694531,-0.29076 z"
         style="font-size:2.82222223px;stroke-width:0.26458332"
         id="path1873"
         inkscape:connector-curvature="0" />
      <path
         d="m 74.105291,166.85463 v 0.23702 q -0.107487,-0.0592 -0.216352,-0.0882 -0.107487,-0.0303 -0.21773,-0.0303 -0.246669,0 -0.383094,0.1571 -0.136426,0.15571 -0.136426,0.43821 0,0.2825 0.136426,0.4396 0.136425,0.15571 0.383094,0.15571 0.110243,0 0.21773,-0.0289 0.108865,-0.0303 0.216352,-0.0896 v 0.23427 q -0.106109,0.0496 -0.220486,0.0744 -0.112999,0.0248 -0.241157,0.0248 -0.348643,0 -0.553971,-0.21911 -0.205328,-0.21911 -0.205328,-0.59118 0,-0.37758 0.206706,-0.59393 0.208084,-0.21635 0.56913,-0.21635 0.117133,0 0.228754,0.0248 0.111621,0.0234 0.216352,0.0717 z"
         style="font-size:2.82222223px;stroke-width:0.26458332"
         id="path1875"
         inkscape:connector-curvature="0" />
      <path
         d="m 74.797066,166.35716 v 0.43821 h 0.522277 v 0.19706 h -0.522277 v 0.83785 q 0,0.18879 0.05099,0.24253 0.05236,0.0538 0.21084,0.0538 h 0.260449 v 0.21222 h -0.260449 q -0.293523,0 -0.405144,-0.10887 -0.111621,-0.11024 -0.111621,-0.39963 v -0.83785 h -0.186035 v -0.19706 h 0.186035 v -0.43821 z"
         style="font-size:2.82222223px;stroke-width:0.26458332"
         id="path1877"
         inkscape:connector-curvature="0" />
    </g>
    <g
       aria-label="Env"
       style="font-style:normal;font-variant:normal;font-weight:normal;font-stretch:normal;font-size:2.11666656px;line-height:1.25;font-family:system-ui;-inkscape-font-specification:system-ui;letter-spacing:0px;word-spacing:0px;fill:#000000;fill-opacity:1;stroke:none;stroke-width:0.26458332"
       id="text1884"
       transform="translate(-0.52916667,-6.3500003)">
      <path
         d="m 75.240669,127.24606 h 1.138259 v 0.20498 h -0.894691 v 0.53296 h 0.857312 v 0.20498 h -0.857312 v 0.65233 h 0.916395 v 0.20499 h -1.159963 z"
         style="font-style:normal;font-variant:normal;font-weight:normal;font-stretch:normal;font-size:2.46944451px;font-family:system-ui;-inkscape-font-specification:system-ui;stroke-width:0.26458332"
         id="path1917"
         inkscape:connector-curvature="0" />
      <path
         d="m 77.913891,128.23119 v 0.81511 h -0.221864 v -0.80788 q 0,-0.19172 -0.07476,-0.28698 -0.07476,-0.0953 -0.224276,-0.0953 -0.179662,0 -0.283359,0.11455 -0.103697,0.11455 -0.103697,0.31229 v 0.76327 h -0.22307 v -1.35048 h 0.22307 v 0.2098 q 0.07958,-0.12178 0.186896,-0.18207 0.108521,-0.0603 0.249597,-0.0603 0.232717,0 0.352089,0.1447 0.119373,0.14348 0.119373,0.42323 z"
         style="font-style:normal;font-variant:normal;font-weight:normal;font-stretch:normal;font-size:2.46944451px;font-family:system-ui;-inkscape-font-specification:system-ui;stroke-width:0.26458332"
         id="path1919"
         inkscape:connector-curvature="0" />
      <path
         d="m 78.19725,127.69582 h 0.235127 l 0.422025,1.13343 0.422024,-1.13343 h 0.235128 l -0.506429,1.35048 h -0.301446 z"
         style="font-style:normal;font-variant:normal;font-weight:normal;font-stretch:normal;font-size:2.46944451px;font-family:system-ui;-inkscape-font-specification:system-ui;stroke-width:0.26458332"
         id="path1921"
         inkscape:connector-curvature="0" />
    </g>
    <g
       aria-label="Clip"
       style="font-style:normal;font-variant:normal;font-weight:normal;font-stretch:normal;font-size:2.11666656px;line-height:1.25;font-family:system-ui;-inkscape-font-specification:system-ui;letter-spacing:0px;word-spacing:0px;fill:#000000;fill-opacity:1;stroke:none;stroke-width:0.26458332"
       id="text1884-3"
       transform="translate(0.52916663,-5.2916669)">
      <path
         d="m 90.46391,123.27663 v 0.25683 q -0.12299,-0.11455 -0.262861,-0.17122 -0.138665,-0.0567 -0.295417,-0.0567 -0.30868,0 -0.472667,0.18931 -0.163986,0.1881 -0.163986,0.54501 0,0.35571 0.163986,0.54502 0.163987,0.1881 0.472667,0.1881 0.156752,0 0.295417,-0.0567 0.139871,-0.0567 0.262861,-0.17122 v 0.25442 q -0.127813,0.0868 -0.271301,0.13022 -0.142283,0.0434 -0.301446,0.0434 -0.408761,0 -0.643888,-0.2496 -0.235128,-0.2508 -0.235128,-0.68368 0,-0.43408 0.235128,-0.68368 0.235127,-0.2508 0.643888,-0.2508 0.161575,0 0.303857,0.0434 0.143489,0.0422 0.26889,0.12781 z"
         style="font-style:normal;font-variant:normal;font-weight:normal;font-stretch:normal;font-size:2.46944451px;font-family:system-ui;-inkscape-font-specification:system-ui;stroke-width:0.26458332"
         id="path1908"
         inkscape:connector-curvature="0" />
      <path
         d="m 90.830468,123.062 h 0.221864 v 1.8762 h -0.221864 z"
         style="font-style:normal;font-variant:normal;font-weight:normal;font-stretch:normal;font-size:2.46944451px;font-family:system-ui;-inkscape-font-specification:system-ui;stroke-width:0.26458332"
         id="path1910"
         inkscape:connector-curvature="0" />
      <path
         d="m 91.516559,123.58772 h 0.221864 v 1.35048 h -0.221864 z m 0,-0.52572 h 0.221864 v 0.28095 h -0.221864 z"
         style="font-style:normal;font-variant:normal;font-weight:normal;font-stretch:normal;font-size:2.46944451px;font-family:system-ui;-inkscape-font-specification:system-ui;stroke-width:0.26458332"
         id="path1912"
         inkscape:connector-curvature="0" />
      <path
         d="m 92.417279,124.73563 v 0.71624 h -0.22307 v -1.86415 h 0.22307 v 0.20499 q 0.06994,-0.12058 0.176045,-0.17846 0.107314,-0.0591 0.255626,-0.0591 0.245979,0 0.399114,0.19534 0.15434,0.19533 0.15434,0.51366 0,0.31833 -0.15434,0.51366 -0.153135,0.19534 -0.399114,0.19534 -0.148312,0 -0.255626,-0.0579 -0.106109,-0.0591 -0.176045,-0.17966 z m 0.754821,-0.47146 q 0,-0.24478 -0.101286,-0.38344 -0.10008,-0.13987 -0.276125,-0.13987 -0.176044,0 -0.27733,0.13987 -0.10008,0.13866 -0.10008,0.38344 0,0.24477 0.10008,0.38464 0.101286,0.13867 0.27733,0.13867 0.176045,0 0.276125,-0.13867 0.101286,-0.13987 0.101286,-0.38464 z"
         style="font-style:normal;font-variant:normal;font-weight:normal;font-stretch:normal;font-size:2.46944451px;font-family:system-ui;-inkscape-font-specification:system-ui;stroke-width:0.26458332"
         id="path1914"
         inkscape:connector-curvature="0" />
    </g>
  </g>
</svg>
