<?xml version="1.0" encoding="UTF-8" standalone="no"?>
<!-- Created with Inkscape (http://www.inkscape.org/) -->

<svg
   xmlns:osb="http://www.openswatchbook.org/uri/2009/osb"
   xmlns:dc="http://purl.org/dc/elements/1.1/"
   xmlns:cc="http://creativecommons.org/ns#"
   xmlns:rdf="http://www.w3.org/1999/02/22-rdf-syntax-ns#"
   xmlns:svg="http://www.w3.org/2000/svg"
   xmlns="http://www.w3.org/2000/svg"
   xmlns:sodipodi="http://sodipodi.sourceforge.net/DTD/sodipodi-0.dtd"
   xmlns:inkscape="http://www.inkscape.org/namespaces/inkscape"
   width="230"
   height="380"
   viewBox="0 0 60.854172 100.54168"
   version="1.1"
   id="svg8"
   inkscape:version="0.92.5 (2060ec1f9f, 2020-04-08)"
   sodipodi:docname="Quadro360.svg">
  <defs
     id="defs2">
    <linearGradient
       id="linearGradient871"
       osb:paint="gradient">
      <stop
         style="stop-color:#004900;stop-opacity:1;"
         offset="0"
         id="stop867" />
      <stop
         style="stop-color:#b3b6c0;stop-opacity:0"
         offset="1"
         id="stop869" />
    </linearGradient>
  </defs>
  <sodipodi:namedview
     id="base"
     pagecolor="#ffffff"
     bordercolor="#666666"
     borderopacity="1.0"
     inkscape:pageopacity="0.0"
     inkscape:pageshadow="2"
     inkscape:zoom="1.7253405"
     inkscape:cx="104.04998"
     inkscape:cy="185.52996"
     inkscape:document-units="mm"
     inkscape:current-layer="layer2"
     showgrid="false"
     units="px"
     inkscape:snap-bbox="true"
     inkscape:snap-page="true"
     inkscape:bbox-nodes="false"
     inkscape:snap-bbox-edge-midpoints="false"
     inkscape:window-width="1916"
     inkscape:window-height="1033"
     inkscape:window-x="0"
     inkscape:window-y="22"
     inkscape:window-maximized="0"
     inkscape:snap-bbox-midpoints="true"
     inkscape:snap-nodes="false"
     showguides="false"
     inkscape:guide-bbox="true">
    <inkscape:grid
       type="xygrid"
       id="grid865" />
    <sodipodi:guide
       position="68.791673,60.854177"
       orientation="1,0"
       id="guide1758"
       inkscape:locked="false" />
    <sodipodi:guide
       position="6.7306293,47.810681"
       orientation="1,0"
       id="guide2386"
       inkscape:locked="false" />
  </sodipodi:namedview>
  <metadata
     id="metadata5">
    <rdf:RDF>
      <cc:Work
         rdf:about="">
        <dc:format>image/svg+xml</dc:format>
        <dc:type
           rdf:resource="http://purl.org/dc/dcmitype/StillImage" />
        <dc:title></dc:title>
      </cc:Work>
    </rdf:RDF>
  </metadata>
  <g
     inkscape:groupmode="layer"
     id="layer2"
     inkscape:label="components"
     style="display:inline"
     transform="translate(0,-27.958326)">
    <path
       style="display:none;opacity:1;vector-effect:none;fill:#ff00ff;fill-opacity:1;fill-rule:evenodd;stroke:none;stroke-width:0.51432061;stroke-linecap:butt;stroke-linejoin:miter;stroke-miterlimit:4;stroke-dasharray:none;stroke-dashoffset:0;stroke-opacity:1;paint-order:normal"
       d="M 52.598377,9.8857946 A 2.7652776,1.5305556 0 0 1 49.833099,11.41635 2.7652776,1.5305556 0 0 1 47.067822,9.8857946 2.7652776,1.5305556 0 0 1 49.833099,8.355239 2.7652776,1.5305556 0 0 1 52.598377,9.8857946 Z"
       id="circle66"
       inkscape:label="blink"
       inkscape:connector-curvature="0" />
    <g
       transform="translate(43.903948,161.60835)"
       aria-label="OUT"
       style="font-style:normal;font-weight:normal;font-size:10.58333302px;line-height:1.25;font-family:sans-serif;letter-spacing:0px;word-spacing:0px;display:inline;fill:#000000;fill-opacity:1;stroke:none;stroke-width:0.26458332"
       id="text2161-3-9-5-84" />
    <path
       inkscape:connector-curvature="0"
       id="path33429-1"
       d="M 0,27.958335 H 60.854167 V 128.5 H 0 Z m 0,0"
       style="fill:#e6e6e6;fill-opacity:1;fill-rule:nonzero;stroke:none;stroke-width:0.34241635"
       sodipodi:insensitive="true" />
    <g
       aria-label="Quadro360"
       style="font-style:normal;font-variant:normal;font-weight:normal;font-stretch:normal;font-size:2.11666656px;line-height:1.25;font-family:system-ui;-inkscape-font-specification:system-ui;letter-spacing:0px;word-spacing:0px;fill:#000000;fill-opacity:0.4745098;stroke:none;stroke-width:0.26458332"
       id="text13606">
      <path
         d="m 4.0784451,33.001556 h -0.051676 q -0.6356201,0 -0.9887424,-0.351399 -0.3531223,-0.3514 -0.3531223,-0.978407 0,-0.625285 0.3513997,-0.98013 0.3531223,-0.354845 0.9715169,-0.354845 0.6252849,0 0.9732395,0.3514 0.3496772,0.3514 0.3496772,0.983575 0,0.434082 -0.1860352,0.747585 -0.1843126,0.313504 -0.5322672,0.471978 l 0.5184868,0.578776 h -0.632175 z m -0.070625,-2.18419 q -0.3031684,0 -0.4702555,0.223931 -0.1670871,0.223931 -0.1670871,0.630453 0,0.413411 0.163642,0.633897 0.1636421,0.218764 0.4737006,0.218764 0.304891,0 0.4719781,-0.223932 0.1670871,-0.223931 0.1670871,-0.628729 0,-0.406522 -0.1670871,-0.630453 -0.1670871,-0.223931 -0.4719781,-0.223931 z"
         style="font-style:normal;font-variant:normal;font-weight:bold;font-stretch:normal;font-size:3.52777767px;font-family:system-ui;-inkscape-font-specification:'system-ui Bold';fill:#000000;fill-opacity:0.4745098;stroke-width:0.26458332"
         id="path14561"
         inkscape:connector-curvature="0" />
      <path
         d="m 5.7837673,32.204017 v -1.178223 h 0.6201171 v 0.192926 q 0,0.156751 -0.00172,0.394463 -0.00172,0.235989 -0.00172,0.315226 0,0.232544 0.012058,0.335897 0.012058,0.10163 0.041341,0.148139 0.037896,0.06029 0.098185,0.09302 0.062012,0.03273 0.1412489,0.03273 0.1929254,0 0.3031684,-0.148139 0.1102431,-0.148139 0.1102431,-0.411689 V 31.025794 H 7.723356 v 1.929254 H 7.1066839 v -0.279053 q -0.1395264,0.16881 -0.2962782,0.249769 -0.1550293,0.07924 -0.342787,0.07924 -0.3341743,0 -0.5098741,-0.204983 Q 5.7837673,32.595038 5.7837673,32.20402 Z"
         style="font-style:normal;font-variant:normal;font-weight:bold;font-stretch:normal;font-size:3.52777767px;font-family:system-ui;-inkscape-font-specification:'system-ui Bold';fill:#000000;fill-opacity:0.4745098;stroke-width:0.26458332"
         id="path14563"
         inkscape:connector-curvature="0" />
      <path
         d="m 9.1806316,32.086884 q -0.1929253,0 -0.2911105,0.06546 -0.096463,0.06546 -0.096463,0.192926 0,0.117133 0.077515,0.184312 0.079237,0.06546 0.2187636,0.06546 0.1739773,0 0.2928331,-0.124023 0.1188558,-0.125746 0.1188558,-0.313504 v -0.07062 z M 10.122865,31.85434 v 1.100708 H 9.5010255 v -0.285943 q -0.1240234,0.1757 -0.2790527,0.256659 -0.1550293,0.07924 -0.377238,0.07924 -0.2997233,0 -0.487481,-0.173977 -0.1860351,-0.1757 -0.1860351,-0.454752 0,-0.339342 0.2325439,-0.497817 0.2342665,-0.158474 0.7338053,-0.158474 h 0.3634576 v -0.04823 q 0,-0.146417 -0.1154107,-0.213596 -0.1154107,-0.0689 -0.3600125,-0.0689 -0.1980929,0 -0.3686252,0.03962 -0.1705322,0.03962 -0.3169487,0.118856 v -0.470255 q 0.1980929,-0.04823 0.3979085,-0.07235 0.1998155,-0.02584 0.399631,-0.02584 0.521932,0 0.7527534,0.206706 0.2325437,0.204983 0.2325437,0.668349 z"
         style="font-style:normal;font-variant:normal;font-weight:bold;font-stretch:normal;font-size:3.52777767px;font-family:system-ui;-inkscape-font-specification:'system-ui Bold';fill:#000000;fill-opacity:0.4745098;stroke-width:0.26458332"
         id="path14565"
         inkscape:connector-curvature="0" />
      <path
         d="m 12.009055,31.308292 v -1.033529 h 0.620117 v 2.680285 h -0.620117 v -0.279053 q -0.127469,0.170532 -0.280775,0.249769 -0.153307,0.07924 -0.354845,0.07924 -0.356568,0 -0.585666,-0.282497 -0.229099,-0.284221 -0.229099,-0.730361 0,-0.446139 0.229099,-0.728637 0.229098,-0.284221 0.585666,-0.284221 0.199815,0 0.353122,0.08096 0.155029,0.07924 0.282498,0.248047 z m -0.406521,1.248847 q 0.198093,0 0.301445,-0.144694 0.105076,-0.144694 0.105076,-0.420302 0,-0.275607 -0.105076,-0.420301 -0.103352,-0.144694 -0.301445,-0.144694 -0.196371,0 -0.301446,0.144694 -0.103353,0.144694 -0.103353,0.420301 0,0.275608 0.103353,0.420302 0.105075,0.144694 0.301446,0.144694 z"
         style="font-style:normal;font-variant:normal;font-weight:bold;font-stretch:normal;font-size:3.52777767px;font-family:system-ui;-inkscape-font-specification:'system-ui Bold';fill:#000000;fill-opacity:0.4745098;stroke-width:0.26458332"
         id="path14567"
         inkscape:connector-curvature="0" />
      <path
         d="m 14.654888,31.551171 q -0.08096,-0.0379 -0.161919,-0.05512 -0.07924,-0.01895 -0.160197,-0.01895 -0.237712,0 -0.366903,0.153306 -0.127468,0.151585 -0.127468,0.435805 v 0.888835 h -0.616672 v -1.929254 h 0.616672 v 0.316949 q 0.118856,-0.18948 0.272162,-0.275608 0.15503,-0.08785 0.370348,-0.08785 0.03101,0 0.06718,0.0034 0.03617,0.0017 0.105076,0.01033 z"
         style="font-style:normal;font-variant:normal;font-weight:bold;font-stretch:normal;font-size:3.52777767px;font-family:system-ui;-inkscape-font-specification:'system-ui Bold';fill:#000000;fill-opacity:0.4745098;stroke-width:0.26458332"
         id="path14569"
         inkscape:connector-curvature="0" />
      <path
         d="m 15.879619,31.420258 q -0.204983,0 -0.313503,0.148139 -0.106798,0.146416 -0.106798,0.423746 0,0.277331 0.106798,0.42547 0.10852,0.146416 0.313503,0.146416 0.201539,0 0.308337,-0.146416 0.106797,-0.148139 0.106797,-0.42547 0,-0.27733 -0.106797,-0.423746 -0.106798,-0.148139 -0.308337,-0.148139 z m 0,-0.440973 q 0.497817,0 0.776869,0.268718 0.280776,0.268717 0.280776,0.74414 0,0.475424 -0.280776,0.744141 -0.279052,0.268717 -0.776869,0.268717 -0.499538,0 -0.782036,-0.268717 -0.280775,-0.268717 -0.280775,-0.744141 0,-0.475423 0.280775,-0.74414 0.282498,-0.268718 0.782036,-0.268718 z"
         style="font-style:normal;font-variant:normal;font-weight:bold;font-stretch:normal;font-size:3.52777767px;font-family:system-ui;-inkscape-font-specification:'system-ui Bold';fill:#000000;fill-opacity:0.4745098;stroke-width:0.26458332"
         id="path14571"
         inkscape:connector-curvature="0" />
      <path
         d="m 18.732158,31.568397 q 0.260105,0.06718 0.394463,0.234266 0.136082,0.165365 0.136082,0.422024 0,0.382406 -0.292834,0.582222 -0.292833,0.198092 -0.854383,0.198092 -0.198093,0 -0.397909,-0.03273 -0.198093,-0.03101 -0.392741,-0.09474 v -0.511597 q 0.186036,0.09302 0.368626,0.141249 0.184312,0.04651 0.361735,0.04651 0.263549,0 0.403076,-0.0913 0.141249,-0.09129 0.141249,-0.261827 0,-0.1757 -0.144694,-0.265273 -0.142972,-0.09129 -0.423747,-0.09129 h -0.265272 v -0.427191 h 0.279052 q 0.24977,0 0.372071,-0.07752 0.122301,-0.07924 0.122301,-0.239434 0,-0.148139 -0.118856,-0.229099 -0.118856,-0.08096 -0.335897,-0.08096 -0.160197,0 -0.323839,0.03617 -0.163642,0.03617 -0.325562,0.106798 v -0.485759 q 0.196371,-0.05512 0.389296,-0.08268 0.192926,-0.02756 0.378961,-0.02756 0.501261,0 0.749308,0.165365 0.249769,0.163642 0.249769,0.494371 0,0.225654 -0.118855,0.370348 -0.118856,0.142971 -0.3514,0.201538 z"
         style="font-style:normal;font-variant:normal;font-weight:bold;font-stretch:normal;font-size:3.52777767px;font-family:system-ui;-inkscape-font-specification:'system-ui Bold';fill:#000000;fill-opacity:0.4745098;stroke-width:0.26458332"
         id="path14573"
         inkscape:connector-curvature="0" />
      <path
         d="m 20.819885,31.68553 q -0.173977,0 -0.261827,0.113688 -0.08613,0.111966 -0.08613,0.337619 0,0.225654 0.08613,0.339342 0.08785,0.111966 0.261827,0.111966 0.1757,0 0.261827,-0.111966 0.08785,-0.113688 0.08785,-0.339342 0,-0.225653 -0.08785,-0.337619 -0.08613,-0.113688 -0.261827,-0.113688 z m 0.819933,-1.235067 v 0.475423 q -0.163642,-0.07751 -0.308336,-0.113688 -0.144694,-0.0379 -0.282498,-0.0379 -0.296278,0 -0.461643,0.165365 -0.165364,0.163642 -0.192925,0.487481 0.113688,-0.08441 0.246324,-0.125746 0.132636,-0.04306 0.289388,-0.04306 0.394464,0 0.63562,0.230822 0.24288,0.230821 0.24288,0.604614 0,0.413411 -0.27044,0.663181 -0.27044,0.248046 -0.725193,0.248046 -0.501261,0 -0.776869,-0.337619 -0.273885,-0.339342 -0.273885,-0.961181 0,-0.637343 0.320394,-1.000801 0.322116,-0.36518 0.881944,-0.36518 0.177423,0 0.34451,0.02756 0.167087,0.02756 0.330729,0.08268 z"
         style="font-style:normal;font-variant:normal;font-weight:bold;font-stretch:normal;font-size:3.52777767px;font-family:system-ui;-inkscape-font-specification:'system-ui Bold';fill:#000000;fill-opacity:0.4745098;stroke-width:0.26458332"
         id="path14575"
         inkscape:connector-curvature="0" />
      <path
         d="m 23.620749,31.666582 q 0,-0.482313 -0.09129,-0.678684 -0.08957,-0.198093 -0.303168,-0.198093 -0.213596,0 -0.304891,0.198093 -0.09129,0.196371 -0.09129,0.678684 0,0.487481 0.09129,0.687296 0.09129,0.199816 0.304891,0.199816 0.211873,0 0.303168,-0.199816 0.09129,-0.199815 0.09129,-0.687296 z m 0.663181,0.0052 q 0,0.639065 -0.275608,0.987019 -0.275607,0.346232 -0.782036,0.346232 -0.508152,0 -0.78376,-0.346232 -0.275607,-0.347954 -0.275607,-0.987019 0,-0.640788 0.275607,-0.98702 0.275608,-0.347955 0.78376,-0.347955 0.506429,0 0.782036,0.347955 0.275608,0.346232 0.275608,0.98702 z"
         style="font-style:normal;font-variant:normal;font-weight:bold;font-stretch:normal;font-size:3.52777767px;font-family:system-ui;-inkscape-font-specification:'system-ui Bold';fill:#000000;fill-opacity:0.4745098;stroke-width:0.26458332"
         id="path14577"
         inkscape:connector-curvature="0" />
    </g>
    <g
       aria-label="Angle"
       style="font-style:normal;font-variant:normal;font-weight:normal;font-stretch:normal;font-size:2.11666656px;line-height:1.25;font-family:system-ui;-inkscape-font-specification:system-ui;letter-spacing:0px;word-spacing:0px;fill:#000000;fill-opacity:1;stroke:none;stroke-width:0.26458332"
       id="text14559"
       transform="translate(4.047429,13.229169)">
      <path
         d="M 4.0129714,41.900983 3.5881911,43.052851 H 4.4393019 Z M 3.836238,41.592475 h 0.3550171 l 0.8821167,2.314588 H 4.7478102 L 4.5369704,43.3133 H 3.4936232 L 3.2827834,43.907063 H 2.952571 Z"
         style="font-size:3.17499995px;stroke-width:0.26458332"
         id="path14591"
         inkscape:connector-curvature="0" />
      <path
         d="m 6.8422559,42.859064 v 1.047999 H 6.557002 v -1.038697 q 0,-0.246496 -0.096118,-0.368969 -0.096118,-0.122474 -0.2883545,-0.122474 -0.2309937,0 -0.3643188,0.147278 -0.1333252,0.147278 -0.1333252,0.401526 v 0.981336 H 5.3880812 v -1.736329 h 0.2868042 v 0.269751 q 0.1023193,-0.156579 0.2402954,-0.234094 0.1395263,-0.07751 0.3209106,-0.07751 0.2992065,0 0.4526855,0.186035 0.153479,0.184485 0.153479,0.544152 z"
         style="font-size:3.17499995px;stroke-width:0.26458332"
         id="path14593"
         inkscape:connector-curvature="0" />
      <path
         d="m 8.5537791,43.018745 q 0,-0.310059 -0.1286743,-0.480591 -0.127124,-0.170532 -0.3581177,-0.170532 -0.2294433,0 -0.3581177,0.170532 -0.127124,0.170532 -0.127124,0.480591 0,0.308508 0.127124,0.47904 0.1286744,0.170532 0.3581177,0.170532 0.2309937,0 0.3581177,-0.170532 0.1286743,-0.170532 0.1286743,-0.47904 z m 0.2852539,0.672827 q 0,0.443384 -0.1968872,0.658874 -0.1968872,0.217041 -0.603064,0.217041 -0.1503784,0 -0.2837036,-0.02325 -0.1333252,-0.0217 -0.2588989,-0.06821 v -0.277502 q 0.1255737,0.06821 0.2480469,0.100769 0.1224731,0.03256 0.2495972,0.03256 0.280603,0 0.4201293,-0.147278 0.1395264,-0.145728 0.1395264,-0.441834 v -0.141076 q -0.088367,0.153479 -0.2263428,0.229443 -0.137976,0.07597 -0.3302124,0.07597 -0.3193603,0 -0.5146972,-0.243396 -0.1953369,-0.243396 -0.1953369,-0.644922 0,-0.403076 0.1953369,-0.646472 0.1953369,-0.243396 0.5146972,-0.243396 0.1922364,0 0.3302124,0.07596 0.1379761,0.07596 0.2263428,0.229443 v -0.26355 H 8.839033 Z"
         style="font-size:3.17499995px;stroke-width:0.26458332"
         id="path14595"
         inkscape:connector-curvature="0" />
      <path
         d="M 9.4265941,41.494807 H 9.711848 v 2.412256 H 9.4265941 Z"
         style="font-size:3.17499995px;stroke-width:0.26458332"
         id="path14597"
         inkscape:connector-curvature="0" />
      <path
         d="m 11.793891,42.967585 v 0.139526 h -1.311547 q 0.0186,0.294556 0.176733,0.449585 0.15968,0.153479 0.443384,0.153479 0.164331,0 0.31781,-0.04031 0.155029,-0.04031 0.306958,-0.120923 v 0.269751 q -0.153479,0.06511 -0.31471,0.09922 -0.16123,0.03411 -0.327111,0.03411 -0.415479,0 -0.658875,-0.241846 -0.241846,-0.241845 -0.241846,-0.654223 0,-0.426331 0.229444,-0.675928 0.230993,-0.251147 0.621667,-0.251147 0.350366,0 0.553455,0.226342 0.204638,0.224793 0.204638,0.612366 z m -0.285253,-0.08372 q -0.0031,-0.234094 -0.131775,-0.37362 -0.127124,-0.139527 -0.337964,-0.139527 -0.238745,0 -0.382923,0.134876 -0.142626,0.134875 -0.164331,0.379821 z"
         style="font-size:3.17499995px;stroke-width:0.26458332"
         id="path14599"
         inkscape:connector-curvature="0" />
    </g>
    <g
       aria-label="°"
       style="font-style:normal;font-variant:normal;font-weight:normal;font-stretch:normal;font-size:2.11666656px;line-height:1.25;font-family:system-ui;-inkscape-font-specification:system-ui;letter-spacing:0px;word-spacing:0px;fill:#000000;fill-opacity:1;stroke:none;stroke-width:0.26458332"
       id="text14604"
       transform="translate(-0.300315)">
      <path
         d="m 25.115362,30.019662 q -0.137804,0 -0.232544,0.09646 -0.09474,0.09474 -0.09474,0.232543 0,0.136082 0.09474,0.230822 0.09474,0.09302 0.232544,0.09302 0.137804,0 0.232544,-0.09302 0.09474,-0.09474 0.09474,-0.230822 0,-0.136081 -0.09646,-0.232543 -0.09474,-0.09646 -0.230821,-0.09646 z m 0,-0.222209 q 0.110243,0 0.211873,0.04306 0.101631,0.04134 0.1757,0.120578 0.07924,0.07751 0.118856,0.1757 0.03962,0.09819 0.03962,0.211873 0,0.227377 -0.160197,0.385851 -0.158475,0.156752 -0.389296,0.156752 -0.232544,0 -0.387573,-0.155029 -0.15503,-0.15503 -0.15503,-0.387574 0,-0.230821 0.158475,-0.391018 0.158474,-0.160197 0.387573,-0.160197 z"
         style="font-size:3.52777767px;fill:#797979;fill-opacity:1;stroke-width:0.26458332"
         id="path14606"
         inkscape:connector-curvature="0" />
    </g>
    <g
       aria-label="Outputs"
       style="font-style:normal;font-variant:normal;font-weight:normal;font-stretch:normal;font-size:2.11666656px;line-height:1.25;font-family:system-ui;-inkscape-font-specification:system-ui;letter-spacing:0px;word-spacing:0px;fill:#000000;fill-opacity:1;stroke:none;stroke-width:0.26458332"
       id="text14641">
      <path
         d="m 41.5825,55.034369 q -0.341065,0 -0.542603,0.254248 -0.199988,0.254248 -0.199988,0.692981 0,0.437183 0.199988,0.691431 0.201538,0.254248 0.542603,0.254248 0.341064,0 0.539502,-0.254248 0.199987,-0.254248 0.199987,-0.691431 0,-0.438733 -0.199987,-0.692981 -0.198438,-0.254248 -0.539502,-0.254248 z m 0,-0.254248 q 0.486792,0 0.778247,0.327112 0.291455,0.325561 0.291455,0.874365 0,0.547253 -0.291455,0.874365 -0.291455,0.325562 -0.778247,0.325562 -0.488343,0 -0.781348,-0.325562 -0.291455,-0.325561 -0.291455,-0.874365 0,-0.548804 0.291455,-0.874365 0.293005,-0.327112 0.781348,-0.327112 z"
         style="font-size:3.17499995px;stroke-width:0.26458332"
         id="path14643"
         inkscape:connector-curvature="0" />
      <path
         d="m 43.100237,56.451337 v -1.051099 h 0.285253 v 1.040247 q 0,0.246496 0.09612,0.37052 0.09612,0.122473 0.288354,0.122473 0.230994,0 0.364319,-0.147278 0.134875,-0.147278 0.134875,-0.401526 v -0.984436 h 0.285254 v 1.736328 h -0.285254 v -0.26665 q -0.103869,0.15813 -0.241845,0.235644 -0.136426,0.07597 -0.31781,0.07597 -0.299207,0 -0.454236,-0.186035 -0.155029,-0.186036 -0.155029,-0.544153 z m 0.717785,-1.092957 z"
         style="font-size:3.17499995px;stroke-width:0.26458332"
         id="path14645"
         inkscape:connector-curvature="0" />
      <path
         d="m 45.424126,54.907245 v 0.492993 h 0.587561 v 0.221692 h -0.587561 v 0.942578 q 0,0.21239 0.05736,0.272852 0.05891,0.06046 0.237194,0.06046 h 0.293006 v 0.238745 H 45.71868 q -0.330212,0 -0.455786,-0.122473 Q 45.13732,56.890069 45.13732,56.564507 V 55.62193 h -0.209289 v -0.221692 h 0.209289 v -0.492993 z"
         style="font-size:3.17499995px;stroke-width:0.26458332"
         id="path14647"
         inkscape:connector-curvature="0" />
      <path
         d="m 46.66281,56.876117 v 0.920874 h -0.286804 v -2.396753 h 0.286804 v 0.26355 q 0.08992,-0.155029 0.226343,-0.229443 0.137976,-0.07597 0.328662,-0.07597 0.31626,0 0.513147,0.251148 0.198437,0.251147 0.198437,0.660424 0,0.409278 -0.198437,0.660425 -0.196887,0.251148 -0.513147,0.251148 -0.190686,0 -0.328662,-0.07441 -0.136426,-0.07597 -0.226343,-0.230993 z m 0.970483,-0.606165 q 0,-0.314709 -0.130224,-0.492993 -0.128675,-0.179834 -0.355017,-0.179834 -0.226343,0 -0.356568,0.179834 -0.128674,0.178284 -0.128674,0.492993 0,0.31471 0.128674,0.494544 0.130225,0.178284 0.356568,0.178284 0.226342,0 0.355017,-0.178284 0.130224,-0.179834 0.130224,-0.494544 z"
         style="font-size:3.17499995px;stroke-width:0.26458332"
         id="path14649"
         inkscape:connector-curvature="0" />
      <path
         d="m 48.372783,56.451337 v -1.051099 h 0.285254 v 1.040247 q 0,0.246496 0.09612,0.37052 0.09612,0.122473 0.288355,0.122473 0.230993,0 0.364318,-0.147278 0.134876,-0.147278 0.134876,-0.401526 v -0.984436 h 0.285254 v 1.736328 h -0.285254 v -0.26665 q -0.10387,0.15813 -0.241846,0.235644 -0.136426,0.07597 -0.31781,0.07597 -0.299206,0 -0.454236,-0.186035 -0.155029,-0.186036 -0.155029,-0.544153 z m 0.717786,-1.092957 z"
         style="font-size:3.17499995px;stroke-width:0.26458332"
         id="path14651"
         inkscape:connector-curvature="0" />
      <path
         d="m 50.696672,54.907245 v 0.492993 h 0.587561 v 0.221692 h -0.587561 v 0.942578 q 0,0.21239 0.05736,0.272852 0.05891,0.06046 0.237195,0.06046 h 0.293005 v 0.238745 h -0.293005 q -0.330212,0 -0.455786,-0.122473 -0.125574,-0.124023 -0.125574,-0.449585 V 55.62193 h -0.209289 v -0.221692 h 0.209289 v -0.492993 z"
         style="font-size:3.17499995px;stroke-width:0.26458332"
         id="path14653"
         inkscape:connector-curvature="0" />
      <path
         d="m 52.766313,55.451398 v 0.269751 q -0.120923,-0.06201 -0.251148,-0.09302 -0.130224,-0.03101 -0.269751,-0.03101 -0.21239,0 -0.31936,0.06511 -0.10542,0.06511 -0.10542,0.195336 0,0.09922 0.07596,0.15658 0.07597,0.05581 0.305408,0.10697 l 0.09767,0.0217 q 0.303857,0.06511 0.430981,0.184485 0.128674,0.117823 0.128674,0.330213 0,0.241845 -0.192236,0.382922 -0.190686,0.141077 -0.525549,0.141077 -0.139527,0 -0.291455,-0.02791 -0.150379,-0.02636 -0.31781,-0.08062 v -0.294556 q 0.158129,0.08217 0.311608,0.124024 0.153479,0.04031 0.303858,0.04031 0.201538,0 0.310058,-0.06821 0.108521,-0.06976 0.108521,-0.195337 0,-0.116272 -0.07906,-0.178284 -0.07751,-0.06201 -0.342615,-0.119373 l -0.09922,-0.02325 q -0.265101,-0.05581 -0.382923,-0.170532 -0.117822,-0.116272 -0.117822,-0.31781 0,-0.244946 0.173633,-0.378272 0.173633,-0.133325 0.492993,-0.133325 0.15813,0 0.297656,0.02326 0.139527,0.02325 0.257349,0.06976 z"
         style="font-size:3.17499995px;stroke-width:0.26458332"
         id="path14655"
         inkscape:connector-curvature="0" />
    </g>
    <g
       aria-label="Inputs"
       style="font-style:normal;font-variant:normal;font-weight:normal;font-stretch:normal;font-size:2.11666656px;line-height:1.25;font-family:system-ui;-inkscape-font-specification:system-ui;letter-spacing:0px;word-spacing:0px;fill:#000000;fill-opacity:1;stroke:none;stroke-width:0.26458332"
       id="text14660"
       transform="translate(0.52916663,-1.9035031)">
      <path
         d="m 24.908704,87.436816 h 0.31316 v 2.314588 h -0.31316 z"
         style="font-size:3.17499995px;stroke-width:0.26458332"
         id="path14662"
         inkscape:connector-curvature="0" />
      <path
         d="m 27.276002,88.703406 v 1.047998 h -0.285254 v -1.038696 q 0,-0.246497 -0.09612,-0.36897 -0.09612,-0.122473 -0.288355,-0.122473 -0.230994,0 -0.364319,0.147278 -0.133325,0.147277 -0.133325,0.401525 v 0.981336 h -0.286804 v -1.736328 h 0.286804 v 0.269751 q 0.102319,-0.15658 0.240296,-0.234095 0.139526,-0.07751 0.32091,-0.07751 0.299207,0 0.452686,0.186035 Q 27.276,88.343742 27.276,88.70341 Z"
         style="font-size:3.17499995px;stroke-width:0.26458332"
         id="path14664"
         inkscape:connector-curvature="0" />
      <path
         d="m 28.120911,89.490955 v 0.920874 h -0.286804 v -2.396753 h 0.286804 v 0.26355 q 0.08992,-0.15503 0.226343,-0.229444 0.137976,-0.07596 0.328662,-0.07596 0.31626,0 0.513147,0.251147 0.198438,0.251148 0.198438,0.660425 0,0.409277 -0.198438,0.660425 -0.196887,0.251147 -0.513147,0.251147 -0.190686,0 -0.328662,-0.07441 -0.136426,-0.07596 -0.226343,-0.230993 z m 0.970484,-0.606165 q 0,-0.314709 -0.130225,-0.492993 -0.128674,-0.179834 -0.355017,-0.179834 -0.226343,0 -0.356567,0.179834 -0.128675,0.178284 -0.128675,0.492993 0,0.31471 0.128675,0.494544 0.130224,0.178283 0.356567,0.178283 0.226343,0 0.355017,-0.178283 0.130225,-0.179834 0.130225,-0.494544 z"
         style="font-size:3.17499995px;stroke-width:0.26458332"
         id="path14666"
         inkscape:connector-curvature="0" />
      <path
         d="m 29.830884,89.066174 v -1.051098 h 0.285254 v 1.040246 q 0,0.246497 0.09612,0.37052 0.09612,0.122473 0.288355,0.122473 0.230994,0 0.364319,-0.147277 0.134875,-0.147278 0.134875,-0.401526 v -0.984436 h 0.285254 v 1.736328 h -0.285254 v -0.266651 q -0.103869,0.15813 -0.241845,0.235645 -0.136426,0.07596 -0.317811,0.07596 -0.299206,0 -0.454235,-0.186035 -0.15503,-0.186035 -0.15503,-0.544153 z m 0.717786,-1.092956 z"
         style="font-size:3.17499995px;stroke-width:0.26458332"
         id="path14668"
         inkscape:connector-curvature="0" />
      <path
         d="m 32.154774,87.522083 v 0.492993 h 0.587561 v 0.221692 h -0.587561 v 0.942578 q 0,0.21239 0.05736,0.272851 0.05891,0.06046 0.237194,0.06046 h 0.293006 v 0.238745 h -0.293006 q -0.330212,0 -0.455786,-0.122473 -0.125573,-0.124024 -0.125573,-0.449585 v -0.942578 h -0.20929 v -0.221692 h 0.20929 v -0.492993 z"
         style="font-size:3.17499995px;stroke-width:0.26458332"
         id="path14670"
         inkscape:connector-curvature="0" />
      <path
         d="m 34.224415,88.066235 v 0.269751 q -0.120923,-0.06201 -0.251147,-0.09302 -0.130225,-0.03101 -0.269751,-0.03101 -0.212391,0 -0.319361,0.06511 -0.10542,0.06511 -0.10542,0.195337 0,0.09922 0.07596,0.15658 0.07596,0.05581 0.305407,0.10697 l 0.09767,0.0217 q 0.303857,0.06511 0.430981,0.184485 0.128675,0.117822 0.128675,0.330212 0,0.241846 -0.192237,0.382923 -0.190686,0.141076 -0.525549,0.141076 -0.139526,0 -0.291455,-0.02791 -0.150379,-0.02635 -0.31781,-0.08061 v -0.294556 q 0.15813,0.08217 0.311609,0.124024 0.153479,0.04031 0.303857,0.04031 0.201538,0 0.310059,-0.06821 0.10852,-0.06976 0.10852,-0.195337 0,-0.116272 -0.07906,-0.178283 -0.07751,-0.06201 -0.342614,-0.119373 l -0.09922,-0.02325 q -0.2651,-0.05581 -0.382923,-0.170532 -0.117822,-0.116272 -0.117822,-0.317811 0,-0.244946 0.173633,-0.378271 0.173633,-0.133325 0.492993,-0.133325 0.15813,0 0.297656,0.02325 0.139527,0.02326 0.257349,0.06976 z"
         style="font-size:3.17499995px;stroke-width:0.26458332"
         id="path14672"
         inkscape:connector-curvature="0" />
    </g>
    <g
       aria-label="Radius In"
       style="font-style:normal;font-variant:normal;font-weight:normal;font-stretch:normal;font-size:2.11666656px;line-height:1.25;font-family:system-ui;-inkscape-font-specification:system-ui;letter-spacing:0px;word-spacing:0px;fill:#000000;fill-opacity:1;stroke:none;stroke-width:0.26458332"
       id="text14677"
       transform="translate(0,0.14831267)">
      <path
         d="m 6.2324404,122.86048 q 0.100769,0.0341 0.1953369,0.14573 0.096118,0.11162 0.1922363,0.30696 l 0.31781,0.63252 H 6.6014101 l -0.296106,-0.59377 q -0.1147217,-0.23254 -0.2232422,-0.3085 -0.1069702,-0.076 -0.2930053,-0.076 H 5.4479921 v 0.97824 H 5.1348329 v -2.31459 h 0.7069336 q 0.396875,0 0.5922119,0.16588 0.1953369,0.16588 0.1953369,0.50074 0,0.2186 -0.1023193,0.36277 -0.100769,0.14418 -0.2945556,0.19999 z m -0.7844483,-0.97203 v 0.82165 h 0.3937744 q 0.2263428,0 0.3410645,-0.10387 0.116272,-0.10542 0.116272,-0.30851 0,-0.20308 -0.116272,-0.3054 -0.1147217,-0.10387 -0.3410645,-0.10387 z"
         style="font-size:3.17499995px;stroke-width:0.26458332"
         id="path14763"
         inkscape:connector-curvature="0" />
      <path
         d="m 8.0478334,123.07287 q -0.3457153,0 -0.4790405,0.0791 -0.1333252,0.0791 -0.1333252,0.26975 0,0.15193 0.099219,0.24184 0.1007691,0.0884 0.2728516,0.0884 0.2371948,0 0.3798217,-0.16743 0.1441773,-0.16898 0.1441773,-0.44804 v -0.0636 z m 0.5689575,-0.11782 v 0.99064 H 8.331537 v -0.26355 q -0.097669,0.15813 -0.243396,0.23409 -0.1457275,0.0744 -0.3565674,0.0744 -0.2666504,0 -0.4247802,-0.14882 -0.1565796,-0.15038 -0.1565796,-0.40153 0,-0.293 0.1953369,-0.44183 0.1968872,-0.14883 0.5860107,-0.14883 H 8.331537 v -0.0279 q 0,-0.19688 -0.1302246,-0.30385 -0.1286743,-0.10852 -0.3627686,-0.10852 -0.1488281,0 -0.2899047,0.0356 -0.1410767,0.0357 -0.2713013,0.10697 v -0.26355 q 0.1565796,-0.0605 0.3038574,-0.0899 0.1472778,-0.031 0.2868042,-0.031 0.3767212,0 0.5627563,0.19534 0.1860352,0.19533 0.1860352,0.59221 z"
         style="font-size:3.17499995px;stroke-width:0.26458332"
         id="path14765"
         inkscape:connector-curvature="0" />
      <path
         d="m 10.346918,122.47291 v -0.93948 h 0.285254 v 2.41226 h -0.285254 v -0.26045 q -0.08992,0.15503 -0.227893,0.23099 -0.1364258,0.0744 -0.3286621,0.0744 -0.3147095,0 -0.5131469,-0.25114 -0.1968873,-0.25115 -0.1968873,-0.66043 0,-0.40927 0.1968873,-0.66042 0.1984374,-0.25115 0.5131469,-0.25115 0.1922363,0 0.3286621,0.076 0.137976,0.0744 0.227893,0.22945 z m -0.9720336,0.60616 q 0,0.31471 0.1286743,0.49455 0.1302246,0.17828 0.3565674,0.17828 0.2263429,0 0.3565669,-0.17828 0.130225,-0.17984 0.130225,-0.49455 0,-0.31471 -0.130225,-0.49299 -0.130224,-0.17983 -0.3565669,-0.17983 -0.2263428,0 -0.3565674,0.17983 -0.1286743,0.17828 -0.1286743,0.49299 z"
         style="font-size:3.17499995px;stroke-width:0.26458332"
         id="path14767"
         inkscape:connector-curvature="0" />
      <path
         d="m 11.219733,122.20936 h 0.285254 v 1.73633 h -0.285254 z m 0,-0.67593 h 0.285254 v 0.36122 h -0.285254 z"
         style="font-size:3.17499995px;stroke-width:0.26458332"
         id="path14769"
         inkscape:connector-curvature="0" />
      <path
         d="m 12.072394,123.26046 v -1.0511 h 0.285254 v 1.04024 q 0,0.2465 0.09612,0.37052 0.09612,0.12248 0.288354,0.12248 0.230994,0 0.364319,-0.14728 0.134876,-0.14728 0.134876,-0.40153 v -0.98443 h 0.285254 v 1.73633 h -0.285254 v -0.26665 q -0.10387,0.15813 -0.241846,0.23564 -0.136426,0.076 -0.31781,0.076 -0.299207,0 -0.454236,-0.18603 -0.155029,-0.18604 -0.155029,-0.54415 z m 0.717785,-1.09296 z"
         style="font-size:3.17499995px;stroke-width:0.26458332"
         id="path14771"
         inkscape:connector-curvature="0" />
      <path
         d="m 15.221039,122.26052 v 0.26975 q -0.120923,-0.062 -0.251147,-0.093 -0.130225,-0.031 -0.269751,-0.031 -0.212391,0 -0.319361,0.0651 -0.10542,0.0651 -0.10542,0.19533 0,0.0992 0.07597,0.15658 0.07596,0.0558 0.305407,0.10697 l 0.09767,0.0217 q 0.303857,0.0651 0.430981,0.18448 0.128675,0.11783 0.128675,0.33022 0,0.24184 -0.192237,0.38292 -0.190686,0.14107 -0.525549,0.14107 -0.139526,0 -0.291455,-0.0279 -0.150379,-0.0264 -0.31781,-0.0806 v -0.29455 q 0.15813,0.0822 0.311609,0.12402 0.153479,0.0403 0.303857,0.0403 0.201538,0 0.310059,-0.0682 0.10852,-0.0698 0.10852,-0.19534 0,-0.11627 -0.07906,-0.17828 -0.07751,-0.062 -0.342614,-0.11938 l -0.09922,-0.0233 q -0.2651,-0.0558 -0.382923,-0.17053 -0.117822,-0.11627 -0.117822,-0.31781 0,-0.24495 0.173633,-0.37827 0.173633,-0.13333 0.492993,-0.13333 0.15813,0 0.297656,0.0232 0.139527,0.0233 0.257349,0.0698 z"
         style="font-size:3.17499995px;stroke-width:0.26458332"
         id="path14773"
         inkscape:connector-curvature="0" />
      <path
         d="m 16.789936,121.6311 h 0.313159 v 2.31459 h -0.313159 z"
         style="font-size:3.17499995px;stroke-width:0.26458332"
         id="path14775"
         inkscape:connector-curvature="0" />
      <path
         d="m 19.157233,122.89769 v 1.048 h -0.285254 v -1.0387 q 0,-0.2465 -0.09612,-0.36897 -0.09612,-0.12247 -0.288355,-0.12247 -0.230994,0 -0.364319,0.14728 -0.133325,0.14727 -0.133325,0.40152 v 0.98134 h -0.286804 v -1.73633 h 0.286804 v 0.26975 q 0.102319,-0.15658 0.240295,-0.2341 0.139527,-0.0775 0.320911,-0.0775 0.299207,0 0.452686,0.18604 0.153479,0.18448 0.153479,0.54415 z"
         style="font-size:3.17499995px;stroke-width:0.26458332"
         id="path14777"
         inkscape:connector-curvature="0" />
    </g>
    <g
       aria-label="Radius Out"
       style="font-style:normal;font-variant:normal;font-weight:normal;font-stretch:normal;font-size:2.11666656px;line-height:1.25;font-family:system-ui;-inkscape-font-specification:system-ui;letter-spacing:0px;word-spacing:0px;display:inline;fill:#000000;fill-opacity:1;stroke:none;stroke-width:0.26458332"
       id="text14677-7">
      <path
         d="m 40.140353,123.00867 q 0.100769,0.0341 0.195337,0.14573 0.09612,0.11162 0.192236,0.30696 l 0.31781,0.63252 h -0.336414 l -0.296106,-0.59376 q -0.114721,-0.23255 -0.223242,-0.30851 -0.10697,-0.076 -0.293005,-0.076 h -0.341065 v 0.97824 h -0.313159 v -2.31459 h 0.706934 q 0.396875,0 0.592212,0.16588 0.195337,0.16589 0.195337,0.50075 0,0.21859 -0.10232,0.36277 -0.100769,0.14417 -0.294555,0.19998 z m -0.784449,-0.97203 v 0.82166 h 0.393775 q 0.226343,0 0.341064,-0.10387 0.116272,-0.10542 0.116272,-0.30851 0,-0.20309 -0.116272,-0.30541 -0.114721,-0.10387 -0.341064,-0.10387 z"
         style="font-size:3.17499995px;stroke-width:0.26458332"
         id="path14780" />
      <path
         d="m 41.955746,123.22106 q -0.345716,0 -0.479041,0.0791 -0.133325,0.0791 -0.133325,0.26975 0,0.15193 0.09922,0.24185 0.100769,0.0884 0.272851,0.0884 0.237195,0 0.379822,-0.16743 0.144177,-0.16898 0.144177,-0.44803 v -0.0636 z m 0.568957,-0.11782 v 0.99064 h -0.285254 v -0.26355 q -0.09767,0.15813 -0.243396,0.23409 -0.145727,0.0744 -0.356567,0.0744 -0.266651,0 -0.42478,-0.14883 -0.15658,-0.15038 -0.15658,-0.40153 0,-0.293 0.195337,-0.44183 0.196887,-0.14883 0.586011,-0.14883 h 0.399975 v -0.0279 q 0,-0.19689 -0.130224,-0.30386 -0.128675,-0.10852 -0.362769,-0.10852 -0.148828,0 -0.289905,0.0357 -0.141076,0.0357 -0.271301,0.10697 v -0.26355 q 0.15658,-0.0605 0.303857,-0.0899 0.147278,-0.031 0.286805,-0.031 0.376721,0 0.562756,0.19534 0.186035,0.19534 0.186035,0.59221 z"
         style="font-size:3.17499995px;stroke-width:0.26458332"
         id="path14782" />
      <path
         d="m 44.25483,122.6211 v -0.93948 h 0.285254 v 2.41226 H 44.25483 v -0.26045 q -0.08992,0.15503 -0.227893,0.23099 -0.136426,0.0744 -0.328662,0.0744 -0.314709,0 -0.513147,-0.25115 -0.196887,-0.25115 -0.196887,-0.66042 0,-0.40928 0.196887,-0.66043 0.198438,-0.25115 0.513147,-0.25115 0.192236,0 0.328662,0.076 0.137976,0.0744 0.227893,0.22944 z m -0.972033,0.60617 q 0,0.31471 0.128674,0.49454 0.130225,0.17828 0.356567,0.17828 0.226343,0 0.356568,-0.17828 0.130224,-0.17983 0.130224,-0.49454 0,-0.31471 -0.130224,-0.493 -0.130225,-0.17983 -0.356568,-0.17983 -0.226342,0 -0.356567,0.17983 -0.128674,0.17829 -0.128674,0.493 z"
         style="font-size:3.17499995px;stroke-width:0.26458332"
         id="path14784" />
      <path
         d="m 45.127645,122.35755 h 0.285254 v 1.73633 h -0.285254 z m 0,-0.67593 h 0.285254 v 0.36122 h -0.285254 z"
         style="font-size:3.17499995px;stroke-width:0.26458332"
         id="path14786" />
      <path
         d="m 45.980306,123.40865 v -1.0511 h 0.285254 v 1.04025 q 0,0.24649 0.09612,0.37052 0.09612,0.12247 0.288355,0.12247 0.230993,0 0.364318,-0.14728 0.134876,-0.14727 0.134876,-0.40152 v -0.98444 h 0.285254 v 1.73633 h -0.285254 v -0.26665 q -0.10387,0.15813 -0.241846,0.23564 -0.136426,0.076 -0.31781,0.076 -0.299206,0 -0.454236,-0.18604 -0.155029,-0.18603 -0.155029,-0.54415 z m 0.717786,-1.09296 z"
         style="font-size:3.17499995px;stroke-width:0.26458332"
         id="path14788" />
      <path
         d="m 49.128951,122.40871 v 0.26975 q -0.120923,-0.062 -0.251147,-0.093 -0.130225,-0.031 -0.269751,-0.031 -0.21239,0 -0.319361,0.0651 -0.105419,0.0651 -0.105419,0.19534 0,0.0992 0.07596,0.15658 0.07596,0.0558 0.305408,0.10697 l 0.09767,0.0217 q 0.303857,0.0651 0.430982,0.18449 0.128674,0.11782 0.128674,0.33021 0,0.24184 -0.192237,0.38292 -0.190686,0.14108 -0.525549,0.14108 -0.139526,0 -0.291455,-0.0279 -0.150378,-0.0263 -0.31781,-0.0806 v -0.29456 q 0.15813,0.0822 0.311609,0.12403 0.153479,0.0403 0.303857,0.0403 0.201538,0 0.310059,-0.0682 0.10852,-0.0698 0.10852,-0.19534 0,-0.11627 -0.07906,-0.17828 -0.07751,-0.062 -0.342615,-0.11937 l -0.09922,-0.0233 q -0.2651,-0.0558 -0.382922,-0.17053 -0.117823,-0.11627 -0.117823,-0.31781 0,-0.24495 0.173633,-0.37827 0.173633,-0.13333 0.492993,-0.13333 0.15813,0 0.297657,0.0233 0.139526,0.0233 0.257348,0.0698 z"
         style="font-size:3.17499995px;stroke-width:0.26458332"
         id="path14790" />
      <path
         d="m 51.637325,121.99168 q -0.341064,0 -0.542602,0.25425 -0.199988,0.25425 -0.199988,0.69298 0,0.43718 0.199988,0.69143 0.201538,0.25425 0.542602,0.25425 0.341065,0 0.539502,-0.25425 0.199988,-0.25425 0.199988,-0.69143 0,-0.43873 -0.199988,-0.69298 -0.198437,-0.25425 -0.539502,-0.25425 z m 0,-0.25425 q 0.486792,0 0.778248,0.32712 0.291455,0.32556 0.291455,0.87436 0,0.54725 -0.291455,0.87437 -0.291456,0.32556 -0.778248,0.32556 -0.488342,0 -0.781347,-0.32556 -0.291455,-0.32556 -0.291455,-0.87437 0,-0.5488 0.291455,-0.87436 0.293005,-0.32712 0.781347,-0.32712 z"
         style="font-size:3.17499995px;stroke-width:0.26458332"
         id="path14792" />
      <path
         d="m 53.155062,123.40865 v -1.0511 h 0.285254 v 1.04025 q 0,0.24649 0.09612,0.37052 0.09612,0.12247 0.288355,0.12247 0.230993,0 0.364318,-0.14728 0.134876,-0.14727 0.134876,-0.40152 v -0.98444 h 0.285254 v 1.73633 h -0.285254 v -0.26665 q -0.10387,0.15813 -0.241846,0.23564 -0.136425,0.076 -0.31781,0.076 -0.299206,0 -0.454236,-0.18604 -0.155029,-0.18603 -0.155029,-0.54415 z m 0.717786,-1.09296 z"
         style="font-size:3.17499995px;stroke-width:0.26458332"
         id="path14794" />
      <path
         d="m 55.47895,121.86456 v 0.49299 h 0.587562 v 0.22169 H 55.47895 v 0.94258 q 0,0.21239 0.05736,0.27285 0.05891,0.0605 0.237195,0.0605 h 0.293006 v 0.23875 h -0.293006 q -0.330212,0 -0.455786,-0.12247 -0.125574,-0.12403 -0.125574,-0.44959 v -0.94258 h -0.209289 v -0.22169 h 0.209289 v -0.49299 z"
         style="font-size:3.17499995px;stroke-width:0.26458332"
         id="path14796" />
    </g>
  </g>
</svg>
